STARTFONT 2.1
FONT -FontForge-Good Times Rg-Book-R-Normal--178-1710-75-75-P-1322-ISO10646-1
SIZE 171 75 75
FONTBOUNDINGBOX 354 210 -49 -36
COMMENT "Generated by fontforge, http://fontforge.sourceforge.net"
COMMENT "(c) 1998-2012 Typodermic Fonts Inc. See attached license agreement. If agreement is missing visit typodermicfonts.com for more info. Languages by Chikako Larabie"
STARTPROPERTIES 39
FOUNDRY "FontForge"
FAMILY_NAME "Good Times Rg"
WEIGHT_NAME "Book"
SLANT "R"
SETWIDTH_NAME "Normal"
ADD_STYLE_NAME ""
PIXEL_SIZE 178
POINT_SIZE 1710
RESOLUTION_X 75
RESOLUTION_Y 75
SPACING "P"
AVERAGE_WIDTH 1322
CHARSET_REGISTRY "ISO10646"
CHARSET_ENCODING "1"
FONTNAME_REGISTRY ""
CHARSET_COLLECTIONS "ISO8859-2 ISO8859-9 ISO8859-4 ISO10646-1"
FONT_NAME "GoodTimesRg-Regular"
FACE_NAME "GoodTimesRg-Regular"
COPYRIGHT "(c) 1998-2012 Typodermic Fonts Inc. See attached license agreement. If agreement is missing visit typodermicfonts.com for more info. Languages by Chikako Larabie"
FONT_VERSION "4.001"
FONT_ASCENT 142
FONT_DESCENT 36
UNDERLINE_POSITION -25
UNDERLINE_THICKNESS 4
X_HEIGHT 129
CAP_HEIGHT 129
RAW_ASCENT 799
RAW_DESCENT 201
NORM_SPACE 52
RELATIVE_WEIGHT 40
RELATIVE_SETWIDTH 50
SUPERSCRIPT_X 0
SUPERSCRIPT_Y 53
SUPERSCRIPT_SIZE 53
SUBSCRIPT_X 0
SUBSCRIPT_Y 0
SUBSCRIPT_SIZE 53
AVG_LOWERCASE_WIDTH 1517
AVG_UPPERCASE_WIDTH 1511
ENDPROPERTIES
CHARS 372
STARTCHAR space
ENCODING 32
SWIDTH 294 0
DWIDTH 52 0
BBX 1 1 0 0
BITMAP
00
ENDCHAR
STARTCHAR exclam
ENCODING 33
SWIDTH 298 0
DWIDTH 53 0
BBX 24 130 15 0
BITMAP
7FFFFC
7FFFFC
7FFFFC
7FFFFC
7FFFFC
7FFFFC
7FFFFC
7FFFFC
7FFFFC
7FFFFC
7FFFFC
7FFFFC
7FFFFC
7FFFFC
7FFFFC
7FFFFC
7FFFFC
7FFFFC
7FFFFC
7FFFFC
7FFFFC
7FFFFC
7FFFFC
7FFFFC
7FFFFC
7FFFFC
7FFFFC
7FFFFC
7FFFFC
7FFFFC
7FFFFC
7FFFFC
7FFFFC
7FFFFC
7FFFFC
7FFFFC
7FFFFC
7FFFFC
7FFFFC
7FFFFC
7FFFFC
7FFFFC
7FFFFC
7FFFFC
7FFFFC
7FFFFC
7FFFFC
7FFFFC
7FFFFC
7FFFFC
7FFFFC
7FFFFC
7FFFFC
7FFFFC
7FFFFC
7FFFFC
7FFFFC
7FFFFC
7FFFFC
7FFFFC
7FFFFC
7FFFFC
7FFFFC
7FFFFC
7FFFFC
7FFFFC
7FFFFC
7FFFFC
7FFFFC
7FFFFC
7FFFFC
7FFFFC
7FFFFC
7FFFFC
7FFFFC
7FFFFC
7FFFFC
7FFFFC
7FFFFC
7FFFFC
7FFFFC
7FFFFC
7FFFFC
7FFFFC
7FFFFC
7FFFFC
7FFFFC
7FFFFC
000000
000000
000000
000000
000000
000000
000000
000000
000000
000000
000000
000000
000000
000000
000000
000000
000000
000000
00FF00
03FFC0
0FFFF0
1FFFF8
3FFFFC
7FFFFC
7FFFFE
FFFFFE
FFFFFF
FFFFFF
FFFFFF
FFFFFF
FFFFFF
FFFFFF
FFFFFF
FFFFFF
7FFFFE
7FFFFE
7FFFFC
3FFFFC
1FFFF8
0FFFF0
03FFC0
00FF00
ENDCHAR
STARTCHAR quotedbl
ENCODING 34
SWIDTH 452 0
DWIDTH 80 0
BBX 56 47 12 83
BITMAP
FFFFFE007FFFFF
FFFFFE003FFFFF
FFFFFE003FFFFF
FFFFFE003FFFFF
FFFFFE003FFFFF
7FFFFE003FFFFF
7FFFFE003FFFFF
7FFFFC003FFFFF
7FFFFC003FFFFF
7FFFFC003FFFFF
7FFFFC003FFFFE
7FFFFC003FFFFE
7FFFFC001FFFFE
7FFFFC001FFFFE
7FFFFC001FFFFE
7FFFFC001FFFFE
3FFFFC001FFFFE
3FFFFC001FFFFE
3FFFF8001FFFFE
3FFFF8001FFFFE
3FFFF8001FFFFE
3FFFF8001FFFFC
3FFFF8001FFFFC
3FFFF8000FFFFC
3FFFF8000FFFFC
3FFFF8000FFFFC
3FFFF8000FFFFC
1FFFF8000FFFFC
1FFFF8000FFFFC
1FFFF8000FFFFC
1FFFF0000FFFFC
1FFFF0000FFFFC
1FFFF0000FFFFC
1FFFF0000FFFF8
1FFFF00007FFF8
1FFFF00007FFF8
1FFFF00007FFF8
1FFFF00007FFF8
1FFFF00007FFF8
0FFFF00007FFF8
0FFFF00007FFF8
0FFFE00007FFF8
0FFFE00007FFF8
0FFFE00007FFF8
0FFFE00007FFF0
0FFFE00003FFF0
0FFFE00003FFF0
ENDCHAR
STARTCHAR numbersign
ENCODING 35
SWIDTH 697 0
DWIDTH 124 0
BBX 109 130 8 0
BITMAP
00000000000FFFF8000001FFFE00
00000000000FFFF0000003FFFC00
00000000000FFFF0000003FFFC00
00000000001FFFE0000003FFFC00
00000000001FFFE0000003FFFC00
00000000001FFFE0000007FFF800
00000000003FFFE0000007FFF800
00000000003FFFC0000007FFF800
00000000003FFFC000000FFFF000
00000000007FFFC000000FFFF000
00000000007FFF8000000FFFF000
00000000007FFF8000001FFFE000
00000000007FFF8000001FFFE000
0000000000FFFF0000001FFFE000
0000000000FFFF0000003FFFE000
0000000000FFFF0000003FFFC000
0000000001FFFF0000003FFFC000
0000000001FFFE0000003FFFC000
0000000001FFFE0000007FFF8000
0000000003FFFE0000007FFF8000
0000000003FFFC0000007FFF8000
0000000003FFFC000000FFFF0000
0000000003FFFC000000FFFF0000
0000000007FFF8000000FFFF0000
0000000007FFF8000001FFFE0000
0000000007FFF8000001FFFE0000
000000000FFFF8000001FFFE0000
000000000FFFF0000001FFFE0000
000000000FFFF0000003FFFC0000
000000001FFFF0000003FFFC0000
000000001FFFE0000003FFFC0000
000000001FFFE0000007FFF80000
000000001FFFE0000007FFF80000
0003FFFFFFFFFFFFFFFFFFFFFFF8
0003FFFFFFFFFFFFFFFFFFFFFFF8
0003FFFFFFFFFFFFFFFFFFFFFFF8
0003FFFFFFFFFFFFFFFFFFFFFFF8
0003FFFFFFFFFFFFFFFFFFFFFFF8
0003FFFFFFFFFFFFFFFFFFFFFFF8
0003FFFFFFFFFFFFFFFFFFFFFFF8
0003FFFFFFFFFFFFFFFFFFFFFFF8
0003FFFFFFFFFFFFFFFFFFFFFFF8
0003FFFFFFFFFFFFFFFFFFFFFFF8
0003FFFFFFFFFFFFFFFFFFFFFFF8
0003FFFFFFFFFFFFFFFFFFFFFFF8
0003FFFFFFFFFFFFFFFFFFFFFFF8
0003FFFFFFFFFFFFFFFFFFFFFFF8
0003FFFFFFFFFFFFFFFFFFFFFFF8
00000003FFFC000000FFFF000000
00000007FFF8000000FFFF000000
00000007FFF8000000FFFF000000
00000007FFF8000001FFFE000000
0000000FFFF0000001FFFE000000
0000000FFFF0000001FFFE000000
0000000FFFF0000003FFFC000000
0000000FFFF0000003FFFC000000
0000001FFFE0000003FFFC000000
0000001FFFE0000003FFFC000000
0000001FFFE0000007FFF8000000
0000003FFFC0000007FFF8000000
0000003FFFC0000007FFF8000000
0000003FFFC000000FFFF0000000
0000003FFFC000000FFFF0000000
0000007FFF8000000FFFF0000000
0000007FFF8000001FFFF0000000
0000007FFF8000001FFFE0000000
000000FFFF0000001FFFE0000000
000000FFFF0000001FFFE0000000
000000FFFF0000003FFFC0000000
000000FFFF0000003FFFC0000000
000001FFFE0000003FFFC0000000
000001FFFE0000007FFFC0000000
000001FFFE0000007FFF80000000
000003FFFC0000007FFF80000000
000003FFFC0000007FFF80000000
000003FFFC000000FFFF00000000
000007FFFC000000FFFF00000000
000007FFF8000000FFFF00000000
000007FFF8000001FFFE00000000
000007FFF8000001FFFE00000000
FFFFFFFFFFFFFFFFFFFFFFFE0000
FFFFFFFFFFFFFFFFFFFFFFFE0000
FFFFFFFFFFFFFFFFFFFFFFFE0000
FFFFFFFFFFFFFFFFFFFFFFFE0000
FFFFFFFFFFFFFFFFFFFFFFFE0000
FFFFFFFFFFFFFFFFFFFFFFFE0000
FFFFFFFFFFFFFFFFFFFFFFFE0000
FFFFFFFFFFFFFFFFFFFFFFFE0000
FFFFFFFFFFFFFFFFFFFFFFFE0000
FFFFFFFFFFFFFFFFFFFFFFFE0000
FFFFFFFFFFFFFFFFFFFFFFFE0000
FFFFFFFFFFFFFFFFFFFFFFFE0000
FFFFFFFFFFFFFFFFFFFFFFFE0000
FFFFFFFFFFFFFFFFFFFFFFFE0000
FFFFFFFFFFFFFFFFFFFFFFFE0000
0000FFFF0000003FFFC000000000
0001FFFE0000003FFFC000000000
0001FFFE0000003FFFC000000000
0001FFFE0000007FFF8000000000
0001FFFE0000007FFF8000000000
0003FFFC0000007FFF8000000000
0003FFFC000000FFFF0000000000
0003FFFC000000FFFF0000000000
0007FFF8000000FFFF0000000000
0007FFF8000000FFFF0000000000
0007FFF8000001FFFE0000000000
000FFFF0000001FFFE0000000000
000FFFF0000001FFFE0000000000
000FFFF0000003FFFC0000000000
000FFFF0000003FFFC0000000000
001FFFE0000003FFFC0000000000
001FFFE0000007FFF80000000000
001FFFE0000007FFF80000000000
003FFFC0000007FFF80000000000
003FFFC0000007FFF80000000000
003FFFC000000FFFF00000000000
007FFF8000000FFFF00000000000
007FFF8000000FFFF00000000000
007FFF8000001FFFE00000000000
007FFF8000001FFFE00000000000
00FFFF0000001FFFE00000000000
00FFFF0000003FFFC00000000000
00FFFF0000003FFFC00000000000
01FFFE0000003FFFC00000000000
01FFFE0000003FFFC00000000000
01FFFE0000007FFF800000000000
01FFFC0000007FFF800000000000
03FFFC0000007FFF800000000000
03FFFC000000FFFF000000000000
03FFFC000000FFFF000000000000
ENDCHAR
STARTCHAR dollar
ENCODING 36
SWIDTH 744 0
DWIDTH 132 0
BBX 112 130 10 0
BITMAP
0000000000000FFC000000000000
0000000000000FFC000000000000
0000000000000FFC000000000000
0000000000000FFC000000000000
0000000000000FFC000000000000
0000000000000FFC000000000000
0000000000000FFC000000000000
0000000000000FFC000000000000
0000000000000FFC000000000000
0000000000000FFC000000000000
0000000000000FFC000000000000
0000000000000FFC000000000000
0000000000000FFC000000000000
0000007FFFFFFFFFFFFFFFFFFFE0
000007FFFFFFFFFFFFFFFFFFFFE0
00003FFFFFFFFFFFFFFFFFFFFFE0
0001FFFFFFFFFFFFFFFFFFFFFFE0
0003FFFFFFFFFFFFFFFFFFFFFFE0
000FFFFFFFFFFFFFFFFFFFFFFFE0
001FFFFFFFFFFFFFFFFFFFFFFFE0
007FFFFFFFFFFFFFFFFFFFFFFFE0
00FFFFFFFFFFFFFFFFFFFFFFFFE0
01FFFFFFFFFFFFFFFFFFFFFFFFE0
03FFFFFFFFFFFFFFFFFFFFFFFFE0
07FFFFFFFFFFFFFFFFFFFFFFFFE0
07FFFFFFFFFFFFFFFFFFFFFFFFE0
0FFFFFFFFFFFFFFFFFFFFFFFFFE0
0FFFFFFFFFFFFFFFFFFFFFFFFFE0
1FFFFFFFFFFFFFFFFFFFFFFFFFE0
1FFFFFFFFFFFFFFFFFFFFFFFFFE0
3FFFFFFFFFFFFFFFFFFFFFFFFFE0
3FFFFFF000000FFC000000000000
7FFFFF8000000FFC000000000000
7FFFFF0000000FFC000000000000
7FFFFC0000000FFC000000000000
7FFFFC0000000FFC000000000000
7FFFF80000000FFC000000000000
FFFFF00000000FFC000000000000
FFFFF00000000FFC000000000000
FFFFF00000000FFC000000000000
FFFFE00000000FFC000000000000
FFFFE00000000FFC000000000000
FFFFE00000000FFC000000000000
FFFFE00000000FFC000000000000
FFFFE00000000FFC000000000000
FFFFE00000000FFC000000000000
FFFFE00000000FFC000000000000
7FFFE00000000FFC000000000000
7FFFF00000000FFC000000000000
7FFFF00000000FFC000000000000
7FFFF00000000FFC000000000000
7FFFF80000000FFC000000000000
3FFFFC0000000FFC000000000000
3FFFFE0000000FFC000000000000
3FFFFF0000000FFC000000000000
1FFFFF8000000FFC000000000000
1FFFFFF000000FFC000000000000
0FFFFFFFFFFFFFFFFFFFFE000000
07FFFFFFFFFFFFFFFFFFFFF00000
07FFFFFFFFFFFFFFFFFFFFFF0000
03FFFFFFFFFFFFFFFFFFFFFFC000
01FFFFFFFFFFFFFFFFFFFFFFF000
00FFFFFFFFFFFFFFFFFFFFFFF800
007FFFFFFFFFFFFFFFFFFFFFFE00
003FFFFFFFFFFFFFFFFFFFFFFF00
001FFFFFFFFFFFFFFFFFFFFFFF80
000FFFFFFFFFFFFFFFFFFFFFFFC0
0003FFFFFFFFFFFFFFFFFFFFFFE0
0000FFFFFFFFFFFFFFFFFFFFFFE0
00003FFFFFFFFFFFFFFFFFFFFFF0
000007FFFFFFFFFFFFFFFFFFFFF0
0000007FFFFFFFFFFFFFFFFFFFF8
0000000000000FFC000007FFFFF8
0000000000000FFC000000FFFFFC
0000000000000FFC0000003FFFFC
0000000000000FFC0000001FFFFC
0000000000000FFC0000000FFFFE
0000000000000FFC00000007FFFE
0000000000000FFC00000007FFFE
0000000000000FFC00000003FFFE
0000000000000FFC00000003FFFE
0000000000000FFC00000003FFFF
0000000000000FFC00000003FFFF
0000000000000FFC00000001FFFF
0000000000000FFC00000001FFFF
0000000000000FFC00000001FFFF
0000000000000FFC00000001FFFF
0000000000000FFC00000001FFFF
0000000000000FFC00000003FFFF
0000000000000FFC00000003FFFF
0000000000000FFC00000003FFFF
0000000000000FFC00000003FFFF
0000000000000FFC00000007FFFF
0000000000000FFC00000007FFFE
0000000000000FFC0000000FFFFE
0000000000000FFC0000001FFFFE
0000000000000FFC0000003FFFFE
0000000000000FFC000000FFFFFE
0000000000000FFC000007FFFFFC
3FFFFFFFFFFFFFFFFFFFFFFFFFFC
3FFFFFFFFFFFFFFFFFFFFFFFFFFC
3FFFFFFFFFFFFFFFFFFFFFFFFFF8
3FFFFFFFFFFFFFFFFFFFFFFFFFF8
3FFFFFFFFFFFFFFFFFFFFFFFFFF0
3FFFFFFFFFFFFFFFFFFFFFFFFFF0
3FFFFFFFFFFFFFFFFFFFFFFFFFE0
3FFFFFFFFFFFFFFFFFFFFFFFFFC0
3FFFFFFFFFFFFFFFFFFFFFFFFFC0
3FFFFFFFFFFFFFFFFFFFFFFFFF80
3FFFFFFFFFFFFFFFFFFFFFFFFF00
3FFFFFFFFFFFFFFFFFFFFFFFFE00
3FFFFFFFFFFFFFFFFFFFFFFFF800
3FFFFFFFFFFFFFFFFFFFFFFFF000
3FFFFFFFFFFFFFFFFFFFFFFFE000
3FFFFFFFFFFFFFFFFFFFFFFF8000
3FFFFFFFFFFFFFFFFFFFFFFC0000
3FFFFFFFFFFFFFFFFFFFFFE00000
3FFFFFFFFFFFFFFFFFFFFE000000
0000000000000FFC000000000000
0000000000000FFC000000000000
0000000000000FFC000000000000
0000000000000FFC000000000000
0000000000000FFC000000000000
0000000000000FFC000000000000
0000000000000FFC000000000000
0000000000000FFC000000000000
0000000000000FFC000000000000
0000000000000FFC000000000000
0000000000000FFC000000000000
0000000000000FFC000000000000
ENDCHAR
STARTCHAR percent
ENCODING 37
SWIDTH 965 0
DWIDTH 172 0
BBX 157 150 7 -12
BITMAP
00000000000000000000000000000001FFFC0000
00000000000000000000000000000003FFF80000
00000000000000000000000000000007FFF00000
0000000000000000000000000000000FFFF00000
0000000000000000000000000000000FFFE00000
0000000000000000000000000000001FFFC00000
0000000FFF000000000000000000003FFF800000
000001FFFFF80000000000000000007FFF800000
00000FFFFFFE0000000000000000007FFF000000
00003FFFFFFFC00000000000000000FFFE000000
0000FFFFFFFFF00000000000000001FFFC000000
0001FFFFFFFFF80000000000000003FFF8000000
0007FFFFFFFFFE0000000000000007FFF8000000
000FFFFFFFFFFF0000000000000007FFF0000000
001FFFFFFFFFFF800000000000000FFFE0000000
003FFFFFFFFFFFC00000000000001FFFC0000000
007FFFFFFFFFFFE00000000000003FFFC0000000
00FFFFF001FFFFF00000000000003FFF80000000
01FFFF80001FFFF80000000000007FFF00000000
03FFFC000007FFFC000000000000FFFE00000000
03FFF8000001FFFC000000000001FFFC00000000
07FFE00000007FFE000000000003FFFC00000000
0FFFC00000003FFF000000000003FFF800000000
0FFF800000001FFF000000000007FFF000000000
1FFF000000001FFF80000000000FFFE000000000
1FFF000000000FFF80000000001FFFE000000000
1FFE0000000007FF80000000001FFFC000000000
3FFC0000000007FFC0000000003FFF8000000000
3FFC0000000003FFC0000000007FFF0000000000
3FF80000000003FFC000000000FFFE0000000000
7FF80000000001FFE000000001FFFE0000000000
7FF80000000001FFE000000001FFFC0000000000
7FF00000000001FFE000000003FFF80000000000
7FF00000000000FFE000000007FFF00000000000
7FF00000000000FFE00000000FFFF00000000000
7FF00000000000FFE00000000FFFE00000000000
FFF00000000000FFF00000001FFFC00000000000
FFF00000000000FFF00000003FFF800000000000
FFF00000000000FFF00000007FFF000000000000
FFF00000000000FFF0000000FFFF000000000000
7FF00000000000FFF0000000FFFE000000000000
7FF00000000000FFE0000001FFFC000000000000
7FF00000000000FFE0000003FFF8000000000000
7FF00000000000FFE0000007FFF8000000000000
7FF00000000000FFE0000007FFF0000000000000
7FF00000000001FFE000000FFFE0000000000000
7FF80000000001FFE000001FFFC0000000000000
3FF80000000001FFC000003FFF80000000000000
3FF80000000003FFC000007FFF80000000000000
3FFC0000000003FFC000007FFF00000000000000
1FFC0000000007FF800000FFFE00000000000000
1FFE0000000007FF800001FFFC00000000000000
1FFF000000000FFF800003FFFC00000000000000
0FFF000000001FFF000007FFF800000000000000
0FFF800000001FFF000007FFF000000000000000
07FFC00000003FFE00000FFFE000000000000000
03FFE0000000FFFC00001FFFC000000000000000
03FFF8000001FFFC00003FFFC000000000000000
01FFFC000007FFF800003FFF8000000000000000
00FFFF80001FFFF000007FFF0000000000000000
00FFFFF001FFFFE00000FFFE0000000000000000
007FFFFFFFFFFFE00001FFFE0000000000000000
003FFFFFFFFFFFC00003FFFC0000000000000000
001FFFFFFFFFFF800003FFF80000000000000000
0007FFFFFFFFFE000007FFF00000000000000000
0003FFFFFFFFFC00000FFFE00000000000000000
0001FFFFFFFFF000001FFFE00000000000000000
00007FFFFFFFE000001FFFC00000000000000000
00001FFFFFFF8000003FFF800000000000000000
000007FFFFFE0000007FFF000000000000000000
000000FFFFF0000000FFFF000000000000000000
0000000FFF00000001FFFE000000000000000000
000000000000000001FFFC000000000000000000
000000000000000003FFF8000000000000000000
000000000000000007FFF0000000000000000000
00000000000000000FFFF000000007FFC0000000
00000000000000000FFFE00000007FFFFC000000
00000000000000001FFFC0000003FFFFFF800000
00000000000000003FFF8000000FFFFFFFE00000
00000000000000007FFF8000003FFFFFFFF80000
0000000000000000FFFF000000FFFFFFFFFE0000
0000000000000000FFFE000001FFFFFFFFFF0000
0000000000000001FFFC000003FFFFFFFFFFC000
0000000000000003FFF800000FFFFFFFFFFFE000
0000000000000007FFF800001FFFFFFFFFFFF000
0000000000000007FFF000003FFFFFFFFFFFF800
000000000000000FFFE000003FFFFC007FFFFC00
000000000000001FFFC000007FFFC00007FFFE00
000000000000003FFFC00000FFFF000001FFFE00
000000000000007FFF800001FFFC0000007FFF00
000000000000007FFF000001FFF80000003FFF80
00000000000000FFFE000003FFF00000001FFF80
00000000000001FFFC000003FFE00000000FFFC0
00000000000003FFFC000007FFC000000007FFC0
00000000000003FFF8000007FF8000000003FFE0
00000000000007FFF000000FFF8000000001FFE0
0000000000000FFFE000000FFF0000000001FFF0
0000000000001FFFE000000FFF0000000000FFF0
0000000000003FFFC000001FFE0000000000FFF0
0000000000003FFF8000001FFE00000000007FF0
0000000000007FFF0000001FFC00000000007FF8
000000000000FFFE0000001FFC00000000007FF8
000000000001FFFE0000003FFC00000000007FF8
000000000001FFFC0000003FFC00000000003FF8
000000000003FFF80000003FFC00000000003FF8
000000000007FFF00000003FFC00000000003FF8
00000000000FFFF00000003FF800000000003FF8
00000000001FFFE00000003FF800000000003FF8
00000000001FFFC00000003FF800000000003FF8
00000000003FFF800000003FF800000000003FF8
00000000007FFF000000003FFC00000000003FF8
0000000000FFFF000000003FFC00000000003FF8
0000000001FFFE000000001FFC00000000003FF8
0000000001FFFC000000001FFC00000000007FF8
0000000003FFF8000000001FFC00000000007FF8
0000000007FFF8000000001FFC00000000007FF0
000000000FFFF0000000001FFE0000000000FFF0
000000000FFFE0000000000FFE0000000000FFF0
000000001FFFC0000000000FFF0000000000FFE0
000000003FFF80000000000FFF0000000001FFE0
000000007FFF800000000007FF8000000001FFE0
00000000FFFF000000000007FF8000000003FFC0
00000000FFFE000000000003FFC000000007FFC0
00000001FFFC000000000003FFE00000000FFF80
00000003FFFC000000000001FFF00000001FFF80
00000007FFF8000000000001FFF80000003FFF00
00000007FFF0000000000000FFFC0000007FFF00
0000000FFFE00000000000007FFF000001FFFE00
0000001FFFC00000000000007FFFC00007FFFC00
0000003FFFC00000000000003FFFFC007FFFF800
0000007FFF800000000000001FFFFFFFFFFFF000
0000007FFF000000000000000FFFFFFFFFFFE000
000000FFFE0000000000000007FFFFFFFFFFC000
000001FFFE0000000000000003FFFFFFFFFF8000
000003FFFC0000000000000000FFFFFFFFFF0000
000003FFF800000000000000007FFFFFFFFC0000
000007FFF000000000000000001FFFFFFFF80000
00000FFFE0000000000000000007FFFFFFE00000
00001FFFE0000000000000000001FFFFFF800000
00003FFFC00000000000000000007FFFFC000000
00003FFF8000000000000000000007FFC0000000
00007FFF00000000000000000000000000000000
0000FFFF00000000000000000000000000000000
0001FFFE00000000000000000000000000000000
0001FFFC00000000000000000000000000000000
0003FFF800000000000000000000000000000000
0007FFF000000000000000000000000000000000
000FFFF000000000000000000000000000000000
001FFFE000000000000000000000000000000000
003FFFC000000000000000000000000000000000
ENDCHAR
STARTCHAR ampersand
ENCODING 38
SWIDTH 759 0
DWIDTH 135 0
BBX 121 130 9 0
BITMAP
000000000FFFFFFFF800000000000000
00000003FFFFFFFFF800000000000000
0000003FFFFFFFFFF800000000000000
000001FFFFFFFFFFF800000000000000
00000FFFFFFFFFFFF800000000000000
00003FFFFFFFFFFFF800000000000000
0000FFFFFFFFFFFFF800000000000000
0001FFFFFFFFFFFFF800000000000000
0003FFFFFFFFFFFFF800000000000000
000FFFFFFFFFFFFFF800000000000000
001FFFFFFFFFFFFFF800000000000000
003FFFFFFFFFFFFFF800000000000000
007FFFFFFFFFFFFFF800000000000000
00FFFFFFFFFFFFFFF800000000000000
00FFFFFFFFFFFFFFF800000000000000
01FFFFFFFFFFFFFFF800000000000000
03FFFFFFFFFFFFFFF800000000000000
03FFFFFFFFFFFFFFF800000000000000
07FFFFFFFFFFFFFFF800000000000000
07FFFFFFFFFFFFFFF800000000000000
0FFFFFFFFFFFFFFFF800000000000000
0FFFFFFFFFFFFFFFF800000000000000
0FFFFFFFFFFFFFFFF800000000000000
1FFFFFFFF00000000000000000000000
1FFFFFFF800000000000000000000000
1FFFFFFE000000000000000000000000
1FFFFFFC000000000000000000000000
1FFFFFF8000000000000000000000000
3FFFFFF0000000000000000000000000
3FFFFFE0000000000000000000000000
3FFFFFE0000000000000000000000000
3FFFFFC0000000000000000000000000
3FFFFFC0000000000000000000000000
3FFFFFC0000000000000000000000000
3FFFFF80000000000000000000000000
3FFFFF80000000000000000000000000
3FFFFF80000000000000000000000000
3FFFFF80000000000000000000000000
3FFFFF80000000000000000000000000
1FFFFF80000000000000000000000000
1FFFFF80000000000000000000000000
1FFFFF80000000000000000000000000
1FFFFF80000000000000000000000000
1FFFFFC0000000000000000000000000
0FFFFFC0000000000000000000000000
0FFFFFC0000000000000000000000000
0FFFFFE0000000000000000000000000
07FFFFE0000000000000000000000000
07FFFFF0000000000000000000000000
03FFFFF8000000000000000000000000
03FFFFFC000000000000000000000000
01FFFFFF000000000000000000000000
00FFFFFFC00000000000000000000000
007FFFFFFC0000000000000000000000
007FFFFFFFFFFFFFFFFFFFFFFFFF8000
001FFFFFFFFFFFFFFFFFFFFFFFFF8000
000FFFFFFFFFFFFFFFFFFFFFFFFF8000
0007FFFFFFFFFFFFFFFFFFFFFFFF8000
0003FFFFFFFFFFFFFFFFFFFFFFFF8000
0000FFFFFFFFFFFFFFFFFFFFFFFF8000
00001FFFFFFFFFFFFFFFFFFFFFFF8000
00001FFFFFFFFFFFFFFFFFFFFFFF8000
0000FFFFFFFFFFFFFFFFFFFFFFFF8000
0003FFFFFFFFFFFFFFFFFFFFFFFF8000
0007FFFFFFFFFFFFFFFFFFFFFFFF8000
001FFFFFFFFFFFFFFFFFFFFFFFFF8000
003FFFFFFFFFFFFFFFFFFFFFFFFF8000
007FFFFFFFFFFFFFFFFFFFFFFFFF8000
00FFFFFFFFFFFFFFFFFFFFFFFFFF8000
01FFFFFFFFFFFFFFFFFFFFFFFFFF8000
03FFFFFFFFFFFFFFFFFFFFFFFFFF8000
07FFFFFFFFFFFFFFFFFFFFFFFFFF8000
07FFFFFFFFFFFFFFFFFFFFFFFFFF8000
0FFFFFFFFC000000001FFFFFC0000000
1FFFFFFF80000000001FFFFFC0000000
1FFFFFFE00000000001FFFFFC0000000
3FFFFFF800000000001FFFFFC0000000
3FFFFFE000000000001FFFFFC0000000
3FFFFFC000000000001FFFFFC0000000
7FFFFF8000000000001FFFFFC0000000
7FFFFF8000000000001FFFFFC0000000
7FFFFF0000000000001FFFFFC0000000
FFFFFF0000000000001FFFFFC0000000
FFFFFE0000000000001FFFFFC0000000
FFFFFE0000000000001FFFFFC0000000
FFFFFE0000000000001FFFFFC0000000
FFFFFE0000000000001FFFFFC0000000
FFFFFE0000000000001FFFFFC0000000
FFFFFE0000000000001FFFFFC0000000
FFFFFE0000000000001FFFFFC0000000
FFFFFE0000000000001FFFFFC0000000
FFFFFE0000000000001FFFFFC0000000
FFFFFE0000000000001FFFFFC0000000
FFFFFE0000000000001FFFFFC0000000
FFFFFE0000000000001FFFFFC0000000
FFFFFE0000000000001FFFFFC0000000
FFFFFF0000000000001FFFFFC0000000
FFFFFF0000000000001FFFFFC0000000
FFFFFF8000000000001FFFFFC0000000
7FFFFF8000000000001FFFFFC0000000
7FFFFFC000000000001FFFFFC0000000
7FFFFFE000000000001FFFFFC0000000
7FFFFFF000000000001FFFFFC0000000
3FFFFFF800000000001FFFFFC0000000
3FFFFFFE00000000001FFFFFC0000000
3FFFFFFF80000000001FFFFFC0000000
1FFFFFFFF8000000001FFFFFC0000000
1FFFFFFFFFFFFFFFFFFFFFFFFFFFFF80
1FFFFFFFFFFFFFFFFFFFFFFFFFFFFF80
0FFFFFFFFFFFFFFFFFFFFFFFFFFFFF80
0FFFFFFFFFFFFFFFFFFFFFFFFFFFFF80
07FFFFFFFFFFFFFFFFFFFFFFFFFFFF80
03FFFFFFFFFFFFFFFFFFFFFFFFFFFF80
03FFFFFFFFFFFFFFFFFFFFFFFFFFFF80
01FFFFFFFFFFFFFFFFFFFFFFFFFFFF80
00FFFFFFFFFFFFFFFFFFFFFFFFFFFF80
00FFFFFFFFFFFFFFFFFFFFFFFFFFFF80
007FFFFFFFFFFFFFFFFFFFFFFFFFFF80
003FFFFFFFFFFFFFFFFFFFFFFFFFFF80
001FFFFFFFFFFFFFFFFFFFFFFFFFFF80
000FFFFFFFFFFFFFFFFFFFFFFFFFFF80
0007FFFFFFFFFFFFFFFFFFFFFFFFFF80
0001FFFFFFFFFFFFFFFFFFFFFFFFFF80
0000FFFFFFFFFFFFFFFFFFFFFFFFFF80
00003FFFFFFFFFFFFFFFFFFFFFFFFF80
00000FFFFFFFFFFFFFFFFFFFFFFFFF80
000003FFFFFFFFFFFFFFFFFFFFFFFF80
0000007FFFFFFFFFFFFFFFFFFFFFFF80
0000000FFFFFFFFFFFFFFFFFFFFFFF80
000000003FFFFFFFFFFFFFFFFFFFFF80
ENDCHAR
STARTCHAR quotesingle
ENCODING 39
SWIDTH 255 0
DWIDTH 45 0
BBX 23 47 11 83
BITMAP
FFFFFE
FFFFFE
FFFFFE
7FFFFE
7FFFFE
7FFFFE
7FFFFE
7FFFFE
7FFFFC
7FFFFC
7FFFFC
7FFFFC
7FFFFC
7FFFFC
3FFFFC
3FFFFC
3FFFFC
3FFFFC
3FFFFC
3FFFF8
3FFFF8
3FFFF8
3FFFF8
3FFFF8
3FFFF8
1FFFF8
1FFFF8
1FFFF8
1FFFF8
1FFFF8
1FFFF0
1FFFF0
1FFFF0
1FFFF0
1FFFF0
1FFFF0
0FFFF0
0FFFF0
0FFFF0
0FFFF0
0FFFF0
0FFFE0
0FFFE0
0FFFE0
0FFFE0
0FFFE0
0FFFE0
ENDCHAR
STARTCHAR parenleft
ENCODING 40
SWIDTH 356 0
DWIDTH 63 0
BBX 35 164 17 -16
BITMAP
00003FFFE0
00003FFFC0
00003FFFC0
00007FFF80
00007FFF80
0000FFFF80
0000FFFF00
0001FFFF00
0001FFFE00
0001FFFE00
0003FFFE00
0003FFFC00
0003FFFC00
0007FFF800
0007FFF800
000FFFF800
000FFFF000
000FFFF000
001FFFE000
001FFFE000
001FFFE000
003FFFC000
003FFFC000
003FFFC000
007FFF8000
007FFF8000
007FFF8000
00FFFF0000
00FFFF0000
00FFFF0000
01FFFE0000
01FFFE0000
01FFFE0000
01FFFC0000
03FFFC0000
03FFFC0000
03FFF80000
07FFF80000
07FFF80000
07FFF00000
07FFF00000
0FFFF00000
0FFFF00000
0FFFE00000
0FFFE00000
0FFFE00000
1FFFE00000
1FFFC00000
1FFFC00000
1FFFC00000
1FFFC00000
3FFF800000
3FFF800000
3FFF800000
3FFF800000
3FFF800000
3FFF800000
7FFF000000
7FFF000000
7FFF000000
7FFF000000
7FFF000000
7FFF000000
7FFE000000
7FFE000000
FFFE000000
FFFE000000
FFFE000000
FFFE000000
FFFE000000
FFFE000000
FFFE000000
FFFC000000
FFFC000000
FFFC000000
FFFC000000
FFFC000000
FFFC000000
FFFC000000
FFFC000000
FFFC000000
FFFC000000
FFFC000000
FFFC000000
FFFC000000
FFFC000000
FFFC000000
FFFC000000
FFFC000000
FFFC000000
FFFC000000
FFFC000000
FFFE000000
FFFE000000
FFFE000000
FFFE000000
FFFE000000
FFFE000000
7FFE000000
7FFE000000
7FFE000000
7FFE000000
7FFF000000
7FFF000000
7FFF000000
7FFF000000
7FFF000000
3FFF000000
3FFF800000
3FFF800000
3FFF800000
3FFF800000
3FFF800000
1FFF800000
1FFFC00000
1FFFC00000
1FFFC00000
1FFFC00000
0FFFE00000
0FFFE00000
0FFFE00000
0FFFE00000
0FFFF00000
07FFF00000
07FFF00000
07FFF00000
07FFF80000
03FFF80000
03FFF80000
03FFFC0000
01FFFC0000
01FFFC0000
01FFFC0000
01FFFE0000
00FFFE0000
00FFFE0000
00FFFF0000
007FFF0000
007FFF0000
007FFF8000
003FFF8000
003FFFC000
003FFFC000
001FFFC000
001FFFE000
001FFFE000
000FFFE000
000FFFF000
0007FFF000
0007FFF800
0007FFF800
0003FFFC00
0003FFFC00
0001FFFC00
0001FFFE00
0001FFFE00
0000FFFF00
0000FFFF00
00007FFF80
00007FFF80
00003FFFC0
00003FFFC0
00003FFFC0
00001FFFE0
ENDCHAR
STARTCHAR parenright
ENCODING 41
SWIDTH 355 0
DWIDTH 63 0
BBX 36 164 11 -16
BITMAP
7FFF800000
7FFF800000
3FFFC00000
3FFFC00000
3FFFC00000
1FFFE00000
1FFFE00000
0FFFF00000
0FFFF00000
07FFF00000
07FFF80000
07FFF80000
03FFFC0000
03FFFC0000
03FFFC0000
01FFFE0000
01FFFE0000
00FFFE0000
00FFFF0000
00FFFF0000
007FFF8000
007FFF8000
007FFF8000
003FFFC000
003FFFC000
001FFFC000
001FFFE000
001FFFE000
000FFFE000
000FFFE000
000FFFF000
000FFFF000
0007FFF000
0007FFF800
0007FFF800
0003FFF800
0003FFFC00
0003FFFC00
0001FFFC00
0001FFFC00
0001FFFE00
0001FFFE00
0000FFFE00
0000FFFE00
0000FFFE00
0000FFFF00
00007FFF00
00007FFF00
00007FFF00
00007FFF80
00003FFF80
00003FFF80
00003FFF80
00003FFF80
00003FFF80
00001FFFC0
00001FFFC0
00001FFFC0
00001FFFC0
00001FFFC0
00001FFFC0
00000FFFC0
00000FFFE0
00000FFFE0
00000FFFE0
00000FFFE0
00000FFFE0
00000FFFE0
00000FFFE0
00000FFFE0
000007FFE0
000007FFE0
000007FFE0
000007FFE0
000007FFE0
000007FFF0
000007FFF0
000007FFF0
000007FFF0
000007FFF0
000007FFF0
000007FFF0
000007FFF0
000007FFF0
000007FFF0
000007FFF0
000007FFF0
000007FFF0
000007FFE0
000007FFE0
000007FFE0
000007FFE0
000007FFE0
000007FFE0
00000FFFE0
00000FFFE0
00000FFFE0
00000FFFE0
00000FFFE0
00000FFFE0
00000FFFE0
00000FFFE0
00000FFFC0
00001FFFC0
00001FFFC0
00001FFFC0
00001FFFC0
00001FFFC0
00001FFFC0
00003FFF80
00003FFF80
00003FFF80
00003FFF80
00003FFF80
00007FFF80
00007FFF00
00007FFF00
00007FFF00
00007FFF00
0000FFFF00
0000FFFE00
0000FFFE00
0000FFFE00
0001FFFE00
0001FFFC00
0001FFFC00
0003FFFC00
0003FFFC00
0003FFF800
0003FFF800
0007FFF800
0007FFF800
0007FFF000
000FFFF000
000FFFF000
000FFFE000
001FFFE000
001FFFE000
001FFFC000
003FFFC000
003FFFC000
003FFF8000
007FFF8000
007FFF8000
00FFFF0000
00FFFF0000
00FFFE0000
01FFFE0000
01FFFE0000
01FFFC0000
03FFFC0000
03FFFC0000
07FFF80000
07FFF80000
0FFFF00000
0FFFF00000
0FFFF00000
1FFFE00000
1FFFE00000
3FFFC00000
3FFFC00000
7FFF800000
7FFF800000
FFFF000000
ENDCHAR
STARTCHAR asterisk
ENCODING 42
SWIDTH 469 0
DWIDTH 83 0
BBX 61 59 11 71
BITMAP
0000007FF0000000
0000007FF0000000
0000007FF0000000
0000007FF0000000
0000007FF0000000
0000007FF0000000
0000007FF0000000
0000007FF0000000
0000007FF0000000
0000007FF0000000
0000007FF0000000
0000007FF0000000
0000007FF0000000
0000007FF0000000
0000007FF0000000
0000007FF0000000
1800007FF0000040
1F00007FF00007E0
1FE0007FF0003FE0
3FFC007FF001FFE0
3FFFC07FF00FFFE0
3FFFF87FF0FFFFF0
7FFFFF7FF7FFFFF0
7FFFFFFFFFFFFFF0
7FFFFFFFFFFFFFF8
FFFFFFFFFFFFFFF8
7FFFFFFFFFFFFFF0
07FFFFFFFFFFFF80
00FFFFFFFFFFF800
001FFFFFFFFFC000
0003FFFFFFFE0000
00003FFFFFF00000
000007FFFF000000
000003FFFF000000
000007FFFF000000
00000FFFFF800000
00000FFFFFC00000
00001FFFFFC00000
00003FFFFFE00000
00007FFDFFF00000
00007FFCFFF80000
0000FFF8FFF80000
0001FFF07FFC0000
0001FFF03FFE0000
0003FFE03FFE0000
0007FFC01FFF0000
0007FFC00FFF8000
000FFF8007FF8000
001FFF0007FFC000
003FFE0003FFE000
003FFE0001FFF000
007FFC0001FFF000
007FF80000FFF800
003FF800007FE000
000FF000003FC000
0007E000003F8000
0003C000001E0000
0001C000000C0000
0000800000080000
ENDCHAR
STARTCHAR plus
ENCODING 43
SWIDTH 690 0
DWIDTH 123 0
BBX 101 101 11 16
BITMAP
00000000001FFFC00000000000
00000000001FFFC00000000000
00000000001FFFC00000000000
00000000001FFFC00000000000
00000000001FFFC00000000000
00000000001FFFC00000000000
00000000001FFFC00000000000
00000000001FFFC00000000000
00000000001FFFC00000000000
00000000001FFFC00000000000
00000000001FFFC00000000000
00000000001FFFC00000000000
00000000001FFFC00000000000
00000000001FFFC00000000000
00000000001FFFC00000000000
00000000001FFFC00000000000
00000000001FFFC00000000000
00000000001FFFC00000000000
00000000001FFFC00000000000
00000000001FFFC00000000000
00000000001FFFC00000000000
00000000001FFFC00000000000
00000000001FFFC00000000000
00000000001FFFC00000000000
00000000001FFFC00000000000
00000000001FFFC00000000000
00000000001FFFC00000000000
00000000001FFFC00000000000
00000000001FFFC00000000000
00000000001FFFC00000000000
00000000001FFFC00000000000
00000000001FFFC00000000000
00000000001FFFC00000000000
00000000001FFFC00000000000
00000000001FFFC00000000000
00000000001FFFC00000000000
00000000001FFFC00000000000
00000000001FFFC00000000000
00000000001FFFC00000000000
00000000001FFFC00000000000
00000000001FFFC00000000000
00000000001FFFC00000000000
00000000001FFFC00000000000
FFFFFFFFFFFFFFFFFFFFFFFFF8
FFFFFFFFFFFFFFFFFFFFFFFFF8
FFFFFFFFFFFFFFFFFFFFFFFFF8
FFFFFFFFFFFFFFFFFFFFFFFFF8
FFFFFFFFFFFFFFFFFFFFFFFFF8
FFFFFFFFFFFFFFFFFFFFFFFFF8
FFFFFFFFFFFFFFFFFFFFFFFFF8
FFFFFFFFFFFFFFFFFFFFFFFFF8
FFFFFFFFFFFFFFFFFFFFFFFFF8
FFFFFFFFFFFFFFFFFFFFFFFFF8
FFFFFFFFFFFFFFFFFFFFFFFFF8
FFFFFFFFFFFFFFFFFFFFFFFFF8
FFFFFFFFFFFFFFFFFFFFFFFFF8
FFFFFFFFFFFFFFFFFFFFFFFFF8
FFFFFFFFFFFFFFFFFFFFFFFFF8
00000000001FFFC00000000000
00000000001FFFC00000000000
00000000001FFFC00000000000
00000000001FFFC00000000000
00000000001FFFC00000000000
00000000001FFFC00000000000
00000000001FFFC00000000000
00000000001FFFC00000000000
00000000001FFFC00000000000
00000000001FFFC00000000000
00000000001FFFC00000000000
00000000001FFFC00000000000
00000000001FFFC00000000000
00000000001FFFC00000000000
00000000001FFFC00000000000
00000000001FFFC00000000000
00000000001FFFC00000000000
00000000001FFFC00000000000
00000000001FFFC00000000000
00000000001FFFC00000000000
00000000001FFFC00000000000
00000000001FFFC00000000000
00000000001FFFC00000000000
00000000001FFFC00000000000
00000000001FFFC00000000000
00000000001FFFC00000000000
00000000001FFFC00000000000
00000000001FFFC00000000000
00000000001FFFC00000000000
00000000001FFFC00000000000
00000000001FFFC00000000000
00000000001FFFC00000000000
00000000001FFFC00000000000
00000000001FFFC00000000000
00000000001FFFC00000000000
00000000001FFFC00000000000
00000000001FFFC00000000000
00000000001FFFC00000000000
00000000001FFFC00000000000
00000000001FFFC00000000000
00000000001FFFC00000000000
00000000001FFFC00000000000
00000000001FFFC00000000000
ENDCHAR
STARTCHAR comma
ENCODING 44
SWIDTH 259 0
DWIDTH 46 0
BBX 23 46 12 -21
BITMAP
FFFFFE
FFFFFE
FFFFFC
FFFFFC
FFFFFC
FFFFFC
FFFFFC
FFFFF8
FFFFF8
FFFFF8
FFFFF8
FFFFF8
FFFFF0
FFFFF0
FFFFF0
FFFFF0
FFFFF0
FFFFF0
FFFFE0
FFFFE0
FFFFE0
FFFFE0
FFFFE0
FFFFC0
FFFFC0
FFFFC0
FFFFC0
FFFFC0
FFFF80
FFFF80
FFFF80
FFFF80
FFFF80
FFFF00
FFFF00
FFFF00
FFFF00
FFFF00
FFFE00
FFFE00
FFFE00
FFFE00
FFFE00
FFFC00
FFFC00
FFFC00
ENDCHAR
STARTCHAR hyphen
ENCODING 45
SWIDTH 296 0
DWIDTH 53 0
BBX 43 15 5 58
BITMAP
FFFFFFFFFFE0
FFFFFFFFFFE0
FFFFFFFFFFE0
FFFFFFFFFFE0
FFFFFFFFFFE0
FFFFFFFFFFE0
FFFFFFFFFFE0
FFFFFFFFFFE0
FFFFFFFFFFE0
FFFFFFFFFFE0
FFFFFFFFFFE0
FFFFFFFFFFE0
FFFFFFFFFFE0
FFFFFFFFFFE0
FFFFFFFFFFE0
ENDCHAR
STARTCHAR period
ENCODING 46
SWIDTH 262 0
DWIDTH 47 0
BBX 24 24 11 0
BITMAP
007F00
03FFC0
07FFF0
0FFFF8
1FFFFC
3FFFFE
7FFFFE
7FFFFF
7FFFFF
FFFFFF
FFFFFF
FFFFFF
FFFFFF
FFFFFF
FFFFFF
7FFFFF
7FFFFF
7FFFFE
3FFFFE
1FFFFC
0FFFF8
07FFF0
03FFC0
00FF00
ENDCHAR
STARTCHAR slash
ENCODING 47
SWIDTH 444 0
DWIDTH 79 0
BBX 75 130 2 0
BITMAP
000000000000000FFFE0
000000000000000FFFE0
000000000000001FFFC0
000000000000001FFFC0
000000000000003FFF80
000000000000003FFF80
000000000000007FFF00
000000000000007FFF00
00000000000000FFFE00
00000000000000FFFE00
00000000000000FFFC00
00000000000001FFFC00
00000000000001FFF800
00000000000003FFF800
00000000000003FFF800
00000000000007FFF000
00000000000007FFF000
0000000000000FFFE000
0000000000000FFFE000
0000000000001FFFC000
0000000000001FFFC000
0000000000003FFF8000
0000000000003FFF8000
0000000000007FFF0000
0000000000007FFF0000
0000000000007FFE0000
000000000000FFFE0000
000000000000FFFE0000
000000000001FFFC0000
000000000001FFFC0000
000000000003FFF80000
000000000003FFF80000
000000000007FFF00000
000000000007FFF00000
00000000000FFFE00000
00000000000FFFE00000
00000000001FFFC00000
00000000001FFFC00000
00000000003FFF800000
00000000003FFF800000
00000000003FFF800000
00000000007FFF000000
00000000007FFF000000
0000000000FFFE000000
0000000000FFFE000000
0000000001FFFC000000
0000000001FFFC000000
0000000003FFF8000000
0000000003FFF8000000
0000000007FFF0000000
0000000007FFF0000000
000000000FFFE0000000
000000000FFFE0000000
000000001FFFE0000000
000000001FFFC0000000
000000003FFFC0000000
000000003FFF80000000
000000003FFF80000000
000000007FFF00000000
000000007FFF00000000
00000000FFFE00000000
00000000FFFE00000000
00000001FFFC00000000
00000001FFFC00000000
00000003FFFC00000000
00000003FFF800000000
00000007FFF800000000
00000007FFF000000000
0000000FFFF000000000
0000000FFFE000000000
0000001FFFE000000000
0000001FFFC000000000
0000001FFFC000000000
0000003FFF8000000000
0000003FFF8000000000
0000007FFF0000000000
0000007FFF0000000000
000000FFFF0000000000
000000FFFE0000000000
000001FFFE0000000000
000001FFFC0000000000
000003FFFC0000000000
000003FFF80000000000
000007FFF80000000000
000007FFF00000000000
00000FFFF00000000000
00000FFFE00000000000
00001FFFE00000000000
00001FFFC00000000000
00001FFFC00000000000
00003FFFC00000000000
00003FFF800000000000
00007FFF800000000000
00007FFF000000000000
0000FFFF000000000000
0000FFFE000000000000
0001FFFE000000000000
0001FFFC000000000000
0003FFFC000000000000
0003FFF8000000000000
0007FFF8000000000000
0007FFF0000000000000
000FFFF0000000000000
000FFFF0000000000000
000FFFE0000000000000
001FFFE0000000000000
001FFFC0000000000000
003FFFC0000000000000
003FFF80000000000000
007FFF80000000000000
007FFF00000000000000
00FFFF00000000000000
00FFFE00000000000000
01FFFE00000000000000
01FFFC00000000000000
03FFFC00000000000000
03FFFC00000000000000
07FFF800000000000000
07FFF800000000000000
07FFF000000000000000
0FFFF000000000000000
0FFFE000000000000000
1FFFE000000000000000
1FFFC000000000000000
3FFFC000000000000000
3FFF8000000000000000
7FFF8000000000000000
7FFF0000000000000000
FFFF0000000000000000
FFFF0000000000000000
ENDCHAR
STARTCHAR zero
ENCODING 48
SWIDTH 838 0
DWIDTH 149 0
BBX 135 130 7 0
BITMAP
000000000000001FFFF800000000000000
0000000000000FFFFFFFE0000000000000
000000000000FFFFFFFFFE000000000000
000000000007FFFFFFFFFFE00000000000
00000000003FFFFFFFFFFFF80000000000
0000000001FFFFFFFFFFFFFF0000000000
0000000007FFFFFFFFFFFFFFC000000000
000000001FFFFFFFFFFFFFFFF000000000
000000007FFFFFFFFFFFFFFFFC00000000
00000001FFFFFFFFFFFFFFFFFF00000000
00000007FFFFFFFFFFFFFFFFFFC0000000
0000000FFFFFFFFFFFFFFFFFFFE0000000
0000003FFFFFFFFFFFFFFFFFFFF8000000
0000007FFFFFFFFFFFFFFFFFFFFC000000
000000FFFFFFFFFFFFFFFFFFFFFE000000
000003FFFFFFFFFFFFFFFFFFFFFF800000
000007FFFFFFFFFFFFFFFFFFFFFFC00000
00000FFFFFFFFFFFFFFFFFFFFFFFE00000
00001FFFFFFFFFFFFFFFFFFFFFFFF00000
00003FFFFFFFFFFFFFFFFFFFFFFFF80000
00007FFFFFFFFFFFFFFFFFFFFFFFFC0000
0000FFFFFFFFFFFFFFFFFFFFFFFFFE0000
0001FFFFFFFFFFFFFFFFFFFFFFFFFF0000
0001FFFFFFFFFFC00007FFFFFFFFFF8000
0003FFFFFFFFF80000003FFFFFFFFF8000
0007FFFFFFFFC000000007FFFFFFFFC000
000FFFFFFFFE0000000000FFFFFFFFE000
001FFFFFFFF800000000003FFFFFFFF000
001FFFFFFFE000000000000FFFFFFFF000
003FFFFFFF80000000000003FFFFFFF800
003FFFFFFF00000000000001FFFFFFFC00
007FFFFFFC000000000000007FFFFFFC00
00FFFFFFF8000000000000003FFFFFFE00
00FFFFFFF0000000000000001FFFFFFE00
01FFFFFFE0000000000000000FFFFFFF00
01FFFFFFC00000000000000007FFFFFF00
03FFFFFF800000000000000003FFFFFF80
03FFFFFF000000000000000001FFFFFF80
07FFFFFE000000000000000000FFFFFFC0
07FFFFFC000000000000000000FFFFFFC0
07FFFFFC0000000000000000007FFFFFE0
0FFFFFF80000000000000000003FFFFFE0
0FFFFFF80000000000000000003FFFFFE0
0FFFFFF00000000000000000001FFFFFF0
1FFFFFF00000000000000000001FFFFFF0
1FFFFFE00000000000000000000FFFFFF0
1FFFFFE00000000000000000000FFFFFF0
3FFFFFC000000000000000000007FFFFF8
3FFFFFC000000000000000000007FFFFF8
3FFFFF8000000000000000000003FFFFF8
3FFFFF8000000000000000000003FFFFF8
7FFFFF8000000000000000000003FFFFFC
7FFFFF8000000000000000000003FFFFFC
7FFFFF0000000000000000000001FFFFFC
7FFFFF0000000000000000000001FFFFFC
7FFFFF0000000000000000000001FFFFFC
7FFFFF0000000000000000000001FFFFFC
7FFFFF0000000000000000000001FFFFFC
7FFFFE0000000000000000000000FFFFFC
7FFFFE0000000000000000000000FFFFFE
7FFFFE0000000000000000000000FFFFFE
FFFFFE0000000000000000000000FFFFFE
FFFFFE0000000000000000000000FFFFFE
FFFFFE0000000000000000000000FFFFFE
FFFFFE0000000000000000000000FFFFFE
FFFFFE0000000000000000000000FFFFFE
7FFFFE0000000000000000000000FFFFFE
7FFFFE0000000000000000000000FFFFFE
7FFFFE0000000000000000000000FFFFFE
7FFFFE0000000000000000000000FFFFFC
7FFFFE0000000000000000000000FFFFFC
7FFFFF0000000000000000000001FFFFFC
7FFFFF0000000000000000000001FFFFFC
7FFFFF0000000000000000000001FFFFFC
7FFFFF0000000000000000000001FFFFFC
7FFFFF0000000000000000000001FFFFFC
3FFFFF0000000000000000000001FFFFFC
3FFFFF8000000000000000000003FFFFF8
3FFFFF8000000000000000000003FFFFF8
3FFFFF8000000000000000000003FFFFF8
3FFFFFC000000000000000000007FFFFF8
1FFFFFC000000000000000000007FFFFF0
1FFFFFC000000000000000000007FFFFF0
1FFFFFE00000000000000000000FFFFFF0
0FFFFFE00000000000000000000FFFFFE0
0FFFFFF00000000000000000001FFFFFE0
0FFFFFF00000000000000000001FFFFFE0
07FFFFF80000000000000000003FFFFFC0
07FFFFF80000000000000000003FFFFFC0
03FFFFFC0000000000000000007FFFFFC0
03FFFFFE000000000000000000FFFFFF80
03FFFFFF000000000000000001FFFFFF80
01FFFFFF000000000000000001FFFFFF00
01FFFFFF800000000000000003FFFFFF00
00FFFFFFC00000000000000007FFFFFE00
00FFFFFFE0000000000000000FFFFFFE00
007FFFFFF0000000000000001FFFFFFC00
003FFFFFF8000000000000003FFFFFFC00
003FFFFFFE00000000000000FFFFFFF800
001FFFFFFF00000000000001FFFFFFF000
001FFFFFFFC0000000000007FFFFFFF000
000FFFFFFFE000000000000FFFFFFFE000
0007FFFFFFF800000000003FFFFFFFC000
0003FFFFFFFE0000000000FFFFFFFFC000
0003FFFFFFFFC000000007FFFFFFFF8000
0001FFFFFFFFF80000003FFFFFFFFF0000
0000FFFFFFFFFFC00007FFFFFFFFFE0000
00007FFFFFFFFFFFFFFFFFFFFFFFFC0000
00003FFFFFFFFFFFFFFFFFFFFFFFF80000
00001FFFFFFFFFFFFFFFFFFFFFFFF80000
00000FFFFFFFFFFFFFFFFFFFFFFFE00000
000007FFFFFFFFFFFFFFFFFFFFFFE00000
000003FFFFFFFFFFFFFFFFFFFFFF800000
000001FFFFFFFFFFFFFFFFFFFFFF000000
000000FFFFFFFFFFFFFFFFFFFFFE000000
0000007FFFFFFFFFFFFFFFFFFFFC000000
0000003FFFFFFFFFFFFFFFFFFFF8000000
0000000FFFFFFFFFFFFFFFFFFFE0000000
00000007FFFFFFFFFFFFFFFFFFC0000000
00000001FFFFFFFFFFFFFFFFFF00000000
00000000FFFFFFFFFFFFFFFFFE00000000
000000003FFFFFFFFFFFFFFFF800000000
000000000FFFFFFFFFFFFFFFE000000000
0000000003FFFFFFFFFFFFFF8000000000
0000000000FFFFFFFFFFFFFE0000000000
00000000001FFFFFFFFFFFF00000000000
000000000007FFFFFFFFFF800000000000
0000000000007FFFFFFFFC000000000000
00000000000007FFFFFFC0000000000000
000000000000001FFFF000000000000000
ENDCHAR
STARTCHAR one
ENCODING 49
SWIDTH 385 0
DWIDTH 69 0
BBX 53 130 4 0
BITMAP
FFFFF800000000
FFFFFFC0000000
FFFFFFF8000000
FFFFFFFF000000
FFFFFFFFC00000
FFFFFFFFF00000
FFFFFFFFF80000
FFFFFFFFFE0000
FFFFFFFFFF0000
FFFFFFFFFF8000
FFFFFFFFFFC000
FFFFFFFFFFE000
FFFFFFFFFFF000
FFFFFFFFFFF800
FFFFFFFFFFFC00
FFFFFFFFFFFC00
FFFFFFFFFFFE00
FFFFFFFFFFFF00
FFFFFFFFFFFF00
FFFFFFFFFFFF80
FFFFFFFFFFFF80
FFFFFFFFFFFF80
FFFFFFFFFFFFC0
00001FFFFFFFC0
000003FFFFFFE0
000000FFFFFFE0
0000007FFFFFE0
0000003FFFFFF0
0000001FFFFFF0
0000000FFFFFF0
0000000FFFFFF0
00000007FFFFF0
00000007FFFFF8
00000003FFFFF8
00000003FFFFF8
00000003FFFFF8
00000003FFFFF8
00000003FFFFF8
00000001FFFFF8
00000001FFFFF8
00000001FFFFF8
00000001FFFFF8
00000001FFFFF8
00000001FFFFF8
00000001FFFFF8
00000001FFFFF8
00000001FFFFF8
00000001FFFFF8
00000001FFFFF8
00000001FFFFF8
00000001FFFFF8
00000001FFFFF8
00000001FFFFF8
00000001FFFFF8
00000001FFFFF8
00000001FFFFF8
00000001FFFFF8
00000001FFFFF8
00000001FFFFF8
00000001FFFFF8
00000001FFFFF8
00000001FFFFF8
00000001FFFFF8
00000001FFFFF8
00000001FFFFF8
00000001FFFFF8
00000001FFFFF8
00000001FFFFF8
00000001FFFFF8
00000001FFFFF8
00000001FFFFF8
00000001FFFFF8
00000001FFFFF8
00000001FFFFF8
00000001FFFFF8
00000001FFFFF8
00000001FFFFF8
00000001FFFFF8
00000001FFFFF8
00000001FFFFF8
00000001FFFFF8
00000001FFFFF8
00000001FFFFF8
00000001FFFFF8
00000001FFFFF8
00000001FFFFF8
00000001FFFFF8
00000001FFFFF8
00000001FFFFF8
00000001FFFFF8
00000001FFFFF8
00000001FFFFF8
00000001FFFFF8
00000001FFFFF8
00000001FFFFF8
00000001FFFFF8
00000001FFFFF8
00000001FFFFF8
00000001FFFFF8
00000001FFFFF8
00000001FFFFF8
00000001FFFFF8
00000001FFFFF8
00000001FFFFF8
00000001FFFFF8
00000001FFFFF8
00000001FFFFF8
00000001FFFFF8
00000001FFFFF8
00000001FFFFF8
00000001FFFFF8
00000001FFFFF8
00000001FFFFF8
00000001FFFFF8
00000001FFFFF8
00000001FFFFF8
00000001FFFFF8
00000001FFFFF8
00000001FFFFF8
00000001FFFFF8
00000001FFFFF8
00000001FFFFF8
00000001FFFFF8
00000001FFFFF8
00000001FFFFF8
00000001FFFFF8
00000001FFFFF8
00000001FFFFF8
00000001FFFFF8
00000001FFFFF8
ENDCHAR
STARTCHAR two
ENCODING 50
SWIDTH 825 0
DWIDTH 147 0
BBX 127 130 11 0
BITMAP
7FFFFFFFFFFFFFFFFFFFFFFE00000000
7FFFFFFFFFFFFFFFFFFFFFFFF0000000
7FFFFFFFFFFFFFFFFFFFFFFFFE000000
7FFFFFFFFFFFFFFFFFFFFFFFFFC00000
7FFFFFFFFFFFFFFFFFFFFFFFFFF00000
7FFFFFFFFFFFFFFFFFFFFFFFFFFC0000
7FFFFFFFFFFFFFFFFFFFFFFFFFFF0000
7FFFFFFFFFFFFFFFFFFFFFFFFFFF8000
7FFFFFFFFFFFFFFFFFFFFFFFFFFFC000
7FFFFFFFFFFFFFFFFFFFFFFFFFFFE000
7FFFFFFFFFFFFFFFFFFFFFFFFFFFF800
7FFFFFFFFFFFFFFFFFFFFFFFFFFFFC00
7FFFFFFFFFFFFFFFFFFFFFFFFFFFFC00
7FFFFFFFFFFFFFFFFFFFFFFFFFFFFE00
7FFFFFFFFFFFFFFFFFFFFFFFFFFFFF00
7FFFFFFFFFFFFFFFFFFFFFFFFFFFFF80
7FFFFFFFFFFFFFFFFFFFFFFFFFFFFF80
7FFFFFFFFFFFFFFFFFFFFFFFFFFFFFC0
7FFFFFFFFFFFFFFFFFFFFFFFFFFFFFE0
7FFFFFFFFFFFFFFFFFFFFFFFFFFFFFE0
7FFFFFFFFFFFFFFFFFFFFFFFFFFFFFE0
7FFFFFFFFFFFFFFFFFFFFFFFFFFFFFF0
7FFFFFFFFFFFFFFFFFFFFFFFFFFFFFF0
000000000000000000000007FFFFFFF8
000000000000000000000001FFFFFFF8
0000000000000000000000007FFFFFF8
0000000000000000000000001FFFFFF8
0000000000000000000000000FFFFFFC
0000000000000000000000000FFFFFFC
00000000000000000000000007FFFFFC
00000000000000000000000003FFFFFC
00000000000000000000000003FFFFFC
00000000000000000000000003FFFFFC
00000000000000000000000001FFFFFC
00000000000000000000000001FFFFFE
00000000000000000000000001FFFFFE
00000000000000000000000001FFFFFE
00000000000000000000000001FFFFFE
00000000000000000000000001FFFFFE
00000000000000000000000001FFFFFC
00000000000000000000000001FFFFFC
00000000000000000000000001FFFFFC
00000000000000000000000001FFFFFC
00000000000000000000000001FFFFFC
00000000000000000000000003FFFFFC
00000000000000000000000003FFFFFC
00000000000000000000000007FFFFF8
00000000000000000000000007FFFFF8
0000000000000000000000000FFFFFF8
0000000000000000000000001FFFFFF0
0000000000000000000000003FFFFFF0
0000000000000000000000007FFFFFF0
000000000000000000000001FFFFFFE0
00000000000000000000000FFFFFFFE0
00000000FFFFFFFFFFFFFFFFFFFFFFC0
0000003FFFFFFFFFFFFFFFFFFFFFFFC0
000003FFFFFFFFFFFFFFFFFFFFFFFF80
00000FFFFFFFFFFFFFFFFFFFFFFFFF00
00007FFFFFFFFFFFFFFFFFFFFFFFFF00
0000FFFFFFFFFFFFFFFFFFFFFFFFFE00
0003FFFFFFFFFFFFFFFFFFFFFFFFFC00
0007FFFFFFFFFFFFFFFFFFFFFFFFF800
001FFFFFFFFFFFFFFFFFFFFFFFFFF000
003FFFFFFFFFFFFFFFFFFFFFFFFFE000
007FFFFFFFFFFFFFFFFFFFFFFFFFC000
00FFFFFFFFFFFFFFFFFFFFFFFFFF8000
01FFFFFFFFFFFFFFFFFFFFFFFFFE0000
01FFFFFFFFFFFFFFFFFFFFFFFFFC0000
03FFFFFFFFFFFFFFFFFFFFFFFFF00000
07FFFFFFFFFFFFFFFFFFFFFFFF800000
07FFFFFFFFFFFFFFFFFFFFFFFE000000
0FFFFFFFFFFFFFFFFFFFFFFFF0000000
0FFFFFFFFFFFFFFFFFFFFFFE00000000
1FFFFFFFC00000000000000000000000
1FFFFFFE000000000000000000000000
1FFFFFF8000000000000000000000000
3FFFFFE0000000000000000000000000
3FFFFFC0000000000000000000000000
3FFFFF80000000000000000000000000
7FFFFF00000000000000000000000000
7FFFFF00000000000000000000000000
7FFFFE00000000000000000000000000
7FFFFE00000000000000000000000000
7FFFFC00000000000000000000000000
7FFFFC00000000000000000000000000
FFFFFC00000000000000000000000000
FFFFFC00000000000000000000000000
FFFFFC00000000000000000000000000
FFFFFC00000000000000000000000000
FFFFFC00000000000000000000000000
FFFFFC00000000000000000000000000
FFFFFC00000000000000000000000000
FFFFFC00000000000000000000000000
FFFFFC00000000000000000000000000
FFFFFC00000000000000000000000000
FFFFFC00000000000000000000000000
FFFFFC00000000000000000000000000
FFFFFC00000000000000000000000000
FFFFFC00000000000000000000000000
FFFFFC00000000000000000000000000
FFFFFC00000000000000000000000000
FFFFFC00000000000000000000000000
FFFFFC00000000000000000000000000
FFFFFC00000000000000000000000000
FFFFFC00000000000000000000000000
FFFFFC00000000000000000000000000
FFFFFC00000000000000000000000000
FFFFFFFFFFFFFFFFFFFFFFFFFFFFFFF0
FFFFFFFFFFFFFFFFFFFFFFFFFFFFFFF0
FFFFFFFFFFFFFFFFFFFFFFFFFFFFFFF0
FFFFFFFFFFFFFFFFFFFFFFFFFFFFFFF0
FFFFFFFFFFFFFFFFFFFFFFFFFFFFFFF0
FFFFFFFFFFFFFFFFFFFFFFFFFFFFFFF0
FFFFFFFFFFFFFFFFFFFFFFFFFFFFFFF0
FFFFFFFFFFFFFFFFFFFFFFFFFFFFFFF0
FFFFFFFFFFFFFFFFFFFFFFFFFFFFFFF0
FFFFFFFFFFFFFFFFFFFFFFFFFFFFFFF0
FFFFFFFFFFFFFFFFFFFFFFFFFFFFFFF0
FFFFFFFFFFFFFFFFFFFFFFFFFFFFFFF0
FFFFFFFFFFFFFFFFFFFFFFFFFFFFFFF0
FFFFFFFFFFFFFFFFFFFFFFFFFFFFFFF0
FFFFFFFFFFFFFFFFFFFFFFFFFFFFFFF0
FFFFFFFFFFFFFFFFFFFFFFFFFFFFFFF0
FFFFFFFFFFFFFFFFFFFFFFFFFFFFFFF0
FFFFFFFFFFFFFFFFFFFFFFFFFFFFFFF0
FFFFFFFFFFFFFFFFFFFFFFFFFFFFFFF0
FFFFFFFFFFFFFFFFFFFFFFFFFFFFFFF0
FFFFFFFFFFFFFFFFFFFFFFFFFFFFFFF0
FFFFFFFFFFFFFFFFFFFFFFFFFFFFFFF0
FFFFFFFFFFFFFFFFFFFFFFFFFFFFFFF0
ENDCHAR
STARTCHAR three
ENCODING 51
SWIDTH 827 0
DWIDTH 147 0
BBX 130 130 8 0
BITMAP
7FFFFFFFFFFFFFFFFFFFFFFE0000000000
7FFFFFFFFFFFFFFFFFFFFFFFF800000000
7FFFFFFFFFFFFFFFFFFFFFFFFF80000000
7FFFFFFFFFFFFFFFFFFFFFFFFFF0000000
7FFFFFFFFFFFFFFFFFFFFFFFFFFC000000
7FFFFFFFFFFFFFFFFFFFFFFFFFFF000000
7FFFFFFFFFFFFFFFFFFFFFFFFFFFC00000
7FFFFFFFFFFFFFFFFFFFFFFFFFFFE00000
7FFFFFFFFFFFFFFFFFFFFFFFFFFFF80000
7FFFFFFFFFFFFFFFFFFFFFFFFFFFFC0000
7FFFFFFFFFFFFFFFFFFFFFFFFFFFFE0000
7FFFFFFFFFFFFFFFFFFFFFFFFFFFFF0000
7FFFFFFFFFFFFFFFFFFFFFFFFFFFFF8000
7FFFFFFFFFFFFFFFFFFFFFFFFFFFFFC000
7FFFFFFFFFFFFFFFFFFFFFFFFFFFFFC000
7FFFFFFFFFFFFFFFFFFFFFFFFFFFFFE000
7FFFFFFFFFFFFFFFFFFFFFFFFFFFFFF000
7FFFFFFFFFFFFFFFFFFFFFFFFFFFFFF000
7FFFFFFFFFFFFFFFFFFFFFFFFFFFFFF800
7FFFFFFFFFFFFFFFFFFFFFFFFFFFFFF800
7FFFFFFFFFFFFFFFFFFFFFFFFFFFFFFC00
7FFFFFFFFFFFFFFFFFFFFFFFFFFFFFFC00
7FFFFFFFFFFFFFFFFFFFFFFFFFFFFFFC00
00000000000000000000001FFFFFFFFE00
000000000000000000000001FFFFFFFE00
0000000000000000000000003FFFFFFE00
0000000000000000000000000FFFFFFE00
00000000000000000000000007FFFFFF00
00000000000000000000000003FFFFFF00
00000000000000000000000001FFFFFF00
00000000000000000000000001FFFFFF00
00000000000000000000000000FFFFFF00
00000000000000000000000000FFFFFF00
000000000000000000000000007FFFFF00
000000000000000000000000007FFFFF00
000000000000000000000000007FFFFF00
000000000000000000000000007FFFFF00
000000000000000000000000007FFFFF00
000000000000000000000000007FFFFF00
000000000000000000000000007FFFFF00
000000000000000000000000007FFFFE00
000000000000000000000000007FFFFE00
000000000000000000000000007FFFFE00
000000000000000000000000007FFFFE00
00000000000000000000000000FFFFFE00
00000000000000000000000000FFFFFC00
00000000000000000000000000FFFFFC00
00000000000000000000000001FFFFFC00
00000000000000000000000001FFFFF800
00000000000000000000000003FFFFF800
00000000000000000000000007FFFFF000
0000000000000000000000001FFFFFE000
0000000000000000000000007FFFFFE000
000000000000000000000007FFFFFFC000
00000001FFFFFFFFFFFFFFFFFFFFFF8000
00000001FFFFFFFFFFFFFFFFFFFFFF0000
00000001FFFFFFFFFFFFFFFFFFFFFC0000
00000001FFFFFFFFFFFFFFFFFFFFF80000
00000001FFFFFFFFFFFFFFFFFFFFF00000
00000001FFFFFFFFFFFFFFFFFFFFC00000
00000001FFFFFFFFFFFFFFFFFFFF000000
00000001FFFFFFFFFFFFFFFFFFFF000000
00000001FFFFFFFFFFFFFFFFFFFFC00000
00000001FFFFFFFFFFFFFFFFFFFFF00000
00000001FFFFFFFFFFFFFFFFFFFFF80000
00000001FFFFFFFFFFFFFFFFFFFFFE0000
00000001FFFFFFFFFFFFFFFFFFFFFF0000
00000001FFFFFFFFFFFFFFFFFFFFFF8000
00000001FFFFFFFFFFFFFFFFFFFFFFC000
00000001FFFFFFFFFFFFFFFFFFFFFFE000
00000001FFFFFFFFFFFFFFFFFFFFFFF000
00000001FFFFFFFFFFFFFFFFFFFFFFF800
00000001FFFFFFFFFFFFFFFFFFFFFFFC00
000000000000000000000003FFFFFFFC00
0000000000000000000000003FFFFFFE00
0000000000000000000000000FFFFFFE00
00000000000000000000000007FFFFFF00
00000000000000000000000001FFFFFF00
00000000000000000000000000FFFFFF80
00000000000000000000000000FFFFFF80
000000000000000000000000007FFFFF80
000000000000000000000000003FFFFF80
000000000000000000000000003FFFFFC0
000000000000000000000000001FFFFFC0
000000000000000000000000001FFFFFC0
000000000000000000000000001FFFFFC0
000000000000000000000000001FFFFFC0
000000000000000000000000001FFFFFC0
000000000000000000000000001FFFFFC0
000000000000000000000000001FFFFFC0
000000000000000000000000001FFFFFC0
000000000000000000000000001FFFFFC0
000000000000000000000000001FFFFFC0
000000000000000000000000001FFFFFC0
000000000000000000000000001FFFFFC0
000000000000000000000000001FFFFFC0
000000000000000000000000003FFFFFC0
000000000000000000000000003FFFFFC0
000000000000000000000000007FFFFFC0
000000000000000000000000007FFFFFC0
00000000000000000000000000FFFFFF80
00000000000000000000000001FFFFFF80
00000000000000000000000007FFFFFF80
0000000000000000000000000FFFFFFF80
0000000000000000000000003FFFFFFF00
000000000000000000000001FFFFFFFF00
00000000000000000000000FFFFFFFFF00
FFFFFFFFFFFFFFFFFFFFFFFFFFFFFFFE00
FFFFFFFFFFFFFFFFFFFFFFFFFFFFFFFE00
FFFFFFFFFFFFFFFFFFFFFFFFFFFFFFFC00
FFFFFFFFFFFFFFFFFFFFFFFFFFFFFFFC00
FFFFFFFFFFFFFFFFFFFFFFFFFFFFFFF800
FFFFFFFFFFFFFFFFFFFFFFFFFFFFFFF800
FFFFFFFFFFFFFFFFFFFFFFFFFFFFFFF000
FFFFFFFFFFFFFFFFFFFFFFFFFFFFFFE000
FFFFFFFFFFFFFFFFFFFFFFFFFFFFFFC000
FFFFFFFFFFFFFFFFFFFFFFFFFFFFFFC000
FFFFFFFFFFFFFFFFFFFFFFFFFFFFFF8000
FFFFFFFFFFFFFFFFFFFFFFFFFFFFFF0000
FFFFFFFFFFFFFFFFFFFFFFFFFFFFFE0000
FFFFFFFFFFFFFFFFFFFFFFFFFFFFFC0000
FFFFFFFFFFFFFFFFFFFFFFFFFFFFF00000
FFFFFFFFFFFFFFFFFFFFFFFFFFFFE00000
FFFFFFFFFFFFFFFFFFFFFFFFFFFFC00000
FFFFFFFFFFFFFFFFFFFFFFFFFFFF000000
FFFFFFFFFFFFFFFFFFFFFFFFFFFC000000
FFFFFFFFFFFFFFFFFFFFFFFFFFF0000000
FFFFFFFFFFFFFFFFFFFFFFFFFF80000000
FFFFFFFFFFFFFFFFFFFFFFFFFC00000000
FFFFFFFFFFFFFFFFFFFFFFFF0000000000
ENDCHAR
STARTCHAR four
ENCODING 52
SWIDTH 845 0
DWIDTH 150 0
BBX 137 130 9 0
BITMAP
FFFFFC000000000000000000FFFFFC000000
FFFFFC000000000000000000FFFFFC000000
FFFFFC000000000000000000FFFFFC000000
FFFFFC000000000000000000FFFFFC000000
FFFFFC000000000000000000FFFFFC000000
FFFFFC000000000000000000FFFFFC000000
FFFFFC000000000000000000FFFFFC000000
FFFFFC000000000000000000FFFFFC000000
FFFFFC000000000000000000FFFFFC000000
FFFFFC000000000000000000FFFFFC000000
FFFFFC000000000000000000FFFFFC000000
FFFFFC000000000000000000FFFFFC000000
FFFFFC000000000000000000FFFFFC000000
FFFFFC000000000000000000FFFFFC000000
FFFFFC000000000000000000FFFFFC000000
FFFFFC000000000000000000FFFFFC000000
FFFFFC000000000000000000FFFFFC000000
FFFFFC000000000000000000FFFFFC000000
FFFFFC000000000000000000FFFFFC000000
FFFFFC000000000000000000FFFFFC000000
FFFFFC000000000000000000FFFFFC000000
FFFFFC000000000000000000FFFFFC000000
FFFFFC000000000000000000FFFFFC000000
FFFFFC000000000000000000FFFFFC000000
FFFFFC000000000000000000FFFFFC000000
FFFFFC000000000000000000FFFFFC000000
FFFFFC000000000000000000FFFFFC000000
FFFFFC000000000000000000FFFFFC000000
FFFFFC000000000000000000FFFFFC000000
FFFFFC000000000000000000FFFFFC000000
FFFFFC000000000000000000FFFFFC000000
FFFFFC000000000000000000FFFFFC000000
FFFFFC000000000000000000FFFFFC000000
FFFFFC000000000000000000FFFFFC000000
FFFFFC000000000000000000FFFFFC000000
FFFFFC000000000000000000FFFFFC000000
FFFFFC000000000000000000FFFFFC000000
FFFFFC000000000000000000FFFFFC000000
FFFFFC000000000000000000FFFFFC000000
FFFFFC000000000000000000FFFFFC000000
FFFFFC000000000000000000FFFFFC000000
FFFFFC000000000000000000FFFFFC000000
FFFFFC000000000000000000FFFFFC000000
FFFFFC000000000000000000FFFFFC000000
FFFFFC000000000000000000FFFFFC000000
FFFFFC000000000000000000FFFFFC000000
FFFFFC000000000000000000FFFFFC000000
FFFFFC000000000000000000FFFFFC000000
FFFFFC000000000000000000FFFFFC000000
FFFFFC000000000000000000FFFFFC000000
FFFFFC000000000000000000FFFFFC000000
FFFFFC000000000000000000FFFFFC000000
FFFFFC000000000000000000FFFFFC000000
FFFFFC000000000000000000FFFFFC000000
FFFFFC000000000000000000FFFFFC000000
FFFFFC000000000000000000FFFFFC000000
FFFFFC000000000000000000FFFFFC000000
FFFFFC000000000000000000FFFFFC000000
FFFFFC000000000000000000FFFFFC000000
FFFFFE000000000000000000FFFFFC000000
FFFFFE000000000000000000FFFFFC000000
FFFFFE000000000000000000FFFFFC000000
FFFFFE000000000000000000FFFFFC000000
FFFFFF000000000000000000FFFFFC000000
FFFFFF000000000000000000FFFFFC000000
7FFFFF800000000000000000FFFFFC000000
7FFFFF800000000000000000FFFFFC000000
7FFFFFC00000000000000000FFFFFC000000
7FFFFFE00000000000000000FFFFFC000000
7FFFFFF00000000000000000FFFFFC000000
3FFFFFFC0000000000000000FFFFFC000000
3FFFFFFF0000000000000000FFFFFC000000
3FFFFFFFF000000000000000FFFFFC000000
1FFFFFFFFFFFFFFFFFFFFFFFFFFFFFFFFF80
1FFFFFFFFFFFFFFFFFFFFFFFFFFFFFFFFF80
0FFFFFFFFFFFFFFFFFFFFFFFFFFFFFFFFF80
0FFFFFFFFFFFFFFFFFFFFFFFFFFFFFFFFF80
07FFFFFFFFFFFFFFFFFFFFFFFFFFFFFFFF80
07FFFFFFFFFFFFFFFFFFFFFFFFFFFFFFFF80
03FFFFFFFFFFFFFFFFFFFFFFFFFFFFFFFF80
01FFFFFFFFFFFFFFFFFFFFFFFFFFFFFFFF80
01FFFFFFFFFFFFFFFFFFFFFFFFFFFFFFFF80
00FFFFFFFFFFFFFFFFFFFFFFFFFFFFFFFF80
007FFFFFFFFFFFFFFFFFFFFFFFFFFFFFFF80
003FFFFFFFFFFFFFFFFFFFFFFFFFFFFFFF80
001FFFFFFFFFFFFFFFFFFFFFFFFFFFFFFF80
000FFFFFFFFFFFFFFFFFFFFFFFFFFFFFFF80
0003FFFFFFFFFFFFFFFFFFFFFFFFFFFFFF80
0001FFFFFFFFFFFFFFFFFFFFFFFFFFFFFF80
00007FFFFFFFFFFFFFFFFFFFFFFFFFFFFF80
00001FFFFFFFFFFFFFFFFFFFFFFFFFFFFF80
000007FFFFFFFFFFFFFFFFFFFFFFFFFFFF80
000000FFFFFFFFFFFFFFFFFFFFFFFFFFFF80
0000001FFFFFFFFFFFFFFFFFFFFFFFFFFF80
000000003FFFFFFFFFFFFFFFFFFFFFFFFF80
000000000000000000000000FFFFFC000000
000000000000000000000000FFFFFC000000
000000000000000000000000FFFFFC000000
000000000000000000000000FFFFFC000000
000000000000000000000000FFFFFC000000
000000000000000000000000FFFFFC000000
000000000000000000000000FFFFFC000000
000000000000000000000000FFFFFC000000
000000000000000000000000FFFFFC000000
000000000000000000000000FFFFFC000000
000000000000000000000000FFFFFC000000
000000000000000000000000FFFFFC000000
000000000000000000000000FFFFFC000000
000000000000000000000000FFFFFC000000
000000000000000000000000FFFFFC000000
000000000000000000000000FFFFFC000000
000000000000000000000000FFFFFC000000
000000000000000000000000FFFFFC000000
000000000000000000000000FFFFFC000000
000000000000000000000000FFFFFC000000
000000000000000000000000FFFFFC000000
000000000000000000000000FFFFFC000000
000000000000000000000000FFFFFC000000
000000000000000000000000FFFFFC000000
000000000000000000000000FFFFFC000000
000000000000000000000000FFFFFC000000
000000000000000000000000FFFFFC000000
000000000000000000000000FFFFFC000000
000000000000000000000000FFFFFC000000
000000000000000000000000FFFFFC000000
000000000000000000000000FFFFFC000000
000000000000000000000000FFFFFC000000
000000000000000000000000FFFFFC000000
000000000000000000000000FFFFFC000000
000000000000000000000000FFFFFC000000
ENDCHAR
STARTCHAR five
ENCODING 53
SWIDTH 885 0
DWIDTH 158 0
BBX 137 130 11 0
BITMAP
FFFFFFFFFFFFFFFFFFFFFFFFFFFFFFFFE000
FFFFFFFFFFFFFFFFFFFFFFFFFFFFFFFFE000
FFFFFFFFFFFFFFFFFFFFFFFFFFFFFFFFE000
FFFFFFFFFFFFFFFFFFFFFFFFFFFFFFFFE000
FFFFFFFFFFFFFFFFFFFFFFFFFFFFFFFFE000
FFFFFFFFFFFFFFFFFFFFFFFFFFFFFFFFE000
FFFFFFFFFFFFFFFFFFFFFFFFFFFFFFFFE000
FFFFFFFFFFFFFFFFFFFFFFFFFFFFFFFFE000
FFFFFFFFFFFFFFFFFFFFFFFFFFFFFFFFE000
FFFFFFFFFFFFFFFFFFFFFFFFFFFFFFFFE000
FFFFFFFFFFFFFFFFFFFFFFFFFFFFFFFFE000
FFFFFFFFFFFFFFFFFFFFFFFFFFFFFFFFE000
FFFFFFFFFFFFFFFFFFFFFFFFFFFFFFFFE000
FFFFFFFFFFFFFFFFFFFFFFFFFFFFFFFFE000
FFFFFFFFFFFFFFFFFFFFFFFFFFFFFFFFE000
FFFFFFFFFFFFFFFFFFFFFFFFFFFFFFFFE000
FFFFFFFFFFFFFFFFFFFFFFFFFFFFFFFFE000
FFFFFFFFFFFFFFFFFFFFFFFFFFFFFFFFE000
FFFFFFFFFFFFFFFFFFFFFFFFFFFFFFFFE000
FFFFFFFFFFFFFFFFFFFFFFFFFFFFFFFFE000
FFFFFFFFFFFFFFFFFFFFFFFFFFFFFFFFE000
FFFFFFFFFFFFFFFFFFFFFFFFFFFFFFFFE000
FFFFFFFFFFFFFFFFFFFFFFFFFFFFFFFFE000
FFFFFF000000000000000000000000000000
FFFFFF000000000000000000000000000000
FFFFFF000000000000000000000000000000
FFFFFF000000000000000000000000000000
FFFFFF000000000000000000000000000000
FFFFFF000000000000000000000000000000
FFFFFF000000000000000000000000000000
FFFFFF000000000000000000000000000000
FFFFFF000000000000000000000000000000
FFFFFF000000000000000000000000000000
FFFFFF000000000000000000000000000000
FFFFFF000000000000000000000000000000
FFFFFF000000000000000000000000000000
FFFFFF000000000000000000000000000000
FFFFFF000000000000000000000000000000
FFFFFF000000000000000000000000000000
FFFFFF000000000000000000000000000000
FFFFFF000000000000000000000000000000
FFFFFF000000000000000000000000000000
FFFFFF000000000000000000000000000000
FFFFFF000000000000000000000000000000
FFFFFF000000000000000000000000000000
FFFFFF000000000000000000000000000000
FFFFFF000000000000000000000000000000
FFFFFF000000000000000000000000000000
FFFFFF000000000000000000000000000000
FFFFFF000000000000000000000000000000
FFFFFF000000000000000000000000000000
FFFFFF000000000000000000000000000000
FFFFFF000000000000000000000000000000
FFFFFF000000000000000000000000000000
FFFFFFFFFFFFFFFFFFFFFFFFFFC000000000
FFFFFFFFFFFFFFFFFFFFFFFFFFFE00000000
FFFFFFFFFFFFFFFFFFFFFFFFFFFFE0000000
FFFFFFFFFFFFFFFFFFFFFFFFFFFFFC000000
FFFFFFFFFFFFFFFFFFFFFFFFFFFFFF000000
FFFFFFFFFFFFFFFFFFFFFFFFFFFFFFC00000
FFFFFFFFFFFFFFFFFFFFFFFFFFFFFFE00000
FFFFFFFFFFFFFFFFFFFFFFFFFFFFFFF80000
FFFFFFFFFFFFFFFFFFFFFFFFFFFFFFFC0000
FFFFFFFFFFFFFFFFFFFFFFFFFFFFFFFE0000
FFFFFFFFFFFFFFFFFFFFFFFFFFFFFFFF0000
FFFFFFFFFFFFFFFFFFFFFFFFFFFFFFFF8000
FFFFFFFFFFFFFFFFFFFFFFFFFFFFFFFFC000
FFFFFFFFFFFFFFFFFFFFFFFFFFFFFFFFE000
FFFFFFFFFFFFFFFFFFFFFFFFFFFFFFFFE000
FFFFFFFFFFFFFFFFFFFFFFFFFFFFFFFFF000
FFFFFFFFFFFFFFFFFFFFFFFFFFFFFFFFF800
FFFFFFFFFFFFFFFFFFFFFFFFFFFFFFFFF800
FFFFFFFFFFFFFFFFFFFFFFFFFFFFFFFFFC00
00000000000000000000000001FFFFFFFC00
000000000000000000000000003FFFFFFC00
0000000000000000000000000007FFFFFE00
0000000000000000000000000003FFFFFE00
0000000000000000000000000001FFFFFE00
0000000000000000000000000000FFFFFF00
00000000000000000000000000007FFFFF00
00000000000000000000000000003FFFFF00
00000000000000000000000000003FFFFF00
00000000000000000000000000001FFFFF80
00000000000000000000000000001FFFFF80
00000000000000000000000000001FFFFF80
00000000000000000000000000001FFFFF80
00000000000000000000000000000FFFFF80
00000000000000000000000000000FFFFF80
00000000000000000000000000000FFFFF80
00000000000000000000000000000FFFFF80
00000000000000000000000000000FFFFF80
00000000000000000000000000000FFFFF80
00000000000000000000000000000FFFFF80
00000000000000000000000000000FFFFF80
00000000000000000000000000001FFFFF80
00000000000000000000000000001FFFFF80
00000000000000000000000000001FFFFF80
00000000000000000000000000001FFFFF80
00000000000000000000000000003FFFFF80
00000000000000000000000000007FFFFF80
00000000000000000000000000007FFFFF80
0000000000000000000000000000FFFFFF00
0000000000000000000000000001FFFFFF00
0000000000000000000000000003FFFFFF00
0000000000000000000000000007FFFFFF00
000000000000000000000000001FFFFFFE00
00000000000000000000000000FFFFFFFE00
FFFFFFFFFFFFFFFFFFFFFFFFFFFFFFFFFE00
FFFFFFFFFFFFFFFFFFFFFFFFFFFFFFFFFC00
FFFFFFFFFFFFFFFFFFFFFFFFFFFFFFFFFC00
FFFFFFFFFFFFFFFFFFFFFFFFFFFFFFFFF800
FFFFFFFFFFFFFFFFFFFFFFFFFFFFFFFFF800
FFFFFFFFFFFFFFFFFFFFFFFFFFFFFFFFF000
FFFFFFFFFFFFFFFFFFFFFFFFFFFFFFFFF000
FFFFFFFFFFFFFFFFFFFFFFFFFFFFFFFFE000
FFFFFFFFFFFFFFFFFFFFFFFFFFFFFFFFC000
FFFFFFFFFFFFFFFFFFFFFFFFFFFFFFFFC000
FFFFFFFFFFFFFFFFFFFFFFFFFFFFFFFF8000
FFFFFFFFFFFFFFFFFFFFFFFFFFFFFFFF0000
FFFFFFFFFFFFFFFFFFFFFFFFFFFFFFFE0000
FFFFFFFFFFFFFFFFFFFFFFFFFFFFFFFC0000
FFFFFFFFFFFFFFFFFFFFFFFFFFFFFFF80000
FFFFFFFFFFFFFFFFFFFFFFFFFFFFFFE00000
FFFFFFFFFFFFFFFFFFFFFFFFFFFFFFC00000
FFFFFFFFFFFFFFFFFFFFFFFFFFFFFF000000
FFFFFFFFFFFFFFFFFFFFFFFFFFFFFE000000
FFFFFFFFFFFFFFFFFFFFFFFFFFFFF0000000
FFFFFFFFFFFFFFFFFFFFFFFFFFFFC0000000
FFFFFFFFFFFFFFFFFFFFFFFFFFFC00000000
FFFFFFFFFFFFFFFFFFFFFFFFFF8000000000
ENDCHAR
STARTCHAR six
ENCODING 54
SWIDTH 872 0
DWIDTH 155 0
BBX 139 130 7 0
BITMAP
0000000000003FFFFFFFFFFFFFFFFFFFF800
00000000001FFFFFFFFFFFFFFFFFFFFFF800
0000000001FFFFFFFFFFFFFFFFFFFFFFF800
000000001FFFFFFFFFFFFFFFFFFFFFFFF800
000000007FFFFFFFFFFFFFFFFFFFFFFFF800
00000003FFFFFFFFFFFFFFFFFFFFFFFFF800
0000000FFFFFFFFFFFFFFFFFFFFFFFFFF800
0000003FFFFFFFFFFFFFFFFFFFFFFFFFF800
0000007FFFFFFFFFFFFFFFFFFFFFFFFFF800
000001FFFFFFFFFFFFFFFFFFFFFFFFFFF800
000003FFFFFFFFFFFFFFFFFFFFFFFFFFF800
00000FFFFFFFFFFFFFFFFFFFFFFFFFFFF800
00001FFFFFFFFFFFFFFFFFFFFFFFFFFFF800
00003FFFFFFFFFFFFFFFFFFFFFFFFFFFF800
00007FFFFFFFFFFFFFFFFFFFFFFFFFFFF800
0000FFFFFFFFFFFFFFFFFFFFFFFFFFFFF800
0001FFFFFFFFFFFFFFFFFFFFFFFFFFFFF800
0003FFFFFFFFFFFFFFFFFFFFFFFFFFFFF800
0007FFFFFFFFFFFFFFFFFFFFFFFFFFFFF800
000FFFFFFFFFFFFFFFFFFFFFFFFFFFFFF800
000FFFFFFFFFFFFFFFFFFFFFFFFFFFFFF800
001FFFFFFFFFFFFFFFFFFFFFFFFFFFFFF800
003FFFFFFFFFFFFFFFFFFFFFFFFFFFFFF800
003FFFFFFFFFC00000000000000000000000
007FFFFFFFFC000000000000000000000000
007FFFFFFFE0000000000000000000000000
00FFFFFFFF00000000000000000000000000
00FFFFFFFE00000000000000000000000000
01FFFFFFF800000000000000000000000000
01FFFFFFE000000000000000000000000000
03FFFFFFC000000000000000000000000000
03FFFFFF8000000000000000000000000000
07FFFFFF0000000000000000000000000000
07FFFFFE0000000000000000000000000000
07FFFFFE0000000000000000000000000000
0FFFFFFC0000000000000000000000000000
0FFFFFF80000000000000000000000000000
0FFFFFF80000000000000000000000000000
1FFFFFF00000000000000000000000000000
1FFFFFF00000000000000000000000000000
1FFFFFE00000000000000000000000000000
1FFFFFE00000000000000000000000000000
3FFFFFC00000000000000000000000000000
3FFFFFC00000000000000000000000000000
3FFFFFC00000000000000000000000000000
3FFFFF800000000000000000000000000000
3FFFFF800000000000000000000000000000
3FFFFF800000000000000000000000000000
7FFFFF800000000000000000000000000000
7FFFFF000000000000000000000000000000
7FFFFF000000000000000000000000000000
7FFFFF000000000000000000000000000000
7FFFFF000000000000000000000000000000
7FFFFF000000000000000000000000000000
7FFFFFFFFFFFFFFFFFFFFFFFFFF000000000
7FFFFFFFFFFFFFFFFFFFFFFFFFFF80000000
7FFFFFFFFFFFFFFFFFFFFFFFFFFFF8000000
7FFFFFFFFFFFFFFFFFFFFFFFFFFFFF000000
7FFFFFFFFFFFFFFFFFFFFFFFFFFFFFC00000
7FFFFFFFFFFFFFFFFFFFFFFFFFFFFFF00000
FFFFFFFFFFFFFFFFFFFFFFFFFFFFFFF80000
FFFFFFFFFFFFFFFFFFFFFFFFFFFFFFFE0000
FFFFFFFFFFFFFFFFFFFFFFFFFFFFFFFF0000
FFFFFFFFFFFFFFFFFFFFFFFFFFFFFFFF8000
FFFFFFFFFFFFFFFFFFFFFFFFFFFFFFFFC000
FFFFFFFFFFFFFFFFFFFFFFFFFFFFFFFFE000
FFFFFFFFFFFFFFFFFFFFFFFFFFFFFFFFF000
7FFFFFFFFFFFFFFFFFFFFFFFFFFFFFFFF800
7FFFFFFFFFFFFFFFFFFFFFFFFFFFFFFFF800
7FFFFFFFFFFFFFFFFFFFFFFFFFFFFFFFFC00
7FFFFFFFFFFFFFFFFFFFFFFFFFFFFFFFFE00
7FFFFFFFFFFFFFFFFFFFFFFFFFFFFFFFFE00
7FFFFFFFFFFFFFFFFFFFFFFFFFFFFFFFFF00
7FFFFE00000000000000000001FFFFFFFF00
7FFFFF000000000000000000001FFFFFFF00
7FFFFF0000000000000000000003FFFFFF80
7FFFFF0000000000000000000001FFFFFF80
7FFFFF00000000000000000000007FFFFF80
7FFFFF00000000000000000000003FFFFFC0
7FFFFF00000000000000000000003FFFFFC0
3FFFFF80000000000000000000001FFFFFC0
3FFFFF80000000000000000000001FFFFFC0
3FFFFF80000000000000000000000FFFFFC0
3FFFFF80000000000000000000000FFFFFC0
3FFFFFC00000000000000000000007FFFFC0
1FFFFFC00000000000000000000007FFFFE0
1FFFFFC00000000000000000000007FFFFE0
1FFFFFE00000000000000000000007FFFFE0
1FFFFFE00000000000000000000007FFFFE0
1FFFFFE00000000000000000000007FFFFE0
0FFFFFF00000000000000000000007FFFFE0
0FFFFFF00000000000000000000007FFFFE0
0FFFFFF80000000000000000000007FFFFE0
07FFFFFC0000000000000000000007FFFFE0
07FFFFFC0000000000000000000007FFFFE0
07FFFFFE000000000000000000000FFFFFE0
03FFFFFF000000000000000000000FFFFFC0
03FFFFFF800000000000000000000FFFFFC0
01FFFFFFC00000000000000000001FFFFFC0
01FFFFFFE00000000000000000001FFFFFC0
01FFFFFFF00000000000000000003FFFFFC0
00FFFFFFF80000000000000000007FFFFFC0
00FFFFFFFE000000000000000000FFFFFFC0
007FFFFFFF800000000000000001FFFFFF80
003FFFFFFFE00000000000000007FFFFFF80
003FFFFFFFFC000000000000000FFFFFFF80
001FFFFFFFFFC0000000000000FFFFFFFF00
001FFFFFFFFFFFFFFFFFFFFFFFFFFFFFFF00
000FFFFFFFFFFFFFFFFFFFFFFFFFFFFFFF00
0007FFFFFFFFFFFFFFFFFFFFFFFFFFFFFE00
0007FFFFFFFFFFFFFFFFFFFFFFFFFFFFFE00
0003FFFFFFFFFFFFFFFFFFFFFFFFFFFFFC00
0001FFFFFFFFFFFFFFFFFFFFFFFFFFFFFC00
0000FFFFFFFFFFFFFFFFFFFFFFFFFFFFF800
00007FFFFFFFFFFFFFFFFFFFFFFFFFFFF800
00003FFFFFFFFFFFFFFFFFFFFFFFFFFFF000
00001FFFFFFFFFFFFFFFFFFFFFFFFFFFE000
00000FFFFFFFFFFFFFFFFFFFFFFFFFFFC000
000007FFFFFFFFFFFFFFFFFFFFFFFFFF8000
000001FFFFFFFFFFFFFFFFFFFFFFFFFF0000
000000FFFFFFFFFFFFFFFFFFFFFFFFFE0000
0000003FFFFFFFFFFFFFFFFFFFFFFFFC0000
0000001FFFFFFFFFFFFFFFFFFFFFFFF80000
00000007FFFFFFFFFFFFFFFFFFFFFFF00000
00000001FFFFFFFFFFFFFFFFFFFFFFC00000
000000003FFFFFFFFFFFFFFFFFFFFF000000
000000000FFFFFFFFFFFFFFFFFFFFC000000
0000000001FFFFFFFFFFFFFFFFFFF0000000
00000000000FFFFFFFFFFFFFFFFF00000000
0000000000003FFFFFFFFFFFFFE000000000
ENDCHAR
STARTCHAR seven
ENCODING 55
SWIDTH 756 0
DWIDTH 135 0
BBX 123 130 8 0
BITMAP
FFFFFFFFFFFFFFFFFFFFFFFFFFFFC000
FFFFFFFFFFFFFFFFFFFFFFFFFFFFF800
FFFFFFFFFFFFFFFFFFFFFFFFFFFFFE00
FFFFFFFFFFFFFFFFFFFFFFFFFFFFFF00
FFFFFFFFFFFFFFFFFFFFFFFFFFFFFF80
FFFFFFFFFFFFFFFFFFFFFFFFFFFFFF80
FFFFFFFFFFFFFFFFFFFFFFFFFFFFFFC0
FFFFFFFFFFFFFFFFFFFFFFFFFFFFFFC0
FFFFFFFFFFFFFFFFFFFFFFFFFFFFFFE0
FFFFFFFFFFFFFFFFFFFFFFFFFFFFFFE0
FFFFFFFFFFFFFFFFFFFFFFFFFFFFFFE0
FFFFFFFFFFFFFFFFFFFFFFFFFFFFFFE0
FFFFFFFFFFFFFFFFFFFFFFFFFFFFFFE0
FFFFFFFFFFFFFFFFFFFFFFFFFFFFFFE0
FFFFFFFFFFFFFFFFFFFFFFFFFFFFFFC0
FFFFFFFFFFFFFFFFFFFFFFFFFFFFFFC0
FFFFFFFFFFFFFFFFFFFFFFFFFFFFFFC0
FFFFFFFFFFFFFFFFFFFFFFFFFFFFFF80
FFFFFFFFFFFFFFFFFFFFFFFFFFFFFF80
FFFFFFFFFFFFFFFFFFFFFFFFFFFFFF00
FFFFFFFFFFFFFFFFFFFFFFFFFFFFFE00
FFFFFFFFFFFFFFFFFFFFFFFFFFFFFE00
FFFFFFFFFFFFFFFFFFFFFFFFFFFFFC00
00000000000000000000007FFFFFF800
0000000000000000000000FFFFFFF000
0000000000000000000001FFFFFFE000
0000000000000000000003FFFFFFC000
0000000000000000000007FFFFFFC000
0000000000000000000007FFFFFF8000
000000000000000000000FFFFFFF0000
000000000000000000001FFFFFFE0000
000000000000000000003FFFFFFC0000
000000000000000000007FFFFFFC0000
00000000000000000000FFFFFFF80000
00000000000000000000FFFFFFF00000
00000000000000000001FFFFFFE00000
00000000000000000003FFFFFFC00000
00000000000000000007FFFFFFC00000
0000000000000000000FFFFFFF800000
0000000000000000001FFFFFFF000000
0000000000000000001FFFFFFE000000
0000000000000000003FFFFFFC000000
0000000000000000007FFFFFF8000000
000000000000000000FFFFFFF8000000
000000000000000001FFFFFFF0000000
000000000000000001FFFFFFE0000000
000000000000000003FFFFFFC0000000
000000000000000007FFFFFF80000000
00000000000000000FFFFFFF80000000
00000000000000001FFFFFFF00000000
00000000000000003FFFFFFE00000000
00000000000000003FFFFFFC00000000
00000000000000007FFFFFF800000000
0000000000000000FFFFFFF800000000
0000000000000001FFFFFFF000000000
0000000000000003FFFFFFE000000000
0000000000000007FFFFFFC000000000
0000000000000007FFFFFF8000000000
000000000000000FFFFFFF0000000000
000000000000001FFFFFFF0000000000
000000000000003FFFFFFE0000000000
000000000000007FFFFFFC0000000000
000000000000007FFFFFF80000000000
00000000000000FFFFFFF00000000000
00000000000001FFFFFFF00000000000
00000000000003FFFFFFE00000000000
00000000000007FFFFFFC00000000000
0000000000000FFFFFFF800000000000
0000000000000FFFFFFF000000000000
0000000000001FFFFFFF000000000000
0000000000003FFFFFFE000000000000
0000000000007FFFFFFC000000000000
000000000000FFFFFFF8000000000000
000000000001FFFFFFF0000000000000
000000000001FFFFFFE0000000000000
000000000003FFFFFFE0000000000000
000000000007FFFFFFC0000000000000
00000000000FFFFFFF80000000000000
00000000001FFFFFFF00000000000000
00000000001FFFFFFE00000000000000
00000000003FFFFFFE00000000000000
00000000007FFFFFFC00000000000000
0000000000FFFFFFF800000000000000
0000000001FFFFFFF000000000000000
0000000003FFFFFFE000000000000000
0000000003FFFFFFC000000000000000
0000000007FFFFFFC000000000000000
000000000FFFFFFF8000000000000000
000000001FFFFFFF0000000000000000
000000003FFFFFFE0000000000000000
000000007FFFFFFC0000000000000000
000000007FFFFFFC0000000000000000
00000000FFFFFFF80000000000000000
00000001FFFFFFF00000000000000000
00000003FFFFFFE00000000000000000
00000007FFFFFFC00000000000000000
00000007FFFFFFC00000000000000000
0000000FFFFFFF800000000000000000
0000001FFFFFFF000000000000000000
0000003FFFFFFE000000000000000000
0000007FFFFFFC000000000000000000
000000FFFFFFF8000000000000000000
000000FFFFFFF8000000000000000000
000001FFFFFFF0000000000000000000
000003FFFFFFE0000000000000000000
000007FFFFFFC0000000000000000000
00000FFFFFFF80000000000000000000
00001FFFFFFF80000000000000000000
00001FFFFFFF00000000000000000000
00003FFFFFFE00000000000000000000
00007FFFFFFC00000000000000000000
0000FFFFFFF800000000000000000000
0001FFFFFFF800000000000000000000
0003FFFFFFF000000000000000000000
0003FFFFFFE000000000000000000000
0007FFFFFFC000000000000000000000
000FFFFFFF8000000000000000000000
001FFFFFFF0000000000000000000000
003FFFFFFF0000000000000000000000
003FFFFFFE0000000000000000000000
007FFFFFFC0000000000000000000000
00FFFFFFF80000000000000000000000
01FFFFFFF00000000000000000000000
03FFFFFFF00000000000000000000000
07FFFFFFE00000000000000000000000
07FFFFFFC00000000000000000000000
0FFFFFFF800000000000000000000000
1FFFFFFF000000000000000000000000
3FFFFFFF000000000000000000000000
7FFFFFFE000000000000000000000000
ENDCHAR
STARTCHAR eight
ENCODING 56
SWIDTH 898 0
DWIDTH 160 0
BBX 142 130 9 0
BITMAP
000000000FFFFFFFFFFFFFFFFFC000000000
00000003FFFFFFFFFFFFFFFFFFFF00000000
0000003FFFFFFFFFFFFFFFFFFFFFF0000000
000001FFFFFFFFFFFFFFFFFFFFFFFE000000
000007FFFFFFFFFFFFFFFFFFFFFFFF800000
00001FFFFFFFFFFFFFFFFFFFFFFFFFE00000
00007FFFFFFFFFFFFFFFFFFFFFFFFFF80000
0001FFFFFFFFFFFFFFFFFFFFFFFFFFFE0000
0003FFFFFFFFFFFFFFFFFFFFFFFFFFFF0000
0007FFFFFFFFFFFFFFFFFFFFFFFFFFFF8000
000FFFFFFFFFFFFFFFFFFFFFFFFFFFFFC000
001FFFFFFFFFFFFFFFFFFFFFFFFFFFFFE000
003FFFFFFFFFFFFFFFFFFFFFFFFFFFFFF000
007FFFFFFFFFFFFFFFFFFFFFFFFFFFFFF800
00FFFFFFFFFFFFFFFFFFFFFFFFFFFFFFFC00
01FFFFFFFFFFFFFFFFFFFFFFFFFFFFFFFC00
01FFFFFFFFFFFFFFFFFFFFFFFFFFFFFFFE00
03FFFFFFFFFFFFFFFFFFFFFFFFFFFFFFFF00
03FFFFFFFFFFFFFFFFFFFFFFFFFFFFFFFF00
07FFFFFFFFFFFFFFFFFFFFFFFFFFFFFFFF80
07FFFFFFFFFFFFFFFFFFFFFFFFFFFFFFFF80
0FFFFFFFFFFFFFFFFFFFFFFFFFFFFFFFFF80
0FFFFFFFFFFFFFFFFFFFFFFFFFFFFFFFFFC0
0FFFFFFFFE0000000000000001FFFFFFFFC0
0FFFFFFFE000000000000000001FFFFFFFC0
1FFFFFFF80000000000000000007FFFFFFE0
1FFFFFFE00000000000000000001FFFFFFE0
1FFFFFF800000000000000000000FFFFFFE0
1FFFFFF0000000000000000000007FFFFFE0
1FFFFFF0000000000000000000003FFFFFE0
1FFFFFE0000000000000000000001FFFFFE0
1FFFFFE0000000000000000000001FFFFFE0
1FFFFFC0000000000000000000000FFFFFE0
1FFFFFC0000000000000000000000FFFFFE0
1FFFFFC0000000000000000000000FFFFFE0
1FFFFFC0000000000000000000000FFFFFE0
1FFFFF80000000000000000000000FFFFFE0
1FFFFF80000000000000000000000FFFFFE0
1FFFFF80000000000000000000000FFFFFE0
1FFFFF80000000000000000000000FFFFFE0
1FFFFF80000000000000000000000FFFFFE0
1FFFFFC0000000000000000000000FFFFFE0
1FFFFFC0000000000000000000000FFFFFC0
0FFFFFC0000000000000000000000FFFFFC0
0FFFFFC0000000000000000000000FFFFFC0
0FFFFFC0000000000000000000001FFFFFC0
07FFFFE0000000000000000000001FFFFF80
07FFFFE0000000000000000000003FFFFF80
07FFFFF0000000000000000000003FFFFF00
03FFFFF8000000000000000000007FFFFF00
01FFFFFC00000000000000000000FFFFFE00
01FFFFFF00000000000000000003FFFFFE00
00FFFFFFC000000000000000000FFFFFFC00
007FFFFFFC0000000000000000FFFFFFF800
003FFFFFFFFFFFFFFFFFFFFFFFFFFFFFF000
001FFFFFFFFFFFFFFFFFFFFFFFFFFFFFE000
000FFFFFFFFFFFFFFFFFFFFFFFFFFFFFC000
0007FFFFFFFFFFFFFFFFFFFFFFFFFFFF8000
0001FFFFFFFFFFFFFFFFFFFFFFFFFFFE0000
00007FFFFFFFFFFFFFFFFFFFFFFFFFF80000
00001FFFFFFFFFFFFFFFFFFFFFFFFFE00000
00001FFFFFFFFFFFFFFFFFFFFFFFFFE00000
00007FFFFFFFFFFFFFFFFFFFFFFFFFF80000
0001FFFFFFFFFFFFFFFFFFFFFFFFFFFE0000
0007FFFFFFFFFFFFFFFFFFFFFFFFFFFF8000
000FFFFFFFFFFFFFFFFFFFFFFFFFFFFFC000
003FFFFFFFFFFFFFFFFFFFFFFFFFFFFFE000
007FFFFFFFFFFFFFFFFFFFFFFFFFFFFFF800
00FFFFFFFFFFFFFFFFFFFFFFFFFFFFFFFC00
01FFFFFFFFFFFFFFFFFFFFFFFFFFFFFFFC00
03FFFFFFFFFFFFFFFFFFFFFFFFFFFFFFFE00
03FFFFFFFFFFFFFFFFFFFFFFFFFFFFFFFF00
07FFFFFFFFFFFFFFFFFFFFFFFFFFFFFFFF80
0FFFFFFFF800000000000000007FFFFFFF80
0FFFFFFF80000000000000000007FFFFFFC0
1FFFFFFE00000000000000000001FFFFFFE0
1FFFFFF8000000000000000000007FFFFFE0
3FFFFFF0000000000000000000003FFFFFE0
3FFFFFE0000000000000000000001FFFFFF0
3FFFFFC0000000000000000000000FFFFFF0
7FFFFF80000000000000000000000FFFFFF0
7FFFFF800000000000000000000007FFFFF8
7FFFFF000000000000000000000003FFFFF8
7FFFFF000000000000000000000003FFFFF8
FFFFFF000000000000000000000003FFFFF8
FFFFFE000000000000000000000001FFFFF8
FFFFFE000000000000000000000001FFFFFC
FFFFFE000000000000000000000001FFFFFC
FFFFFE000000000000000000000001FFFFFC
FFFFFE000000000000000000000001FFFFFC
FFFFFE000000000000000000000001FFFFFC
FFFFFE000000000000000000000001FFFFFC
FFFFFE000000000000000000000001FFFFFC
FFFFFE000000000000000000000001FFFFFC
FFFFFE000000000000000000000003FFFFFC
FFFFFF000000000000000000000003FFFFFC
FFFFFF000000000000000000000003FFFFF8
7FFFFF000000000000000000000007FFFFF8
7FFFFF800000000000000000000007FFFFF8
7FFFFFC0000000000000000000000FFFFFF8
7FFFFFE0000000000000000000001FFFFFF8
7FFFFFF0000000000000000000003FFFFFF8
3FFFFFF8000000000000000000007FFFFFF0
3FFFFFFE00000000000000000001FFFFFFF0
3FFFFFFF00000000000000000007FFFFFFF0
1FFFFFFFE000000000000000001FFFFFFFE0
1FFFFFFFFE0000000000000001FFFFFFFFE0
1FFFFFFFFFFFFFFFFFFFFFFFFFFFFFFFFFE0
0FFFFFFFFFFFFFFFFFFFFFFFFFFFFFFFFFC0
0FFFFFFFFFFFFFFFFFFFFFFFFFFFFFFFFFC0
07FFFFFFFFFFFFFFFFFFFFFFFFFFFFFFFF80
07FFFFFFFFFFFFFFFFFFFFFFFFFFFFFFFF00
03FFFFFFFFFFFFFFFFFFFFFFFFFFFFFFFF00
01FFFFFFFFFFFFFFFFFFFFFFFFFFFFFFFE00
01FFFFFFFFFFFFFFFFFFFFFFFFFFFFFFFE00
00FFFFFFFFFFFFFFFFFFFFFFFFFFFFFFFC00
007FFFFFFFFFFFFFFFFFFFFFFFFFFFFFF800
003FFFFFFFFFFFFFFFFFFFFFFFFFFFFFF000
001FFFFFFFFFFFFFFFFFFFFFFFFFFFFFE000
000FFFFFFFFFFFFFFFFFFFFFFFFFFFFFC000
0007FFFFFFFFFFFFFFFFFFFFFFFFFFFF8000
0003FFFFFFFFFFFFFFFFFFFFFFFFFFFF0000
0001FFFFFFFFFFFFFFFFFFFFFFFFFFFC0000
00007FFFFFFFFFFFFFFFFFFFFFFFFFF80000
00003FFFFFFFFFFFFFFFFFFFFFFFFFE00000
00000FFFFFFFFFFFFFFFFFFFFFFFFF800000
000001FFFFFFFFFFFFFFFFFFFFFFFE000000
0000007FFFFFFFFFFFFFFFFFFFFFF8000000
00000007FFFFFFFFFFFFFFFFFFFF80000000
000000003FFFFFFFFFFFFFFFFFF000000000
ENDCHAR
STARTCHAR nine
ENCODING 57
SWIDTH 861 0
DWIDTH 153 0
BBX 139 130 7 0
BITMAP
00000001FFFFFFFFFFFFFF80000000000000
0000001FFFFFFFFFFFFFFFFE000000000000
000000FFFFFFFFFFFFFFFFFFF00000000000
000003FFFFFFFFFFFFFFFFFFFE0000000000
00000FFFFFFFFFFFFFFFFFFFFFC000000000
00003FFFFFFFFFFFFFFFFFFFFFF000000000
0000FFFFFFFFFFFFFFFFFFFFFFFC00000000
0001FFFFFFFFFFFFFFFFFFFFFFFF00000000
0003FFFFFFFFFFFFFFFFFFFFFFFF80000000
0007FFFFFFFFFFFFFFFFFFFFFFFFE0000000
000FFFFFFFFFFFFFFFFFFFFFFFFFF0000000
001FFFFFFFFFFFFFFFFFFFFFFFFFFC000000
003FFFFFFFFFFFFFFFFFFFFFFFFFFE000000
007FFFFFFFFFFFFFFFFFFFFFFFFFFF000000
00FFFFFFFFFFFFFFFFFFFFFFFFFFFF800000
00FFFFFFFFFFFFFFFFFFFFFFFFFFFFC00000
01FFFFFFFFFFFFFFFFFFFFFFFFFFFFE00000
03FFFFFFFFFFFFFFFFFFFFFFFFFFFFF00000
03FFFFFFFFFFFFFFFFFFFFFFFFFFFFF80000
07FFFFFFFFFFFFFFFFFFFFFFFFFFFFFC0000
07FFFFFFFFFFFFFFFFFFFFFFFFFFFFFC0000
0FFFFFFFFFFFFFFFFFFFFFFFFFFFFFFE0000
0FFFFFFFFFFFFFFFFFFFFFFFFFFFFFFF0000
1FFFFFFFE00000000000007FFFFFFFFF0000
1FFFFFFF8000000000000007FFFFFFFF8000
1FFFFFFE0000000000000000FFFFFFFFC000
3FFFFFFC00000000000000003FFFFFFFC000
3FFFFFF000000000000000000FFFFFFFE000
3FFFFFE0000000000000000003FFFFFFE000
3FFFFFE0000000000000000001FFFFFFF000
7FFFFFC0000000000000000000FFFFFFF000
7FFFFFC00000000000000000003FFFFFF800
7FFFFF800000000000000000003FFFFFF800
7FFFFF800000000000000000001FFFFFF800
7FFFFF000000000000000000000FFFFFFC00
7FFFFF0000000000000000000007FFFFFC00
7FFFFF0000000000000000000003FFFFFC00
7FFFFF0000000000000000000003FFFFFE00
FFFFFF0000000000000000000001FFFFFE00
FFFFFF0000000000000000000001FFFFFE00
FFFFFE0000000000000000000000FFFFFF00
FFFFFE0000000000000000000000FFFFFF00
FFFFFE00000000000000000000007FFFFF00
7FFFFE00000000000000000000007FFFFF00
7FFFFF00000000000000000000007FFFFF80
7FFFFF00000000000000000000003FFFFF80
7FFFFF00000000000000000000003FFFFF80
7FFFFF00000000000000000000003FFFFF80
7FFFFF00000000000000000000003FFFFF80
7FFFFF00000000000000000000001FFFFFC0
7FFFFF80000000000000000000001FFFFFC0
7FFFFF80000000000000000000001FFFFFC0
7FFFFFC0000000000000000000001FFFFFC0
3FFFFFC0000000000000000000001FFFFFC0
3FFFFFE0000000000000000000001FFFFFC0
3FFFFFF0000000000000000000000FFFFFC0
3FFFFFF8000000000000000000000FFFFFC0
1FFFFFFE000000000000000000000FFFFFC0
1FFFFFFF800000000000000000000FFFFFE0
1FFFFFFFF00000000000000000000FFFFFE0
0FFFFFFFFFFFFFFFFFFFFFFFFFFFFFFFFFE0
0FFFFFFFFFFFFFFFFFFFFFFFFFFFFFFFFFE0
07FFFFFFFFFFFFFFFFFFFFFFFFFFFFFFFFE0
07FFFFFFFFFFFFFFFFFFFFFFFFFFFFFFFFE0
03FFFFFFFFFFFFFFFFFFFFFFFFFFFFFFFFE0
03FFFFFFFFFFFFFFFFFFFFFFFFFFFFFFFFE0
01FFFFFFFFFFFFFFFFFFFFFFFFFFFFFFFFE0
00FFFFFFFFFFFFFFFFFFFFFFFFFFFFFFFFE0
007FFFFFFFFFFFFFFFFFFFFFFFFFFFFFFFE0
003FFFFFFFFFFFFFFFFFFFFFFFFFFFFFFFE0
001FFFFFFFFFFFFFFFFFFFFFFFFFFFFFFFE0
000FFFFFFFFFFFFFFFFFFFFFFFFFFFFFFFE0
0007FFFFFFFFFFFFFFFFFFFFFFFFFFFFFFE0
0001FFFFFFFFFFFFFFFFFFFFFFFFFFFFFFE0
00007FFFFFFFFFFFFFFFFFFFFFFFFFFFFFE0
00001FFFFFFFFFFFFFFFFFFFFFFFFFFFFFC0
000007FFFFFFFFFFFFFFFFFFFFFFFFFFFFC0
0000007FFFFFFFFFFFFFFFFFFFFFFFFFFFC0
00000003FFFFFFFFFFFFFFFFFFFFFFFFFFC0
00000000000000000000000000001FFFFFC0
00000000000000000000000000001FFFFFC0
00000000000000000000000000001FFFFFC0
00000000000000000000000000003FFFFFC0
00000000000000000000000000003FFFFF80
00000000000000000000000000003FFFFF80
00000000000000000000000000003FFFFF80
00000000000000000000000000007FFFFF80
00000000000000000000000000007FFFFF80
0000000000000000000000000000FFFFFF80
0000000000000000000000000000FFFFFF00
0000000000000000000000000000FFFFFF00
0000000000000000000000000001FFFFFF00
0000000000000000000000000001FFFFFE00
0000000000000000000000000003FFFFFE00
0000000000000000000000000007FFFFFE00
0000000000000000000000000007FFFFFE00
000000000000000000000000000FFFFFFC00
000000000000000000000000001FFFFFFC00
000000000000000000000000003FFFFFF800
000000000000000000000000007FFFFFF800
00000000000000000000000000FFFFFFF800
00000000000000000000000003FFFFFFF000
00000000000000000000000007FFFFFFF000
0000000000000000000000001FFFFFFFE000
0000000000000000000000007FFFFFFFE000
000000000000000000000003FFFFFFFFC000
00000000000000000000003FFFFFFFFF8000
0001FFFFFFFFFFFFFFFFFFFFFFFFFFFF8000
0001FFFFFFFFFFFFFFFFFFFFFFFFFFFF0000
0001FFFFFFFFFFFFFFFFFFFFFFFFFFFE0000
0001FFFFFFFFFFFFFFFFFFFFFFFFFFFE0000
0001FFFFFFFFFFFFFFFFFFFFFFFFFFFC0000
0001FFFFFFFFFFFFFFFFFFFFFFFFFFF80000
0001FFFFFFFFFFFFFFFFFFFFFFFFFFF00000
0001FFFFFFFFFFFFFFFFFFFFFFFFFFE00000
0001FFFFFFFFFFFFFFFFFFFFFFFFFFC00000
0001FFFFFFFFFFFFFFFFFFFFFFFFFF800000
0001FFFFFFFFFFFFFFFFFFFFFFFFFF000000
0001FFFFFFFFFFFFFFFFFFFFFFFFFE000000
0001FFFFFFFFFFFFFFFFFFFFFFFFFC000000
0001FFFFFFFFFFFFFFFFFFFFFFFFF0000000
0001FFFFFFFFFFFFFFFFFFFFFFFFE0000000
0001FFFFFFFFFFFFFFFFFFFFFFFF80000000
0001FFFFFFFFFFFFFFFFFFFFFFFE00000000
0001FFFFFFFFFFFFFFFFFFFFFFF800000000
0001FFFFFFFFFFFFFFFFFFFFFFE000000000
0001FFFFFFFFFFFFFFFFFFFFFF0000000000
0001FFFFFFFFFFFFFFFFFFFFF80000000000
0001FFFFFFFFFFFFFFFFFFFF000000000000
0001FFFFFFFFFFFFFFFFFF80000000000000
ENDCHAR
STARTCHAR colon
ENCODING 58
SWIDTH 262 0
DWIDTH 47 0
BBX 24 83 11 0
BITMAP
007F00
03FFC0
07FFF0
0FFFF8
1FFFFC
3FFFFC
7FFFFE
7FFFFF
7FFFFF
FFFFFF
FFFFFF
FFFFFF
FFFFFF
FFFFFF
FFFFFF
7FFFFF
7FFFFF
7FFFFE
3FFFFE
1FFFFC
1FFFF8
07FFF0
03FFC0
00FF00
000000
000000
000000
000000
000000
000000
000000
000000
000000
000000
000000
000000
000000
000000
000000
000000
000000
000000
000000
000000
000000
000000
000000
000000
000000
000000
000000
000000
000000
000000
000000
000000
000000
000000
000000
007F00
03FFC0
07FFF0
0FFFF8
1FFFFC
3FFFFE
7FFFFE
7FFFFF
7FFFFF
FFFFFF
FFFFFF
FFFFFF
FFFFFF
FFFFFF
FFFFFF
7FFFFF
7FFFFF
7FFFFE
3FFFFE
1FFFFC
0FFFF8
07FFF0
03FFC0
00FF00
ENDCHAR
STARTCHAR semicolon
ENCODING 59
SWIDTH 262 0
DWIDTH 47 0
BBX 24 103 11 -21
BITMAP
007F00
03FFE0
07FFF0
0FFFF8
1FFFFC
3FFFFE
3FFFFE
7FFFFF
7FFFFF
7FFFFF
FFFFFF
FFFFFF
FFFFFF
FFFFFF
7FFFFF
7FFFFF
7FFFFF
3FFFFE
3FFFFE
1FFFFC
0FFFF8
07FFF0
03FFC0
007F00
000000
000000
000000
000000
000000
000000
000000
000000
000000
000000
000000
000000
000000
000000
000000
000000
000000
000000
000000
000000
000000
000000
000000
000000
000000
000000
000000
000000
000000
000000
000000
000000
000000
7FFFFF
7FFFFF
7FFFFE
7FFFFE
7FFFFE
7FFFFE
7FFFFE
7FFFFC
7FFFFC
7FFFFC
7FFFFC
7FFFFC
7FFFF8
7FFFF8
7FFFF8
7FFFF8
7FFFF8
7FFFF8
7FFFF0
7FFFF0
7FFFF0
7FFFF0
7FFFF0
7FFFE0
7FFFE0
7FFFE0
7FFFE0
7FFFE0
7FFFC0
7FFFC0
7FFFC0
7FFFC0
7FFFC0
7FFF80
7FFF80
7FFF80
7FFF80
7FFF80
7FFF00
7FFF00
7FFF00
7FFF00
7FFF00
7FFE00
7FFE00
7FFE00
ENDCHAR
STARTCHAR less
ENCODING 60
SWIDTH 690 0
DWIDTH 123 0
BBX 101 96 11 18
BITMAP
00000000000000000000000018
000000000000000000000000F8
000000000000000000000003F8
00000000000000000000000FF8
00000000000000000000007FF8
0000000000000000000001FFF8
0000000000000000000007FFF8
000000000000000000003FFFF8
00000000000000000000FFFFF8
00000000000000000007FFFFF8
0000000000000000001FFFFFF8
0000000000000000007FFFFFF8
000000000000000003FFFFFFF8
00000000000000000FFFFFFFF8
00000000000000003FFFFFFFF8
0000000000000001FFFFFFFFF8
0000000000000007FFFFFFFFE0
000000000000003FFFFFFFFF80
00000000000000FFFFFFFFFC00
00000000000003FFFFFFFFF000
0000000000001FFFFFFFFF8000
0000000000007FFFFFFFFE0000
000000000001FFFFFFFFF00000
00000000000FFFFFFFFFC00000
00000000003FFFFFFFFE000000
0000000001FFFFFFFFF0000000
0000000007FFFFFFFFC0000000
000000001FFFFFFFFE00000000
00000000FFFFFFFFF800000000
00000003FFFFFFFFC000000000
0000000FFFFFFFFF0000000000
0000007FFFFFFFF80000000000
000001FFFFFFFFE00000000000
00000FFFFFFFFF000000000000
00003FFFFFFFF8000000000000
0000FFFFFFFFE0000000000000
0007FFFFFFFF00000000000000
001FFFFFFFFC00000000000000
00FFFFFFFFE000000000000000
03FFFFFFFF8000000000000000
0FFFFFFFFC0000000000000000
1FFFFFFFF00000000000000000
3FFFFFFF800000000000000000
7FFFFFFE000000000000000000
7FFFFFF0000000000000000000
7FFFFF80000000000000000000
FFFFFE00000000000000000000
FFFFF000000000000000000000
FFFFF800000000000000000000
FFFFFF00000000000000000000
7FFFFFC0000000000000000000
7FFFFFF8000000000000000000
7FFFFFFE000000000000000000
3FFFFFFFC00000000000000000
1FFFFFFFF00000000000000000
07FFFFFFFE0000000000000000
01FFFFFFFF8000000000000000
007FFFFFFFF000000000000000
000FFFFFFFFC00000000000000
0003FFFFFFFF80000000000000
0000FFFFFFFFE0000000000000
00001FFFFFFFFC000000000000
000007FFFFFFFF000000000000
000001FFFFFFFFE00000000000
0000003FFFFFFFF80000000000
0000000FFFFFFFFF0000000000
00000003FFFFFFFFE000000000
000000007FFFFFFFF800000000
000000001FFFFFFFFF00000000
0000000003FFFFFFFFC0000000
0000000000FFFFFFFFF8000000
00000000003FFFFFFFFE000000
000000000007FFFFFFFFC00000
000000000001FFFFFFFFF00000
0000000000007FFFFFFFFE0000
0000000000000FFFFFFFFF8000
00000000000003FFFFFFFFF000
000000000000007FFFFFFFFC00
000000000000001FFFFFFFFF80
0000000000000007FFFFFFFFE0
0000000000000000FFFFFFFFF8
00000000000000003FFFFFFFF8
00000000000000000FFFFFFFF8
000000000000000001FFFFFFF8
0000000000000000007FFFFFF8
0000000000000000001FFFFFF8
00000000000000000003FFFFF8
00000000000000000000FFFFF8
000000000000000000001FFFF8
0000000000000000000007FFF8
0000000000000000000001FFF8
00000000000000000000003FF8
00000000000000000000000FF8
000000000000000000000003F8
00000000000000000000000078
00000000000000000000000018
ENDCHAR
STARTCHAR equal
ENCODING 61
SWIDTH 690 0
DWIDTH 123 0
BBX 101 63 11 34
BITMAP
FFFFFFFFFFFFFFFFFFFFFFFFF8
FFFFFFFFFFFFFFFFFFFFFFFFF8
FFFFFFFFFFFFFFFFFFFFFFFFF8
FFFFFFFFFFFFFFFFFFFFFFFFF8
FFFFFFFFFFFFFFFFFFFFFFFFF8
FFFFFFFFFFFFFFFFFFFFFFFFF8
FFFFFFFFFFFFFFFFFFFFFFFFF8
FFFFFFFFFFFFFFFFFFFFFFFFF8
FFFFFFFFFFFFFFFFFFFFFFFFF8
FFFFFFFFFFFFFFFFFFFFFFFFF8
FFFFFFFFFFFFFFFFFFFFFFFFF8
FFFFFFFFFFFFFFFFFFFFFFFFF8
FFFFFFFFFFFFFFFFFFFFFFFFF8
FFFFFFFFFFFFFFFFFFFFFFFFF8
FFFFFFFFFFFFFFFFFFFFFFFFF8
00000000000000000000000000
00000000000000000000000000
00000000000000000000000000
00000000000000000000000000
00000000000000000000000000
00000000000000000000000000
00000000000000000000000000
00000000000000000000000000
00000000000000000000000000
00000000000000000000000000
00000000000000000000000000
00000000000000000000000000
00000000000000000000000000
00000000000000000000000000
00000000000000000000000000
00000000000000000000000000
00000000000000000000000000
00000000000000000000000000
00000000000000000000000000
00000000000000000000000000
00000000000000000000000000
00000000000000000000000000
00000000000000000000000000
00000000000000000000000000
00000000000000000000000000
00000000000000000000000000
00000000000000000000000000
00000000000000000000000000
00000000000000000000000000
00000000000000000000000000
00000000000000000000000000
00000000000000000000000000
00000000000000000000000000
FFFFFFFFFFFFFFFFFFFFFFFFF8
FFFFFFFFFFFFFFFFFFFFFFFFF8
FFFFFFFFFFFFFFFFFFFFFFFFF8
FFFFFFFFFFFFFFFFFFFFFFFFF8
FFFFFFFFFFFFFFFFFFFFFFFFF8
FFFFFFFFFFFFFFFFFFFFFFFFF8
FFFFFFFFFFFFFFFFFFFFFFFFF8
FFFFFFFFFFFFFFFFFFFFFFFFF8
FFFFFFFFFFFFFFFFFFFFFFFFF8
FFFFFFFFFFFFFFFFFFFFFFFFF8
FFFFFFFFFFFFFFFFFFFFFFFFF8
FFFFFFFFFFFFFFFFFFFFFFFFF8
FFFFFFFFFFFFFFFFFFFFFFFFF8
FFFFFFFFFFFFFFFFFFFFFFFFF8
FFFFFFFFFFFFFFFFFFFFFFFFF8
ENDCHAR
STARTCHAR greater
ENCODING 62
SWIDTH 690 0
DWIDTH 123 0
BBX 101 96 11 18
BITMAP
C0000000000000000000000000
F0000000000000000000000000
FE000000000000000000000000
FF800000000000000000000000
FFF00000000000000000000000
FFFC0000000000000000000000
FFFF0000000000000000000000
FFFFE000000000000000000000
FFFFF800000000000000000000
FFFFFE00000000000000000000
FFFFFFC0000000000000000000
FFFFFFF0000000000000000000
FFFFFFFE000000000000000000
FFFFFFFF800000000000000000
FFFFFFFFE00000000000000000
FFFFFFFFFC0000000000000000
7FFFFFFFFF0000000000000000
0FFFFFFFFFC000000000000000
01FFFFFFFFF800000000000000
007FFFFFFFFE00000000000000
000FFFFFFFFFC0000000000000
0003FFFFFFFFF0000000000000
00007FFFFFFFFC000000000000
00001FFFFFFFFF800000000000
000003FFFFFFFFE00000000000
000000FFFFFFFFF80000000000
0000001FFFFFFFFF0000000000
00000007FFFFFFFFC000000000
00000000FFFFFFFFF800000000
000000001FFFFFFFFE00000000
0000000007FFFFFFFF80000000
0000000000FFFFFFFFF0000000
00000000003FFFFFFFFC000000
000000000007FFFFFFFF000000
000000000001FFFFFFFFE00000
0000000000003FFFFFFFF80000
0000000000000FFFFFFFFF0000
00000000000001FFFFFFFFC000
000000000000003FFFFFFFF000
000000000000000FFFFFFFFE00
0000000000000001FFFFFFFF00
00000000000000007FFFFFFFC0
00000000000000000FFFFFFFE0
000000000000000003FFFFFFE0
0000000000000000007FFFFFF0
0000000000000000001FFFFFF0
00000000000000000003FFFFF0
00000000000000000000FFFFF8
00000000000000000000FFFFF8
00000000000000000007FFFFF0
0000000000000000001FFFFFF0
000000000000000000FFFFFFF0
000000000000000003FFFFFFE0
00000000000000001FFFFFFFE0
00000000000000007FFFFFFFC0
0000000000000003FFFFFFFF00
000000000000000FFFFFFFFC00
000000000000007FFFFFFFF000
00000000000003FFFFFFFF8000
0000000000000FFFFFFFFE0000
0000000000007FFFFFFFF80000
000000000001FFFFFFFFC00000
00000000000FFFFFFFFF000000
00000000003FFFFFFFF8000000
0000000001FFFFFFFFE0000000
0000000007FFFFFFFF80000000
000000003FFFFFFFFC00000000
00000000FFFFFFFFF000000000
00000007FFFFFFFFC000000000
0000001FFFFFFFFE0000000000
000000FFFFFFFFF80000000000
000003FFFFFFFFC00000000000
00001FFFFFFFFF000000000000
00007FFFFFFFFC000000000000
0003FFFFFFFFE0000000000000
000FFFFFFFFF80000000000000
007FFFFFFFFE00000000000000
01FFFFFFFFF000000000000000
0FFFFFFFFFC000000000000000
3FFFFFFFFF0000000000000000
FFFFFFFFF80000000000000000
FFFFFFFFE00000000000000000
FFFFFFFF000000000000000000
FFFFFFFC000000000000000000
FFFFFFF0000000000000000000
FFFFFF80000000000000000000
FFFFFE00000000000000000000
FFFFF800000000000000000000
FFFFC000000000000000000000
FFFF0000000000000000000000
FFFC0000000000000000000000
FFE00000000000000000000000
FF800000000000000000000000
FC000000000000000000000000
F0000000000000000000000000
C0000000000000000000000000
ENDCHAR
STARTCHAR question
ENCODING 63
SWIDTH 776 0
DWIDTH 138 0
BBX 125 130 8 0
BITMAP
FFFFFFFFFFFFFFFFFFFFFFF800000000
FFFFFFFFFFFFFFFFFFFFFFFFC0000000
FFFFFFFFFFFFFFFFFFFFFFFFFC000000
FFFFFFFFFFFFFFFFFFFFFFFFFF000000
FFFFFFFFFFFFFFFFFFFFFFFFFFC00000
FFFFFFFFFFFFFFFFFFFFFFFFFFF00000
FFFFFFFFFFFFFFFFFFFFFFFFFFFC0000
FFFFFFFFFFFFFFFFFFFFFFFFFFFE0000
FFFFFFFFFFFFFFFFFFFFFFFFFFFF8000
FFFFFFFFFFFFFFFFFFFFFFFFFFFFC000
FFFFFFFFFFFFFFFFFFFFFFFFFFFFE000
FFFFFFFFFFFFFFFFFFFFFFFFFFFFF000
FFFFFFFFFFFFFFFFFFFFFFFFFFFFF800
FFFFFFFFFFFFFFFFFFFFFFFFFFFFFC00
FFFFFFFFFFFFFFFFFFFFFFFFFFFFFC00
FFFFFFFFFFFFFFFFFFFFFFFFFFFFFE00
FFFFFFFFFFFFFFFFFFFFFFFFFFFFFF00
FFFFFFFFFFFFFFFFFFFFFFFFFFFFFF00
FFFFFFFFFFFFFFFFFFFFFFFFFFFFFF80
FFFFFFFFFFFFFFFFFFFFFFFFFFFFFF80
FFFFFFFFFFFFFFFFFFFFFFFFFFFFFFC0
FFFFFFFFFFFFFFFFFFFFFFFFFFFFFFC0
FFFFFFFFFFFFFFFFFFFFFFFFFFFFFFE0
00000000000000000000001FFFFFFFE0
000000000000000000000003FFFFFFE0
000000000000000000000000FFFFFFE0
0000000000000000000000007FFFFFF0
0000000000000000000000003FFFFFF0
0000000000000000000000001FFFFFF0
0000000000000000000000000FFFFFF0
0000000000000000000000000FFFFFF0
00000000000000000000000007FFFFF8
00000000000000000000000007FFFFF8
00000000000000000000000007FFFFF8
00000000000000000000000007FFFFF8
00000000000000000000000007FFFFF8
00000000000000000000000003FFFFF8
00000000000000000000000003FFFFF8
00000000000000000000000003FFFFF8
00000000000000000000000003FFFFF8
00000000000000000000000007FFFFF8
00000000000000000000000007FFFFF0
00000000000000000000000007FFFFF0
00000000000000000000000007FFFFF0
0000000000000000000000000FFFFFF0
0000000000000000000000000FFFFFF0
0000000000000000000000001FFFFFE0
0000000000000000000000001FFFFFE0
0000000000000000000000003FFFFFE0
0000000000000000000000007FFFFFC0
000000000000000000000001FFFFFFC0
000000000000000000000007FFFFFFC0
00000000000000000000003FFFFFFF80
000000003FFFFFFFFFFFFFFFFFFFFF80
00000007FFFFFFFFFFFFFFFFFFFFFF00
0000001FFFFFFFFFFFFFFFFFFFFFFF00
000000FFFFFFFFFFFFFFFFFFFFFFFE00
000001FFFFFFFFFFFFFFFFFFFFFFFC00
000007FFFFFFFFFFFFFFFFFFFFFFF800
00000FFFFFFFFFFFFFFFFFFFFFFFF000
00001FFFFFFFFFFFFFFFFFFFFFFFF000
00003FFFFFFFFFFFFFFFFFFFFFFFE000
00007FFFFFFFFFFFFFFFFFFFFFFFC000
0000FFFFFFFFFFFFFFFFFFFFFFFF0000
0000FFFFFFFFFFFFFFFFFFFFFFFE0000
0001FFFFFFFFFFFFFFFFFFFFFFFC0000
0001FFFFFFFFFFFFFFFFFFFFFFF00000
0003FFFFFFFFFFFFFFFFFFFFFFC00000
0003FFFFFFFFFFFFFFFFFFFFFF000000
0007FFFFFFFFFFFFFFFFFFFFF8000000
0007FFFFFFFFFFFFFFFFFFFFC0000000
0007FFFFFFFFFFFFFFFFFFF800000000
0007FFFFFC0000000000000000000000
000FFFFFF00000000000000000000000
000FFFFFE00000000000000000000000
000FFFFFC00000000000000000000000
000FFFFFC00000000000000000000000
000FFFFF800000000000000000000000
000FFFFF800000000000000000000000
000FFFFF800000000000000000000000
000FFFFF800000000000000000000000
000FFFFF800000000000000000000000
000FFFFF800000000000000000000000
000FFFFF800000000000000000000000
000FFFFF800000000000000000000000
000FFFFF800000000000000000000000
000FFFFF800000000000000000000000
00000000000000000000000000000000
00000000000000000000000000000000
00000000000000000000000000000000
00000000000000000000000000000000
00000000000000000000000000000000
00000000000000000000000000000000
00000000000000000000000000000000
00000000000000000000000000000000
00000000000000000000000000000000
00000000000000000000000000000000
00000000000000000000000000000000
00000000000000000000000000000000
00000000000000000000000000000000
00000000000000000000000000000000
00000000000000000000000000000000
00000000000000000000000000000000
00000000000000000000000000000000
00000000000000000000000000000000
00000000000000000000000000000000
00001FE0000000000000000000000000
00007FF8000000000000000000000000
0001FFFE000000000000000000000000
0003FFFF000000000000000000000000
0007FFFF800000000000000000000000
0007FFFF800000000000000000000000
000FFFFFC00000000000000000000000
000FFFFFC00000000000000000000000
001FFFFFE00000000000000000000000
001FFFFFE00000000000000000000000
001FFFFFE00000000000000000000000
001FFFFFE00000000000000000000000
001FFFFFE00000000000000000000000
001FFFFFE00000000000000000000000
001FFFFFE00000000000000000000000
001FFFFFE00000000000000000000000
000FFFFFC00000000000000000000000
000FFFFFC00000000000000000000000
0007FFFF800000000000000000000000
0007FFFF800000000000000000000000
0003FFFF000000000000000000000000
0001FFFE000000000000000000000000
00007FF8000000000000000000000000
00001FE0000000000000000000000000
ENDCHAR
STARTCHAR at
ENCODING 64
SWIDTH 833 0
DWIDTH 148 0
BBX 130 130 7 0
BITMAP
000000000000007FFFFFFFFFFFFFFFFFC0
0000000000001FFFFFFFFFFFFFFFFFFFC0
000000000001FFFFFFFFFFFFFFFFFFFFC0
00000000000FFFFFFFFFFFFFFFFFFFFFC0
00000000007FFFFFFFFFFFFFFFFFFFFFC0
0000000001FFFFFFFFFFFFFFFFFFFFFFC0
0000000007FFFFFFFFFFFFFFFFFFFFFFC0
000000001FFFFFFFFFFFFFFFFFFFFFFFC0
000000007FFFFFFFFFFFFFFFFFFFFFFFC0
00000001FFFFFFFFFFFFFFFFFFFFFFFFC0
00000007FFFFFFFFFFFFFFFFFFFFFFFFC0
0000000FFFFFFFFFFFFFFFFFFFFFFFFFC0
0000001FFFFFFFFFFFFFFFFFFFFFFFFFC0
0000007FFFFFFFFFFFFFFFFFFFFFFFFFC0
000000FFFFFFFFFFFFFFFFFFFFFFFFFFC0
000001FFFFFFFFFFFFFFFFFFFFFFFFFFC0
000003FFFFFFFFFFFFFFFFFFFFFFFFFFC0
000007FFFFFFFF800000000000007FFFC0
00000FFFFFFFF0000000000000007FFFC0
00001FFFFFFF00000000000000007FFFC0
00003FFFFFFC00000000000000007FFFC0
00007FFFFFE000000000000000007FFFC0
0000FFFFFF8000000000000000007FFFC0
0001FFFFFE0000000000000000007FFFC0
0003FFFFFC0000000000000000007FFFC0
0003FFFFF00000000000000000007FFFC0
0007FFFFE00000000000000000007FFFC0
000FFFFFC00000000000000000007FFFC0
000FFFFF800000000000000000007FFFC0
001FFFFE000000000000000000007FFFC0
003FFFFC000000000000000000007FFFC0
003FFFF8000000000000000000007FFFC0
007FFFF0000000000000000000007FFFC0
007FFFF0000000000000000000007FFFC0
00FFFFE0000000000000000000007FFFC0
00FFFFC0000000000000000000007FFFC0
01FFFF800000003FFFFFFFFFC0007FFFC0
01FFFF80000003FFFFFFFFFFC0007FFFC0
03FFFF0000000FFFFFFFFFFFC0007FFFC0
03FFFF0000003FFFFFFFFFFFC0007FFFC0
07FFFE000000FFFFFFFFFFFFC0007FFFC0
07FFFE000001FFFFFFFFFFFFC0007FFFC0
07FFFC000003FFFFFFFFFFFFC0007FFFC0
0FFFFC000007FFFFFFFFFFFFC0007FFFC0
0FFFF800000FFFFFFFFFFFFFC0007FFFC0
1FFFF800001FFFFFFFFFFFFFC0007FFFC0
1FFFF000001FFFFFFFFFFFFFC0007FFFC0
1FFFF000003FFFFFFFFFFFFFC0007FFFC0
1FFFF000007FFFFFFFFFFFFFC0007FFFC0
3FFFE000007FFFFE00001FFFC0007FFFC0
3FFFE00000FFFFF000001FFFC0007FFFC0
3FFFE00000FFFFC000001FFFC0007FFFC0
3FFFE00000FFFF8000001FFFC0007FFFC0
3FFFE00001FFFF0000001FFFC0007FFFC0
7FFFC00001FFFE0000001FFFC0007FFFC0
7FFFC00001FFFE0000001FFFC0007FFFC0
7FFFC00003FFFC0000001FFFC0007FFFC0
7FFFC00003FFFC0000001FFFC0007FFFC0
7FFFC00003FFF80000001FFFC0007FFFC0
7FFFC00003FFF80000001FFFC0007FFFC0
7FFFC00003FFF80000001FFFC0007FFFC0
7FFFC00007FFF80000001FFFC0007FFFC0
7FFF800007FFF80000001FFFC0007FFFC0
FFFF800007FFF00000001FFFC0007FFFC0
FFFF800007FFF00000001FFFC0007FFFC0
FFFF800007FFF00000001FFFC0007FFFC0
FFFF800007FFF00000001FFFC0007FFFC0
FFFF800007FFF80000001FFFC0007FFFC0
FFFF800007FFF80000001FFFC0007FFFC0
7FFFC00003FFF80000001FFFC0007FFFC0
7FFFC00003FFF80000001FFFC0007FFFC0
7FFFC00003FFFC0000001FFFC0007FFFC0
7FFFC00003FFFC0000001FFFC0007FFFC0
7FFFC00003FFFC0000001FFFC0007FFFC0
7FFFC00003FFFE0000001FFFC0007FFFC0
7FFFC00001FFFF0000001FFFC0007FFFC0
7FFFC00001FFFF8000001FFFC0007FFFC0
7FFFE00001FFFF8000001FFFC0007FFFC0
7FFFE00000FFFFE000001FFFC0007FFFC0
3FFFE00000FFFFF000001FFFC0007FFFC0
3FFFE000007FFFFE00001FFFC0007FFFC0
3FFFF000007FFFFFFFFFFFFFFFFFFFFFC0
3FFFF000003FFFFFFFFFFFFFFFFFFFFFC0
3FFFF000003FFFFFFFFFFFFFFFFFFFFFC0
1FFFF000001FFFFFFFFFFFFFFFFFFFFFC0
1FFFF800000FFFFFFFFFFFFFFFFFFFFFC0
1FFFF800000FFFFFFFFFFFFFFFFFFFFFC0
0FFFFC000007FFFFFFFFFFFFFFFFFFFFC0
0FFFFC000003FFFFFFFFFFFFFFFFFFFFC0
0FFFFE000001FFFFFFFFFFFFFFFFFFFFC0
07FFFE0000007FFFFFFFFFFFFFFFFFFFC0
07FFFF0000003FFFFFFFFFFFFFFFFFFFC0
07FFFF0000000FFFFFFFFFFFFFFFFFFFC0
03FFFF80000003FFFFFFFFFFFFFFFFFFC0
03FFFF800000003FFFFFFFFFFFFFFFFFC0
01FFFFC000000000000000000000000000
01FFFFE000000000000000000000000000
00FFFFF000000000000000000000000000
00FFFFF800000000000000000000000000
007FFFF800000000000000000000000000
007FFFFC00000000000000000000000000
003FFFFE00000000000000000000000000
001FFFFF00000000000000000000000000
001FFFFFC0000000000000000000000000
000FFFFFE0000000000000000000000000
0007FFFFF0000000000000000000000000
0007FFFFFC000000000000000000000000
0003FFFFFE000000000000000000000000
0001FFFFFF800000000000000000000000
0000FFFFFFE00000000000000000000000
00007FFFFFFC0000000000000000000000
00003FFFFFFF0000000000000000000000
00001FFFFFFFF000000000000000000000
00000FFFFFFFFFC0000000000000000000
000007FFFFFFFFFFFFFFFFFFFFFFFFFFC0
000003FFFFFFFFFFFFFFFFFFFFFFFFFFC0
000001FFFFFFFFFFFFFFFFFFFFFFFFFFC0
0000007FFFFFFFFFFFFFFFFFFFFFFFFFC0
0000003FFFFFFFFFFFFFFFFFFFFFFFFFC0
0000000FFFFFFFFFFFFFFFFFFFFFFFFFC0
00000007FFFFFFFFFFFFFFFFFFFFFFFFC0
00000001FFFFFFFFFFFFFFFFFFFFFFFFC0
000000007FFFFFFFFFFFFFFFFFFFFFFFC0
000000001FFFFFFFFFFFFFFFFFFFFFFFC0
0000000007FFFFFFFFFFFFFFFFFFFFFFC0
0000000000FFFFFFFFFFFFFFFFFFFFFFC0
00000000003FFFFFFFFFFFFFFFFFFFFFC0
000000000003FFFFFFFFFFFFFFFFFFFFC0
0000000000003FFFFFFFFFFFFFFFFFFFC0
00000000000000FFFFFFFFFFFFFFFFFFC0
ENDCHAR
STARTCHAR A
ENCODING 65
SWIDTH 989 0
DWIDTH 176 0
BBX 171 132 2 0
BITMAP
000000000000000000003F8000000000000000000000
00000000000000000000FFF000000000000000000000
00000000000000000001FFF800000000000000000000
00000000000000000003FFFC00000000000000000000
00000000000000000007FFFE00000000000000000000
0000000000000000000FFFFF00000000000000000000
0000000000000000001FFFFF00000000000000000000
0000000000000000001FFFFF80000000000000000000
0000000000000000003FFFFF80000000000000000000
0000000000000000003FFFFFC0000000000000000000
0000000000000000007FFFFFE0000000000000000000
000000000000000000FFFFFFE0000000000000000000
000000000000000000FFFFFFF0000000000000000000
000000000000000001FFFFFFF0000000000000000000
000000000000000001FFFFFFF8000000000000000000
000000000000000003FFFFFFFC000000000000000000
000000000000000007FFFFFFFC000000000000000000
000000000000000007FFFFFFFE000000000000000000
00000000000000000FFFFFFFFE000000000000000000
00000000000000000FFFFFFFFF000000000000000000
00000000000000001FFFFFFFFF800000000000000000
00000000000000003FFFFFFFFF800000000000000000
00000000000000003FFFFFFFFFC00000000000000000
00000000000000007FFFFFFFFFC00000000000000000
00000000000000007FFFFFFFFFE00000000000000000
0000000000000000FFFFFFFFFFF00000000000000000
0000000000000001FFFFFFFFFFF00000000000000000
0000000000000001FFFFFFFFFFF80000000000000000
0000000000000003FFFFFFFFFFF80000000000000000
0000000000000003FFFFFFFFFFFC0000000000000000
0000000000000007FFFFFFFFFFFE0000000000000000
000000000000000FFFFFFFFFFFFE0000000000000000
000000000000000FFFFFFFFFFFFF0000000000000000
000000000000001FFFFFF3FFFFFF0000000000000000
000000000000001FFFFFF3FFFFFF8000000000000000
000000000000003FFFFFE1FFFFFFC000000000000000
000000000000007FFFFFE0FFFFFFC000000000000000
000000000000007FFFFFC0FFFFFFE000000000000000
00000000000000FFFFFF807FFFFFE000000000000000
00000000000000FFFFFF807FFFFFF000000000000000
00000000000001FFFFFF003FFFFFF800000000000000
00000000000003FFFFFF003FFFFFF800000000000000
00000000000003FFFFFE001FFFFFFC00000000000000
00000000000007FFFFFC000FFFFFFC00000000000000
00000000000007FFFFFC000FFFFFFE00000000000000
0000000000000FFFFFF80007FFFFFF00000000000000
0000000000000FFFFFF80007FFFFFF00000000000000
0000000000001FFFFFF00003FFFFFF80000000000000
0000000000003FFFFFF00001FFFFFF80000000000000
0000000000003FFFFFE00001FFFFFFC0000000000000
0000000000007FFFFFC00000FFFFFFE0000000000000
0000000000007FFFFFC00000FFFFFFE0000000000000
000000000000FFFFFF8000007FFFFFF0000000000000
000000000001FFFFFF8000003FFFFFF0000000000000
000000000001FFFFFF0000003FFFFFF8000000000000
000000000003FFFFFE0000001FFFFFFC000000000000
000000000003FFFFFE0000001FFFFFFC000000000000
000000000007FFFFFC0000000FFFFFFE000000000000
00000000000FFFFFFC00000007FFFFFE000000000000
00000000000FFFFFF800000007FFFFFF000000000000
00000000001FFFFFF000000003FFFFFF800000000000
00000000001FFFFFF000000003FFFFFF800000000000
00000000003FFFFFE000000001FFFFFFC00000000000
00000000007FFFFFE000000000FFFFFFC00000000000
00000000007FFFFFC000000000FFFFFFE00000000000
0000000000FFFFFFC0000000007FFFFFF00000000000
0000000000FFFFFF80000000007FFFFFF00000000000
0000000001FFFFFF00000000003FFFFFF80000000000
0000000003FFFFFF00000000003FFFFFF80000000000
0000000003FFFFFE00000000001FFFFFFC0000000000
0000000007FFFFFE00000000000FFFFFFE0000000000
0000000007FFFFFC00000000000FFFFFFE0000000000
000000000FFFFFF8000000000007FFFFFF0000000000
000000001FFFFFF8000000000007FFFFFF0000000000
000000001FFFFFF0000000000003FFFFFF8000000000
000000003FFFFFF0000000000001FFFFFFC000000000
000000003FFFFFE0000000000001FFFFFFC000000000
000000007FFFFFC0000000000000FFFFFFE000000000
00000000FFFFFFC0000000000000FFFFFFE000000000
00000000FFFFFF800000000000007FFFFFF000000000
00000001FFFFFF800000000000003FFFFFF800000000
00000001FFFFFF00003FFFFFFFFFFFFFFFF800000000
00000003FFFFFE00007FFFFFFFFFFFFFFFFC00000000
00000007FFFFFE00007FFFFFFFFFFFFFFFFC00000000
00000007FFFFFC0000FFFFFFFFFFFFFFFFFE00000000
0000000FFFFFFC0000FFFFFFFFFFFFFFFFFF00000000
0000000FFFFFF80001FFFFFFFFFFFFFFFFFF00000000
0000001FFFFFF80003FFFFFFFFFFFFFFFFFF80000000
0000003FFFFFF00003FFFFFFFFFFFFFFFFFF80000000
0000003FFFFFE00007FFFFFFFFFFFFFFFFFFC0000000
0000007FFFFFE00007FFFFFFFFFFFFFFFFFFE0000000
0000007FFFFFC0000FFFFFFFFFFFFFFFFFFFE0000000
000000FFFFFFC0001FFFFFFFFFFFFFFFFFFFF0000000
000001FFFFFF80001FFFFFFFFFFFFFFFFFFFF0000000
000001FFFFFF00003FFFFFFFFFFFFFFFFFFFF8000000
000003FFFFFF00003FFFFFFFFFFFFFFFFFFFFC000000
000003FFFFFE00007FFFFFFFFFFFFFFFFFFFFC000000
000007FFFFFE0000FFFFFFFFFFFFFFFFFFFFFE000000
00000FFFFFFC0000FFFFFFFFFFFFFFFFFFFFFE000000
00000FFFFFF800010000000000000007FFFFFF000000
00001FFFFFF800000000000000000003FFFFFF800000
00001FFFFFF000000000000000000003FFFFFF800000
00003FFFFFF000000000000000000001FFFFFFC00000
00007FFFFFE000000000000000000001FFFFFFC00000
00007FFFFFE000000000000000000000FFFFFFE00000
0000FFFFFFC0000000000000000000007FFFFFF00000
0000FFFFFF80000000000000000000007FFFFFF00000
0001FFFFFF80000000000000000000003FFFFFF80000
0003FFFFFF00000000000000000000003FFFFFF80000
0003FFFFFF00000000000000000000001FFFFFFC0000
0007FFFFFE00000000000000000000001FFFFFFE0000
0007FFFFFC00000000000000000000000FFFFFFE0000
000FFFFFFC000000000000000000000007FFFFFF0000
000FFFFFF8000000000000000000000007FFFFFF0000
001FFFFFF8000000000000000000000003FFFFFF8000
003FFFFFF0000000000000000000000003FFFFFFC000
003FFFFFE0000000000000000000000001FFFFFFC000
007FFFFFE0000000000000000000000000FFFFFFE000
007FFFFFC0000000000000000000000000FFFFFFE000
00FFFFFFC00000000000000000000000007FFFFFF000
01FFFFFF800000000000000000000000007FFFFFF800
01FFFFFF800000000000000000000000003FFFFFF800
03FFFFFF000000000000000000000000001FFFFFFC00
03FFFFFE000000000000000000000000001FFFFFFC00
07FFFFFE000000000000000000000000000FFFFFFE00
0FFFFFFC000000000000000000000000000FFFFFFE00
0FFFFFFC0000000000000000000000000007FFFFFF00
1FFFFFF80000000000000000000000000007FFFFFF80
1FFFFFF00000000000000000000000000003FFFFFF80
3FFFFFF00000000000000000000000000001FFFFFFC0
7FFFFFE00000000000000000000000000001FFFFFFC0
FFFFFFE00000000000000000000000000000FFFFFFE0
ENDCHAR
STARTCHAR B
ENCODING 66
SWIDTH 891 0
DWIDTH 159 0
BBX 139 130 11 0
BITMAP
FFFFFFFFFFFFFFFFFFFFFFFFFE0000000000
FFFFFFFFFFFFFFFFFFFFFFFFFFF800000000
FFFFFFFFFFFFFFFFFFFFFFFFFFFF80000000
FFFFFFFFFFFFFFFFFFFFFFFFFFFFF0000000
FFFFFFFFFFFFFFFFFFFFFFFFFFFFFE000000
FFFFFFFFFFFFFFFFFFFFFFFFFFFFFF800000
FFFFFFFFFFFFFFFFFFFFFFFFFFFFFFC00000
FFFFFFFFFFFFFFFFFFFFFFFFFFFFFFF00000
FFFFFFFFFFFFFFFFFFFFFFFFFFFFFFF80000
FFFFFFFFFFFFFFFFFFFFFFFFFFFFFFFC0000
FFFFFFFFFFFFFFFFFFFFFFFFFFFFFFFF0000
FFFFFFFFFFFFFFFFFFFFFFFFFFFFFFFF8000
FFFFFFFFFFFFFFFFFFFFFFFFFFFFFFFFC000
FFFFFFFFFFFFFFFFFFFFFFFFFFFFFFFFC000
FFFFFFFFFFFFFFFFFFFFFFFFFFFFFFFFE000
FFFFFFFFFFFFFFFFFFFFFFFFFFFFFFFFF000
FFFFFFFFFFFFFFFFFFFFFFFFFFFFFFFFF000
FFFFFFFFFFFFFFFFFFFFFFFFFFFFFFFFF800
FFFFFFFFFFFFFFFFFFFFFFFFFFFFFFFFF800
FFFFFFFFFFFFFFFFFFFFFFFFFFFFFFFFFC00
FFFFFFFFFFFFFFFFFFFFFFFFFFFFFFFFFC00
FFFFFFFFFFFFFFFFFFFFFFFFFFFFFFFFFE00
FFFFFFFFFFFFFFFFFFFFFFFFFFFFFFFFFE00
FFFFFE0000000000000000001FFFFFFFFE00
FFFFFE00000000000000000000FFFFFFFF00
FFFFFE000000000000000000003FFFFFFF00
FFFFFE000000000000000000000FFFFFFF00
FFFFFE0000000000000000000007FFFFFF00
FFFFFE0000000000000000000003FFFFFF00
FFFFFE0000000000000000000001FFFFFF80
FFFFFE0000000000000000000000FFFFFF80
FFFFFE0000000000000000000000FFFFFF80
FFFFFE00000000000000000000007FFFFF80
FFFFFE00000000000000000000007FFFFF80
FFFFFE00000000000000000000007FFFFF80
FFFFFE00000000000000000000003FFFFF80
FFFFFE00000000000000000000003FFFFF80
FFFFFE00000000000000000000003FFFFF80
FFFFFE00000000000000000000003FFFFF00
FFFFFE00000000000000000000003FFFFF00
FFFFFE00000000000000000000003FFFFF00
FFFFFE00000000000000000000003FFFFF00
FFFFFE00000000000000000000007FFFFF00
FFFFFE00000000000000000000007FFFFF00
FFFFFE00000000000000000000007FFFFE00
FFFFFE00000000000000000000007FFFFE00
FFFFFE0000000000000000000000FFFFFE00
FFFFFE0000000000000000000000FFFFFC00
FFFFFE0000000000000000000001FFFFFC00
FFFFFE0000000000000000000003FFFFF800
FFFFFE0000000000000000000007FFFFF800
FFFFFE000000000000000000000FFFFFF000
FFFFFE000000000000000000007FFFFFE000
FFFFFE00000000000000000007FFFFFFC000
FFFFFE0001FFFFFFFFFFFFFFFFFFFFFF8000
FFFFFE0001FFFFFFFFFFFFFFFFFFFFFF0000
FFFFFE0001FFFFFFFFFFFFFFFFFFFFFE0000
FFFFFE0001FFFFFFFFFFFFFFFFFFFFFC0000
FFFFFE0001FFFFFFFFFFFFFFFFFFFFF00000
FFFFFE0001FFFFFFFFFFFFFFFFFFFFE00000
FFFFFE0001FFFFFFFFFFFFFFFFFFFF000000
FFFFFE0001FFFFFFFFFFFFFFFFFFFF000000
FFFFFE0001FFFFFFFFFFFFFFFFFFFFE00000
FFFFFE0001FFFFFFFFFFFFFFFFFFFFF00000
FFFFFE0001FFFFFFFFFFFFFFFFFFFFFC0000
FFFFFE0001FFFFFFFFFFFFFFFFFFFFFE0000
FFFFFE0001FFFFFFFFFFFFFFFFFFFFFF8000
FFFFFE0001FFFFFFFFFFFFFFFFFFFFFFC000
FFFFFE0001FFFFFFFFFFFFFFFFFFFFFFE000
FFFFFE0001FFFFFFFFFFFFFFFFFFFFFFF000
FFFFFE0001FFFFFFFFFFFFFFFFFFFFFFF800
FFFFFE0001FFFFFFFFFFFFFFFFFFFFFFF800
FFFFFE0001FFFFFFFFFFFFFFFFFFFFFFFC00
FFFFFE00000000000000000003FFFFFFFE00
FFFFFE000000000000000000003FFFFFFE00
FFFFFE000000000000000000000FFFFFFF00
FFFFFE0000000000000000000003FFFFFF00
FFFFFE0000000000000000000001FFFFFF80
FFFFFE0000000000000000000000FFFFFF80
FFFFFE00000000000000000000007FFFFF80
FFFFFE00000000000000000000003FFFFFC0
FFFFFE00000000000000000000003FFFFFC0
FFFFFE00000000000000000000001FFFFFC0
FFFFFE00000000000000000000001FFFFFC0
FFFFFE00000000000000000000001FFFFFE0
FFFFFE00000000000000000000000FFFFFE0
FFFFFE00000000000000000000000FFFFFE0
FFFFFE00000000000000000000000FFFFFE0
FFFFFE00000000000000000000000FFFFFE0
FFFFFE00000000000000000000000FFFFFE0
FFFFFE00000000000000000000000FFFFFE0
FFFFFE00000000000000000000000FFFFFE0
FFFFFE00000000000000000000000FFFFFE0
FFFFFE00000000000000000000000FFFFFE0
FFFFFE00000000000000000000000FFFFFE0
FFFFFE00000000000000000000001FFFFFE0
FFFFFE00000000000000000000001FFFFFE0
FFFFFE00000000000000000000003FFFFFE0
FFFFFE00000000000000000000003FFFFFC0
FFFFFE00000000000000000000007FFFFFC0
FFFFFE0000000000000000000000FFFFFFC0
FFFFFE0000000000000000000001FFFFFFC0
FFFFFE0000000000000000000003FFFFFFC0
FFFFFE000000000000000000000FFFFFFF80
FFFFFE000000000000000000003FFFFFFF80
FFFFFE00000000000000000001FFFFFFFF80
FFFFFE0000000000000000001FFFFFFFFF00
FFFFFFFFFFFFFFFFFFFFFFFFFFFFFFFFFF00
FFFFFFFFFFFFFFFFFFFFFFFFFFFFFFFFFE00
FFFFFFFFFFFFFFFFFFFFFFFFFFFFFFFFFE00
FFFFFFFFFFFFFFFFFFFFFFFFFFFFFFFFFC00
FFFFFFFFFFFFFFFFFFFFFFFFFFFFFFFFFC00
FFFFFFFFFFFFFFFFFFFFFFFFFFFFFFFFF800
FFFFFFFFFFFFFFFFFFFFFFFFFFFFFFFFF800
FFFFFFFFFFFFFFFFFFFFFFFFFFFFFFFFF000
FFFFFFFFFFFFFFFFFFFFFFFFFFFFFFFFE000
FFFFFFFFFFFFFFFFFFFFFFFFFFFFFFFFC000
FFFFFFFFFFFFFFFFFFFFFFFFFFFFFFFF8000
FFFFFFFFFFFFFFFFFFFFFFFFFFFFFFFF0000
FFFFFFFFFFFFFFFFFFFFFFFFFFFFFFFE0000
FFFFFFFFFFFFFFFFFFFFFFFFFFFFFFFC0000
FFFFFFFFFFFFFFFFFFFFFFFFFFFFFFF80000
FFFFFFFFFFFFFFFFFFFFFFFFFFFFFFF00000
FFFFFFFFFFFFFFFFFFFFFFFFFFFFFFC00000
FFFFFFFFFFFFFFFFFFFFFFFFFFFFFF800000
FFFFFFFFFFFFFFFFFFFFFFFFFFFFFE000000
FFFFFFFFFFFFFFFFFFFFFFFFFFFFF0000000
FFFFFFFFFFFFFFFFFFFFFFFFFFFFC0000000
FFFFFFFFFFFFFFFFFFFFFFFFFFFC00000000
FFFFFFFFFFFFFFFFFFFFFFFFFF8000000000
ENDCHAR
STARTCHAR C
ENCODING 67
SWIDTH 829 0
DWIDTH 148 0
BBX 133 130 7 0
BITMAP
00000000000001FFFFFFFFFFFFFFFFFFF8
000000000000FFFFFFFFFFFFFFFFFFFFF8
00000000000FFFFFFFFFFFFFFFFFFFFFF8
00000000007FFFFFFFFFFFFFFFFFFFFFF8
0000000003FFFFFFFFFFFFFFFFFFFFFFF8
000000000FFFFFFFFFFFFFFFFFFFFFFFF8
000000003FFFFFFFFFFFFFFFFFFFFFFFF8
00000000FFFFFFFFFFFFFFFFFFFFFFFFF8
00000003FFFFFFFFFFFFFFFFFFFFFFFFF8
0000000FFFFFFFFFFFFFFFFFFFFFFFFFF8
0000001FFFFFFFFFFFFFFFFFFFFFFFFFF8
0000007FFFFFFFFFFFFFFFFFFFFFFFFFF8
000000FFFFFFFFFFFFFFFFFFFFFFFFFFF8
000001FFFFFFFFFFFFFFFFFFFFFFFFFFF8
000003FFFFFFFFFFFFFFFFFFFFFFFFFFF8
00000FFFFFFFFFFFFFFFFFFFFFFFFFFFF8
00001FFFFFFFFFFFFFFFFFFFFFFFFFFFF8
00003FFFFFFFFFFFFFFFFFFFFFFFFFFFF8
00007FFFFFFFFFFFFFFFFFFFFFFFFFFFF8
0000FFFFFFFFFFFFFFFFFFFFFFFFFFFFF8
0001FFFFFFFFFFFFFFFFFFFFFFFFFFFFF8
0001FFFFFFFFFFFFFFFFFFFFFFFFFFFFF8
0003FFFFFFFFFFFFFFFFFFFFFFFFFFFFF8
0007FFFFFFFFFE00000000000000000000
000FFFFFFFFFE000000000000000000000
000FFFFFFFFF0000000000000000000000
001FFFFFFFFC0000000000000000000000
003FFFFFFFF00000000000000000000000
003FFFFFFFC00000000000000000000000
007FFFFFFF000000000000000000000000
00FFFFFFFE000000000000000000000000
00FFFFFFFC000000000000000000000000
01FFFFFFF8000000000000000000000000
01FFFFFFE0000000000000000000000000
03FFFFFFC0000000000000000000000000
03FFFFFFC0000000000000000000000000
03FFFFFF80000000000000000000000000
07FFFFFF00000000000000000000000000
07FFFFFE00000000000000000000000000
0FFFFFFC00000000000000000000000000
0FFFFFFC00000000000000000000000000
0FFFFFF800000000000000000000000000
1FFFFFF800000000000000000000000000
1FFFFFF000000000000000000000000000
1FFFFFF000000000000000000000000000
1FFFFFE000000000000000000000000000
3FFFFFE000000000000000000000000000
3FFFFFC000000000000000000000000000
3FFFFFC000000000000000000000000000
3FFFFF8000000000000000000000000000
3FFFFF8000000000000000000000000000
7FFFFF8000000000000000000000000000
7FFFFF8000000000000000000000000000
7FFFFF0000000000000000000000000000
7FFFFF0000000000000000000000000000
7FFFFF0000000000000000000000000000
7FFFFF0000000000000000000000000000
7FFFFF0000000000000000000000000000
7FFFFE0000000000000000000000000000
7FFFFE0000000000000000000000000000
7FFFFE0000000000000000000000000000
FFFFFE0000000000000000000000000000
FFFFFE0000000000000000000000000000
FFFFFE0000000000000000000000000000
FFFFFE0000000000000000000000000000
FFFFFE0000000000000000000000000000
7FFFFE0000000000000000000000000000
7FFFFE0000000000000000000000000000
7FFFFE0000000000000000000000000000
7FFFFE0000000000000000000000000000
7FFFFE0000000000000000000000000000
7FFFFF0000000000000000000000000000
7FFFFF0000000000000000000000000000
7FFFFF0000000000000000000000000000
7FFFFF0000000000000000000000000000
7FFFFF0000000000000000000000000000
7FFFFF0000000000000000000000000000
3FFFFF8000000000000000000000000000
3FFFFF8000000000000000000000000000
3FFFFF8000000000000000000000000000
3FFFFFC000000000000000000000000000
1FFFFFC000000000000000000000000000
1FFFFFC000000000000000000000000000
1FFFFFE000000000000000000000000000
1FFFFFE000000000000000000000000000
0FFFFFF000000000000000000000000000
0FFFFFF000000000000000000000000000
0FFFFFF800000000000000000000000000
07FFFFF800000000000000000000000000
07FFFFFC00000000000000000000000000
07FFFFFE00000000000000000000000000
03FFFFFE00000000000000000000000000
03FFFFFF00000000000000000000000000
01FFFFFF80000000000000000000000000
01FFFFFFC0000000000000000000000000
00FFFFFFE0000000000000000000000000
00FFFFFFF0000000000000000000000000
007FFFFFF8000000000000000000000000
007FFFFFFC000000000000000000000000
003FFFFFFE000000000000000000000000
003FFFFFFF800000000000000000000000
001FFFFFFFC00000000000000000000000
000FFFFFFFF00000000000000000000000
000FFFFFFFFC0000000000000000000000
0007FFFFFFFF0000000000000000000000
0003FFFFFFFFE000000000000000000000
0003FFFFFFFFFE00000000000000000000
0001FFFFFFFFFFFFFFFFFFFFFFFFFFFFF8
0000FFFFFFFFFFFFFFFFFFFFFFFFFFFFF8
00007FFFFFFFFFFFFFFFFFFFFFFFFFFFF8
00003FFFFFFFFFFFFFFFFFFFFFFFFFFFF8
00001FFFFFFFFFFFFFFFFFFFFFFFFFFFF8
00000FFFFFFFFFFFFFFFFFFFFFFFFFFFF8
000007FFFFFFFFFFFFFFFFFFFFFFFFFFF8
000003FFFFFFFFFFFFFFFFFFFFFFFFFFF8
000001FFFFFFFFFFFFFFFFFFFFFFFFFFF8
000000FFFFFFFFFFFFFFFFFFFFFFFFFFF8
0000003FFFFFFFFFFFFFFFFFFFFFFFFFF8
0000001FFFFFFFFFFFFFFFFFFFFFFFFFF8
0000000FFFFFFFFFFFFFFFFFFFFFFFFFF8
00000003FFFFFFFFFFFFFFFFFFFFFFFFF8
00000000FFFFFFFFFFFFFFFFFFFFFFFFF8
000000007FFFFFFFFFFFFFFFFFFFFFFFF8
000000001FFFFFFFFFFFFFFFFFFFFFFFF8
0000000007FFFFFFFFFFFFFFFFFFFFFFF8
0000000000FFFFFFFFFFFFFFFFFFFFFFF8
00000000003FFFFFFFFFFFFFFFFFFFFFF8
000000000007FFFFFFFFFFFFFFFFFFFFF8
0000000000007FFFFFFFFFFFFFFFFFFFF8
00000000000001FFFFFFFFFFFFFFFFFFF8
ENDCHAR
STARTCHAR D
ENCODING 68
SWIDTH 879 0
DWIDTH 156 0
BBX 138 130 11 0
BITMAP
FFFFFFFFFFFFFFFFFFFFF000000000000000
FFFFFFFFFFFFFFFFFFFFFFC0000000000000
FFFFFFFFFFFFFFFFFFFFFFFC000000000000
FFFFFFFFFFFFFFFFFFFFFFFF800000000000
FFFFFFFFFFFFFFFFFFFFFFFFF00000000000
FFFFFFFFFFFFFFFFFFFFFFFFFC0000000000
FFFFFFFFFFFFFFFFFFFFFFFFFF8000000000
FFFFFFFFFFFFFFFFFFFFFFFFFFE000000000
FFFFFFFFFFFFFFFFFFFFFFFFFFF000000000
FFFFFFFFFFFFFFFFFFFFFFFFFFFC00000000
FFFFFFFFFFFFFFFFFFFFFFFFFFFF00000000
FFFFFFFFFFFFFFFFFFFFFFFFFFFF80000000
FFFFFFFFFFFFFFFFFFFFFFFFFFFFC0000000
FFFFFFFFFFFFFFFFFFFFFFFFFFFFF0000000
FFFFFFFFFFFFFFFFFFFFFFFFFFFFF8000000
FFFFFFFFFFFFFFFFFFFFFFFFFFFFFC000000
FFFFFFFFFFFFFFFFFFFFFFFFFFFFFE000000
FFFFFFFFFFFFFFFFFFFFFFFFFFFFFF000000
FFFFFFFFFFFFFFFFFFFFFFFFFFFFFF800000
FFFFFFFFFFFFFFFFFFFFFFFFFFFFFFC00000
FFFFFFFFFFFFFFFFFFFFFFFFFFFFFFE00000
FFFFFFFFFFFFFFFFFFFFFFFFFFFFFFF00000
FFFFFFFFFFFFFFFFFFFFFFFFFFFFFFF80000
FFFFFE000000000000001FFFFFFFFFF80000
FFFFFE0000000000000001FFFFFFFFFC0000
FFFFFE00000000000000003FFFFFFFFE0000
FFFFFE000000000000000007FFFFFFFF0000
FFFFFE000000000000000001FFFFFFFF0000
FFFFFE000000000000000000FFFFFFFF8000
FFFFFE0000000000000000003FFFFFFF8000
FFFFFE0000000000000000001FFFFFFFC000
FFFFFE00000000000000000007FFFFFFC000
FFFFFE00000000000000000003FFFFFFE000
FFFFFE00000000000000000001FFFFFFF000
FFFFFE00000000000000000000FFFFFFF000
FFFFFE000000000000000000007FFFFFF000
FFFFFE000000000000000000003FFFFFF800
FFFFFE000000000000000000001FFFFFF800
FFFFFE000000000000000000001FFFFFFC00
FFFFFE000000000000000000000FFFFFFC00
FFFFFE0000000000000000000007FFFFFC00
FFFFFE0000000000000000000007FFFFFE00
FFFFFE0000000000000000000003FFFFFE00
FFFFFE0000000000000000000001FFFFFE00
FFFFFE0000000000000000000001FFFFFF00
FFFFFE0000000000000000000000FFFFFF00
FFFFFE0000000000000000000000FFFFFF00
FFFFFE0000000000000000000000FFFFFF00
FFFFFE00000000000000000000007FFFFF80
FFFFFE00000000000000000000007FFFFF80
FFFFFE00000000000000000000007FFFFF80
FFFFFE00000000000000000000003FFFFF80
FFFFFE00000000000000000000003FFFFF80
FFFFFE00000000000000000000003FFFFF80
FFFFFE00000000000000000000003FFFFFC0
FFFFFE00000000000000000000001FFFFFC0
FFFFFE00000000000000000000001FFFFFC0
FFFFFE00000000000000000000001FFFFFC0
FFFFFE00000000000000000000001FFFFFC0
FFFFFE00000000000000000000001FFFFFC0
FFFFFE00000000000000000000001FFFFFC0
FFFFFE00000000000000000000001FFFFFC0
FFFFFE00000000000000000000001FFFFFC0
FFFFFE00000000000000000000000FFFFFC0
FFFFFE00000000000000000000000FFFFFC0
FFFFFE00000000000000000000000FFFFFC0
FFFFFE00000000000000000000001FFFFFC0
FFFFFE00000000000000000000001FFFFFC0
FFFFFE00000000000000000000001FFFFFC0
FFFFFE00000000000000000000001FFFFFC0
FFFFFE00000000000000000000001FFFFFC0
FFFFFE00000000000000000000001FFFFFC0
FFFFFE00000000000000000000001FFFFFC0
FFFFFE00000000000000000000001FFFFFC0
FFFFFE00000000000000000000001FFFFF80
FFFFFE00000000000000000000003FFFFF80
FFFFFE00000000000000000000003FFFFF80
FFFFFE00000000000000000000003FFFFF80
FFFFFE00000000000000000000003FFFFF80
FFFFFE00000000000000000000007FFFFF80
FFFFFE00000000000000000000007FFFFF00
FFFFFE00000000000000000000007FFFFF00
FFFFFE0000000000000000000000FFFFFF00
FFFFFE0000000000000000000000FFFFFF00
FFFFFE0000000000000000000001FFFFFE00
FFFFFE0000000000000000000001FFFFFE00
FFFFFE0000000000000000000003FFFFFE00
FFFFFE0000000000000000000003FFFFFC00
FFFFFE0000000000000000000007FFFFFC00
FFFFFE0000000000000000000007FFFFFC00
FFFFFE000000000000000000000FFFFFF800
FFFFFE000000000000000000001FFFFFF800
FFFFFE000000000000000000003FFFFFF000
FFFFFE000000000000000000003FFFFFF000
FFFFFE000000000000000000007FFFFFE000
FFFFFE00000000000000000000FFFFFFE000
FFFFFE00000000000000000001FFFFFFE000
FFFFFE00000000000000000003FFFFFFC000
FFFFFE0000000000000000000FFFFFFF8000
FFFFFE0000000000000000001FFFFFFF8000
FFFFFE0000000000000000003FFFFFFF0000
FFFFFE000000000000000000FFFFFFFF0000
FFFFFE000000000000000003FFFFFFFE0000
FFFFFE000000000000000007FFFFFFFC0000
FFFFFE00000000000000003FFFFFFFFC0000
FFFFFE0000000000000001FFFFFFFFF80000
FFFFFE000000000000000FFFFFFFFFF00000
FFFFFFFFFFFFFFFFFFFFFFFFFFFFFFE00000
FFFFFFFFFFFFFFFFFFFFFFFFFFFFFFE00000
FFFFFFFFFFFFFFFFFFFFFFFFFFFFFFC00000
FFFFFFFFFFFFFFFFFFFFFFFFFFFFFF800000
FFFFFFFFFFFFFFFFFFFFFFFFFFFFFF000000
FFFFFFFFFFFFFFFFFFFFFFFFFFFFFE000000
FFFFFFFFFFFFFFFFFFFFFFFFFFFFFC000000
FFFFFFFFFFFFFFFFFFFFFFFFFFFFF8000000
FFFFFFFFFFFFFFFFFFFFFFFFFFFFF0000000
FFFFFFFFFFFFFFFFFFFFFFFFFFFFC0000000
FFFFFFFFFFFFFFFFFFFFFFFFFFFF80000000
FFFFFFFFFFFFFFFFFFFFFFFFFFFF00000000
FFFFFFFFFFFFFFFFFFFFFFFFFFFC00000000
FFFFFFFFFFFFFFFFFFFFFFFFFFF800000000
FFFFFFFFFFFFFFFFFFFFFFFFFFE000000000
FFFFFFFFFFFFFFFFFFFFFFFFFF8000000000
FFFFFFFFFFFFFFFFFFFFFFFFFE0000000000
FFFFFFFFFFFFFFFFFFFFFFFFF80000000000
FFFFFFFFFFFFFFFFFFFFFFFFE00000000000
FFFFFFFFFFFFFFFFFFFFFFFF000000000000
FFFFFFFFFFFFFFFFFFFFFFF8000000000000
FFFFFFFFFFFFFFFFFFFFFFC0000000000000
FFFFFFFFFFFFFFFFFFFFE000000000000000
ENDCHAR
STARTCHAR E
ENCODING 69
SWIDTH 759 0
DWIDTH 135 0
BBX 116 130 11 0
BITMAP
FFFFFFFFFFFFFFFFFFFFFFFFFFFFF0
FFFFFFFFFFFFFFFFFFFFFFFFFFFFF0
FFFFFFFFFFFFFFFFFFFFFFFFFFFFF0
FFFFFFFFFFFFFFFFFFFFFFFFFFFFF0
FFFFFFFFFFFFFFFFFFFFFFFFFFFFF0
FFFFFFFFFFFFFFFFFFFFFFFFFFFFF0
FFFFFFFFFFFFFFFFFFFFFFFFFFFFF0
FFFFFFFFFFFFFFFFFFFFFFFFFFFFF0
FFFFFFFFFFFFFFFFFFFFFFFFFFFFF0
FFFFFFFFFFFFFFFFFFFFFFFFFFFFF0
FFFFFFFFFFFFFFFFFFFFFFFFFFFFF0
FFFFFFFFFFFFFFFFFFFFFFFFFFFFF0
FFFFFFFFFFFFFFFFFFFFFFFFFFFFF0
FFFFFFFFFFFFFFFFFFFFFFFFFFFFF0
FFFFFFFFFFFFFFFFFFFFFFFFFFFFF0
FFFFFFFFFFFFFFFFFFFFFFFFFFFFF0
FFFFFFFFFFFFFFFFFFFFFFFFFFFFF0
FFFFFFFFFFFFFFFFFFFFFFFFFFFFF0
FFFFFFFFFFFFFFFFFFFFFFFFFFFFF0
FFFFFFFFFFFFFFFFFFFFFFFFFFFFF0
FFFFFFFFFFFFFFFFFFFFFFFFFFFFF0
FFFFFFFFFFFFFFFFFFFFFFFFFFFFF0
FFFFFFFFFFFFFFFFFFFFFFFFFFFFF0
FFFFFE000000000000000000000000
FFFFFE000000000000000000000000
FFFFFE000000000000000000000000
FFFFFE000000000000000000000000
FFFFFE000000000000000000000000
FFFFFE000000000000000000000000
FFFFFE000000000000000000000000
FFFFFE000000000000000000000000
FFFFFE000000000000000000000000
FFFFFE000000000000000000000000
FFFFFE000000000000000000000000
FFFFFE000000000000000000000000
FFFFFE000000000000000000000000
FFFFFE000000000000000000000000
FFFFFE000000000000000000000000
FFFFFE000000000000000000000000
FFFFFE000000000000000000000000
FFFFFE000000000000000000000000
FFFFFE000000000000000000000000
FFFFFE000000000000000000000000
FFFFFE000000000000000000000000
FFFFFE000000000000000000000000
FFFFFE000000000000000000000000
FFFFFE000000000000000000000000
FFFFFE000000000000000000000000
FFFFFE000000000000000000000000
FFFFFE000000000000000000000000
FFFFFE000000000000000000000000
FFFFFE000000000000000000000000
FFFFFE000000000000000000000000
FFFFFE000000000000000000000000
FFFFFE0001FFFFFFFFFFFFFFFFFE00
FFFFFE0001FFFFFFFFFFFFFFFFFE00
FFFFFE0001FFFFFFFFFFFFFFFFFE00
FFFFFE0001FFFFFFFFFFFFFFFFFE00
FFFFFE0001FFFFFFFFFFFFFFFFFE00
FFFFFE0001FFFFFFFFFFFFFFFFFE00
FFFFFE0001FFFFFFFFFFFFFFFFFE00
FFFFFE0001FFFFFFFFFFFFFFFFFE00
FFFFFE0001FFFFFFFFFFFFFFFFFE00
FFFFFE0001FFFFFFFFFFFFFFFFFE00
FFFFFE0001FFFFFFFFFFFFFFFFFE00
FFFFFE0001FFFFFFFFFFFFFFFFFE00
FFFFFE0001FFFFFFFFFFFFFFFFFE00
FFFFFE0001FFFFFFFFFFFFFFFFFE00
FFFFFE0001FFFFFFFFFFFFFFFFFE00
FFFFFE0001FFFFFFFFFFFFFFFFFE00
FFFFFE0001FFFFFFFFFFFFFFFFFE00
FFFFFE0001FFFFFFFFFFFFFFFFFE00
FFFFFE0001FFFFFFFFFFFFFFFFFE00
FFFFFE000000000000000000000000
FFFFFE000000000000000000000000
FFFFFE000000000000000000000000
FFFFFE000000000000000000000000
FFFFFE000000000000000000000000
FFFFFE000000000000000000000000
FFFFFE000000000000000000000000
FFFFFE000000000000000000000000
FFFFFE000000000000000000000000
FFFFFE000000000000000000000000
FFFFFE000000000000000000000000
FFFFFE000000000000000000000000
FFFFFE000000000000000000000000
FFFFFE000000000000000000000000
FFFFFE000000000000000000000000
FFFFFE000000000000000000000000
FFFFFE000000000000000000000000
FFFFFE000000000000000000000000
FFFFFE000000000000000000000000
FFFFFE000000000000000000000000
FFFFFE000000000000000000000000
FFFFFE000000000000000000000000
FFFFFE000000000000000000000000
FFFFFE000000000000000000000000
FFFFFE000000000000000000000000
FFFFFE000000000000000000000000
FFFFFE000000000000000000000000
FFFFFE000000000000000000000000
FFFFFE000000000000000000000000
FFFFFE000000000000000000000000
FFFFFE000000000000000000000000
FFFFFE000000000000000000000000
FFFFFE000000000000000000000000
FFFFFE000000000000000000000000
FFFFFFFFFFFFFFFFFFFFFFFFFFFFF0
FFFFFFFFFFFFFFFFFFFFFFFFFFFFF0
FFFFFFFFFFFFFFFFFFFFFFFFFFFFF0
FFFFFFFFFFFFFFFFFFFFFFFFFFFFF0
FFFFFFFFFFFFFFFFFFFFFFFFFFFFF0
FFFFFFFFFFFFFFFFFFFFFFFFFFFFF0
FFFFFFFFFFFFFFFFFFFFFFFFFFFFF0
FFFFFFFFFFFFFFFFFFFFFFFFFFFFF0
FFFFFFFFFFFFFFFFFFFFFFFFFFFFF0
FFFFFFFFFFFFFFFFFFFFFFFFFFFFF0
FFFFFFFFFFFFFFFFFFFFFFFFFFFFF0
FFFFFFFFFFFFFFFFFFFFFFFFFFFFF0
FFFFFFFFFFFFFFFFFFFFFFFFFFFFF0
FFFFFFFFFFFFFFFFFFFFFFFFFFFFF0
FFFFFFFFFFFFFFFFFFFFFFFFFFFFF0
FFFFFFFFFFFFFFFFFFFFFFFFFFFFF0
FFFFFFFFFFFFFFFFFFFFFFFFFFFFF0
FFFFFFFFFFFFFFFFFFFFFFFFFFFFF0
FFFFFFFFFFFFFFFFFFFFFFFFFFFFF0
FFFFFFFFFFFFFFFFFFFFFFFFFFFFF0
FFFFFFFFFFFFFFFFFFFFFFFFFFFFF0
FFFFFFFFFFFFFFFFFFFFFFFFFFFFF0
FFFFFFFFFFFFFFFFFFFFFFFFFFFFF0
ENDCHAR
STARTCHAR F
ENCODING 70
SWIDTH 705 0
DWIDTH 125 0
BBX 110 130 11 0
BITMAP
FFFFFFFFFFFFFFFFFFFFFFFFFFFC
FFFFFFFFFFFFFFFFFFFFFFFFFFFC
FFFFFFFFFFFFFFFFFFFFFFFFFFFC
FFFFFFFFFFFFFFFFFFFFFFFFFFFC
FFFFFFFFFFFFFFFFFFFFFFFFFFFC
FFFFFFFFFFFFFFFFFFFFFFFFFFFC
FFFFFFFFFFFFFFFFFFFFFFFFFFFC
FFFFFFFFFFFFFFFFFFFFFFFFFFFC
FFFFFFFFFFFFFFFFFFFFFFFFFFFC
FFFFFFFFFFFFFFFFFFFFFFFFFFFC
FFFFFFFFFFFFFFFFFFFFFFFFFFFC
FFFFFFFFFFFFFFFFFFFFFFFFFFFC
FFFFFFFFFFFFFFFFFFFFFFFFFFFC
FFFFFFFFFFFFFFFFFFFFFFFFFFFC
FFFFFFFFFFFFFFFFFFFFFFFFFFFC
FFFFFFFFFFFFFFFFFFFFFFFFFFFC
FFFFFFFFFFFFFFFFFFFFFFFFFFFC
FFFFFFFFFFFFFFFFFFFFFFFFFFFC
FFFFFFFFFFFFFFFFFFFFFFFFFFFC
FFFFFFFFFFFFFFFFFFFFFFFFFFFC
FFFFFFFFFFFFFFFFFFFFFFFFFFFC
FFFFFFFFFFFFFFFFFFFFFFFFFFFC
FFFFFFFFFFFFFFFFFFFFFFFFFFFC
FFFFFE0000000000000000000000
FFFFFE0000000000000000000000
FFFFFE0000000000000000000000
FFFFFE0000000000000000000000
FFFFFE0000000000000000000000
FFFFFE0000000000000000000000
FFFFFE0000000000000000000000
FFFFFE0000000000000000000000
FFFFFE0000000000000000000000
FFFFFE0000000000000000000000
FFFFFE0000000000000000000000
FFFFFE0000000000000000000000
FFFFFE0000000000000000000000
FFFFFE0000000000000000000000
FFFFFE0000000000000000000000
FFFFFE0000000000000000000000
FFFFFE0000000000000000000000
FFFFFE0000000000000000000000
FFFFFE0000000000000000000000
FFFFFE0000000000000000000000
FFFFFE0000000000000000000000
FFFFFE0000000000000000000000
FFFFFE0000000000000000000000
FFFFFE0000000000000000000000
FFFFFE0000000000000000000000
FFFFFE0000000000000000000000
FFFFFE0000000000000000000000
FFFFFE0000000000000000000000
FFFFFE0000000000000000000000
FFFFFE0000000000000000000000
FFFFFE0000000000000000000000
FFFFFE0000000000000000000000
FFFFFE0000000000000000000000
FFFFFE0001FFFFFFFFFFFFFFFF80
FFFFFE0001FFFFFFFFFFFFFFFF80
FFFFFE0001FFFFFFFFFFFFFFFF80
FFFFFE0001FFFFFFFFFFFFFFFF80
FFFFFE0001FFFFFFFFFFFFFFFF80
FFFFFE0001FFFFFFFFFFFFFFFF80
FFFFFE0001FFFFFFFFFFFFFFFF80
FFFFFE0001FFFFFFFFFFFFFFFF80
FFFFFE0001FFFFFFFFFFFFFFFF80
FFFFFE0001FFFFFFFFFFFFFFFF80
FFFFFE0001FFFFFFFFFFFFFFFF80
FFFFFE0001FFFFFFFFFFFFFFFF80
FFFFFE0001FFFFFFFFFFFFFFFF80
FFFFFE0001FFFFFFFFFFFFFFFF80
FFFFFE0001FFFFFFFFFFFFFFFF80
FFFFFE0001FFFFFFFFFFFFFFFF80
FFFFFE0001FFFFFFFFFFFFFFFF80
FFFFFE0001FFFFFFFFFFFFFFFF80
FFFFFE0001FFFFFFFFFFFFFFFF80
FFFFFE0001FFFFFFFFFFFFFFFF80
FFFFFE0000000000000000000000
FFFFFE0000000000000000000000
FFFFFE0000000000000000000000
FFFFFE0000000000000000000000
FFFFFE0000000000000000000000
FFFFFE0000000000000000000000
FFFFFE0000000000000000000000
FFFFFE0000000000000000000000
FFFFFE0000000000000000000000
FFFFFE0000000000000000000000
FFFFFE0000000000000000000000
FFFFFE0000000000000000000000
FFFFFE0000000000000000000000
FFFFFE0000000000000000000000
FFFFFE0000000000000000000000
FFFFFE0000000000000000000000
FFFFFE0000000000000000000000
FFFFFE0000000000000000000000
FFFFFE0000000000000000000000
FFFFFE0000000000000000000000
FFFFFE0000000000000000000000
FFFFFE0000000000000000000000
FFFFFE0000000000000000000000
FFFFFE0000000000000000000000
FFFFFE0000000000000000000000
FFFFFE0000000000000000000000
FFFFFE0000000000000000000000
FFFFFE0000000000000000000000
FFFFFE0000000000000000000000
FFFFFE0000000000000000000000
FFFFFE0000000000000000000000
FFFFFE0000000000000000000000
FFFFFE0000000000000000000000
FFFFFE0000000000000000000000
FFFFFE0000000000000000000000
FFFFFE0000000000000000000000
FFFFFE0000000000000000000000
FFFFFE0000000000000000000000
FFFFFE0000000000000000000000
FFFFFE0000000000000000000000
FFFFFE0000000000000000000000
FFFFFE0000000000000000000000
FFFFFE0000000000000000000000
FFFFFE0000000000000000000000
FFFFFE0000000000000000000000
FFFFFE0000000000000000000000
FFFFFE0000000000000000000000
FFFFFE0000000000000000000000
FFFFFE0000000000000000000000
FFFFFE0000000000000000000000
FFFFFE0000000000000000000000
FFFFFE0000000000000000000000
FFFFFE0000000000000000000000
FFFFFE0000000000000000000000
ENDCHAR
STARTCHAR G
ENCODING 71
SWIDTH 888 0
DWIDTH 158 0
BBX 141 130 7 0
BITMAP
00000000000001FFFFFFFFFFFFFFFFFFF800
000000000000FFFFFFFFFFFFFFFFFFFFF800
00000000000FFFFFFFFFFFFFFFFFFFFFF800
00000000007FFFFFFFFFFFFFFFFFFFFFF800
0000000003FFFFFFFFFFFFFFFFFFFFFFF800
000000000FFFFFFFFFFFFFFFFFFFFFFFF800
000000003FFFFFFFFFFFFFFFFFFFFFFFF800
00000000FFFFFFFFFFFFFFFFFFFFFFFFF800
00000003FFFFFFFFFFFFFFFFFFFFFFFFF800
0000000FFFFFFFFFFFFFFFFFFFFFFFFFF800
0000001FFFFFFFFFFFFFFFFFFFFFFFFFF800
0000007FFFFFFFFFFFFFFFFFFFFFFFFFF800
000000FFFFFFFFFFFFFFFFFFFFFFFFFFF800
000001FFFFFFFFFFFFFFFFFFFFFFFFFFF800
000003FFFFFFFFFFFFFFFFFFFFFFFFFFF800
00000FFFFFFFFFFFFFFFFFFFFFFFFFFFF800
00001FFFFFFFFFFFFFFFFFFFFFFFFFFFF800
00003FFFFFFFFFFFFFFFFFFFFFFFFFFFF800
00007FFFFFFFFFFFFFFFFFFFFFFFFFFFF800
0000FFFFFFFFFFFFFFFFFFFFFFFFFFFFF800
0001FFFFFFFFFFFFFFFFFFFFFFFFFFFFF800
0001FFFFFFFFFFFFFFFFFFFFFFFFFFFFF800
0003FFFFFFFFFFFFFFFFFFFFFFFFFFFFF800
0007FFFFFFFFFE0000000000000000000000
000FFFFFFFFFE00000000000000000000000
000FFFFFFFFF000000000000000000000000
001FFFFFFFFC000000000000000000000000
003FFFFFFFF0000000000000000000000000
003FFFFFFFC0000000000000000000000000
007FFFFFFF00000000000000000000000000
00FFFFFFFE00000000000000000000000000
00FFFFFFFC00000000000000000000000000
01FFFFFFF800000000000000000000000000
01FFFFFFE000000000000000000000000000
03FFFFFFC000000000000000000000000000
03FFFFFFC000000000000000000000000000
03FFFFFF8000000000000000000000000000
07FFFFFF0000000000000000000000000000
07FFFFFE0000000000000000000000000000
0FFFFFFC0000000000000000000000000000
0FFFFFFC0000000000000000000000000000
0FFFFFF80000000000000000000000000000
1FFFFFF80000000000000000000000000000
1FFFFFF00000000000000000000000000000
1FFFFFF00000000000000000000000000000
1FFFFFE00000000000000000000000000000
3FFFFFE00000000000000000000000000000
3FFFFFC00000000000000000000000000000
3FFFFFC00000000000000000000000000000
3FFFFF800000000000000000000000000000
3FFFFF800000000000000000000000000000
7FFFFF800000000000000000000000000000
7FFFFF800000000000000000000000000000
7FFFFF000000000000000000000000000000
7FFFFF000000000FFFFFFFFFFFFFFFFFFFF8
7FFFFF000000000FFFFFFFFFFFFFFFFFFFF8
7FFFFF000000000FFFFFFFFFFFFFFFFFFFF8
7FFFFF000000000FFFFFFFFFFFFFFFFFFFF8
7FFFFE000000000FFFFFFFFFFFFFFFFFFFF8
7FFFFE000000000FFFFFFFFFFFFFFFFFFFF8
7FFFFE000000000FFFFFFFFFFFFFFFFFFFF8
FFFFFE000000000FFFFFFFFFFFFFFFFFFFF8
FFFFFE000000000FFFFFFFFFFFFFFFFFFFF8
FFFFFE000000000FFFFFFFFFFFFFFFFFFFF8
FFFFFE000000000FFFFFFFFFFFFFFFFFFFF8
FFFFFE000000000FFFFFFFFFFFFFFFFFFFF8
7FFFFE000000000FFFFFFFFFFFFFFFFFFFF8
7FFFFE000000000FFFFFFFFFFFFFFFFFFFF8
7FFFFE000000000FFFFFFFFFFFFFFFFFFFF8
7FFFFE000000000FFFFFFFFFFFFFFFFFFFF8
7FFFFE000000000FFFFFFFFFFFFFFFFFFFF8
7FFFFF000000000FFFFFFFFFFFFFFFFFFFF8
7FFFFF000000000FFFFFFFFFFFFFFFFFFFF8
7FFFFF000000000000000000000001FFFFF8
7FFFFF000000000000000000000001FFFFF8
7FFFFF000000000000000000000001FFFFF8
7FFFFF000000000000000000000001FFFFF8
3FFFFF800000000000000000000001FFFFF8
3FFFFF800000000000000000000001FFFFF8
3FFFFF800000000000000000000001FFFFF8
3FFFFFC00000000000000000000001FFFFF8
1FFFFFC00000000000000000000001FFFFF8
1FFFFFC00000000000000000000001FFFFF8
1FFFFFE00000000000000000000001FFFFF8
1FFFFFE00000000000000000000001FFFFF8
0FFFFFF00000000000000000000001FFFFF8
0FFFFFF00000000000000000000001FFFFF8
0FFFFFF80000000000000000000001FFFFF8
07FFFFF80000000000000000000001FFFFF8
07FFFFFC0000000000000000000001FFFFF8
07FFFFFE0000000000000000000001FFFFF8
03FFFFFE0000000000000000000001FFFFF8
03FFFFFF0000000000000000000001FFFFF8
01FFFFFF8000000000000000000001FFFFF8
01FFFFFFC000000000000000000001FFFFF8
00FFFFFFE000000000000000000001FFFFF8
00FFFFFFF000000000000000000001FFFFF8
007FFFFFF800000000000000000001FFFFF8
007FFFFFFC00000000000000000001FFFFF8
003FFFFFFE00000000000000000001FFFFF8
003FFFFFFF80000000000000000001FFFFF8
001FFFFFFFC0000000000000000001FFFFF8
000FFFFFFFF0000000000000000001FFFFF8
000FFFFFFFFC000000000000000001FFFFF8
0007FFFFFFFF000000000000000001FFFFF8
0003FFFFFFFFE00000000000000001FFFFF8
0003FFFFFFFFFE0000000000000001FFFFF8
0001FFFFFFFFFFFFFFFFFFFFFFFFFFFFFFF8
0000FFFFFFFFFFFFFFFFFFFFFFFFFFFFFFF8
00007FFFFFFFFFFFFFFFFFFFFFFFFFFFFFF8
00003FFFFFFFFFFFFFFFFFFFFFFFFFFFFFF8
00001FFFFFFFFFFFFFFFFFFFFFFFFFFFFFF8
00000FFFFFFFFFFFFFFFFFFFFFFFFFFFFFF8
000007FFFFFFFFFFFFFFFFFFFFFFFFFFFFF8
000003FFFFFFFFFFFFFFFFFFFFFFFFFFFFF8
000001FFFFFFFFFFFFFFFFFFFFFFFFFFFFF8
000000FFFFFFFFFFFFFFFFFFFFFFFFFFFFF8
0000003FFFFFFFFFFFFFFFFFFFFFFFFFFFF8
0000001FFFFFFFFFFFFFFFFFFFFFFFFFFFF8
0000000FFFFFFFFFFFFFFFFFFFFFFFFFFFF8
00000003FFFFFFFFFFFFFFFFFFFFFFFFFFF8
00000000FFFFFFFFFFFFFFFFFFFFFFFFFFF8
000000007FFFFFFFFFFFFFFFFFFFFFFFFFF8
000000001FFFFFFFFFFFFFFFFFFFFFFFFFF8
0000000007FFFFFFFFFFFFFFFFFFFFFFFFF8
0000000000FFFFFFFFFFFFFFFFFFFFFFFFF8
00000000003FFFFFFFFFFFFFFFFFFFFFFFF8
000000000007FFFFFFFFFFFFFFFFFFFFFFF8
0000000000007FFFFFFFFFFFFFFFFFFFFFF8
00000000000001FFFFFFFFFFFFFFFFFFFFF8
ENDCHAR
STARTCHAR H
ENCODING 72
SWIDTH 838 0
DWIDTH 149 0
BBX 127 130 11 0
BITMAP
FFFFFE00000000000000000000FFFFFE
FFFFFE00000000000000000000FFFFFE
FFFFFE00000000000000000000FFFFFE
FFFFFE00000000000000000000FFFFFE
FFFFFE00000000000000000000FFFFFE
FFFFFE00000000000000000000FFFFFE
FFFFFE00000000000000000000FFFFFE
FFFFFE00000000000000000000FFFFFE
FFFFFE00000000000000000000FFFFFE
FFFFFE00000000000000000000FFFFFE
FFFFFE00000000000000000000FFFFFE
FFFFFE00000000000000000000FFFFFE
FFFFFE00000000000000000000FFFFFE
FFFFFE00000000000000000000FFFFFE
FFFFFE00000000000000000000FFFFFE
FFFFFE00000000000000000000FFFFFE
FFFFFE00000000000000000000FFFFFE
FFFFFE00000000000000000000FFFFFE
FFFFFE00000000000000000000FFFFFE
FFFFFE00000000000000000000FFFFFE
FFFFFE00000000000000000000FFFFFE
FFFFFE00000000000000000000FFFFFE
FFFFFE00000000000000000000FFFFFE
FFFFFE00000000000000000000FFFFFE
FFFFFE00000000000000000000FFFFFE
FFFFFE00000000000000000000FFFFFE
FFFFFE00000000000000000000FFFFFE
FFFFFE00000000000000000000FFFFFE
FFFFFE00000000000000000000FFFFFE
FFFFFE00000000000000000000FFFFFE
FFFFFE00000000000000000000FFFFFE
FFFFFE00000000000000000000FFFFFE
FFFFFE00000000000000000000FFFFFE
FFFFFE00000000000000000000FFFFFE
FFFFFE00000000000000000000FFFFFE
FFFFFE00000000000000000000FFFFFE
FFFFFE00000000000000000000FFFFFE
FFFFFE00000000000000000000FFFFFE
FFFFFE00000000000000000000FFFFFE
FFFFFE00000000000000000000FFFFFE
FFFFFE00000000000000000000FFFFFE
FFFFFE00000000000000000000FFFFFE
FFFFFE00000000000000000000FFFFFE
FFFFFE00000000000000000000FFFFFE
FFFFFE00000000000000000000FFFFFE
FFFFFE00000000000000000000FFFFFE
FFFFFE00000000000000000000FFFFFE
FFFFFE00000000000000000000FFFFFE
FFFFFE00000000000000000000FFFFFE
FFFFFE00000000000000000000FFFFFE
FFFFFE00000000000000000000FFFFFE
FFFFFE00000000000000000000FFFFFE
FFFFFE00000000000000000000FFFFFE
FFFFFE0001FFFFFFFFFFFFFFFFFFFFFE
FFFFFE0001FFFFFFFFFFFFFFFFFFFFFE
FFFFFE0001FFFFFFFFFFFFFFFFFFFFFE
FFFFFE0001FFFFFFFFFFFFFFFFFFFFFE
FFFFFE0001FFFFFFFFFFFFFFFFFFFFFE
FFFFFE0001FFFFFFFFFFFFFFFFFFFFFE
FFFFFE0001FFFFFFFFFFFFFFFFFFFFFE
FFFFFE0001FFFFFFFFFFFFFFFFFFFFFE
FFFFFE0001FFFFFFFFFFFFFFFFFFFFFE
FFFFFE0001FFFFFFFFFFFFFFFFFFFFFE
FFFFFE0001FFFFFFFFFFFFFFFFFFFFFE
FFFFFE0001FFFFFFFFFFFFFFFFFFFFFE
FFFFFE0001FFFFFFFFFFFFFFFFFFFFFE
FFFFFE0001FFFFFFFFFFFFFFFFFFFFFE
FFFFFE0001FFFFFFFFFFFFFFFFFFFFFE
FFFFFE0001FFFFFFFFFFFFFFFFFFFFFE
FFFFFE0001FFFFFFFFFFFFFFFFFFFFFE
FFFFFE0001FFFFFFFFFFFFFFFFFFFFFE
FFFFFE0001FFFFFFFFFFFFFFFFFFFFFE
FFFFFE0001FFFFFFFFFFFFFFFFFFFFFE
FFFFFE00000000000000000000FFFFFE
FFFFFE00000000000000000000FFFFFE
FFFFFE00000000000000000000FFFFFE
FFFFFE00000000000000000000FFFFFE
FFFFFE00000000000000000000FFFFFE
FFFFFE00000000000000000000FFFFFE
FFFFFE00000000000000000000FFFFFE
FFFFFE00000000000000000000FFFFFE
FFFFFE00000000000000000000FFFFFE
FFFFFE00000000000000000000FFFFFE
FFFFFE00000000000000000000FFFFFE
FFFFFE00000000000000000000FFFFFE
FFFFFE00000000000000000000FFFFFE
FFFFFE00000000000000000000FFFFFE
FFFFFE00000000000000000000FFFFFE
FFFFFE00000000000000000000FFFFFE
FFFFFE00000000000000000000FFFFFE
FFFFFE00000000000000000000FFFFFE
FFFFFE00000000000000000000FFFFFE
FFFFFE00000000000000000000FFFFFE
FFFFFE00000000000000000000FFFFFE
FFFFFE00000000000000000000FFFFFE
FFFFFE00000000000000000000FFFFFE
FFFFFE00000000000000000000FFFFFE
FFFFFE00000000000000000000FFFFFE
FFFFFE00000000000000000000FFFFFE
FFFFFE00000000000000000000FFFFFE
FFFFFE00000000000000000000FFFFFE
FFFFFE00000000000000000000FFFFFE
FFFFFE00000000000000000000FFFFFE
FFFFFE00000000000000000000FFFFFE
FFFFFE00000000000000000000FFFFFE
FFFFFE00000000000000000000FFFFFE
FFFFFE00000000000000000000FFFFFE
FFFFFE00000000000000000000FFFFFE
FFFFFE00000000000000000000FFFFFE
FFFFFE00000000000000000000FFFFFE
FFFFFE00000000000000000000FFFFFE
FFFFFE00000000000000000000FFFFFE
FFFFFE00000000000000000000FFFFFE
FFFFFE00000000000000000000FFFFFE
FFFFFE00000000000000000000FFFFFE
FFFFFE00000000000000000000FFFFFE
FFFFFE00000000000000000000FFFFFE
FFFFFE00000000000000000000FFFFFE
FFFFFE00000000000000000000FFFFFE
FFFFFE00000000000000000000FFFFFE
FFFFFE00000000000000000000FFFFFE
FFFFFE00000000000000000000FFFFFE
FFFFFE00000000000000000000FFFFFE
FFFFFE00000000000000000000FFFFFE
FFFFFE00000000000000000000FFFFFE
FFFFFE00000000000000000000FFFFFE
FFFFFE00000000000000000000FFFFFE
FFFFFE00000000000000000000FFFFFE
FFFFFE00000000000000000000FFFFFE
FFFFFE00000000000000000000FFFFFE
ENDCHAR
STARTCHAR I
ENCODING 73
SWIDTH 267 0
DWIDTH 48 0
BBX 23 130 12 0
BITMAP
FFFFFE
FFFFFE
FFFFFE
FFFFFE
FFFFFE
FFFFFE
FFFFFE
FFFFFE
FFFFFE
FFFFFE
FFFFFE
FFFFFE
FFFFFE
FFFFFE
FFFFFE
FFFFFE
FFFFFE
FFFFFE
FFFFFE
FFFFFE
FFFFFE
FFFFFE
FFFFFE
FFFFFE
FFFFFE
FFFFFE
FFFFFE
FFFFFE
FFFFFE
FFFFFE
FFFFFE
FFFFFE
FFFFFE
FFFFFE
FFFFFE
FFFFFE
FFFFFE
FFFFFE
FFFFFE
FFFFFE
FFFFFE
FFFFFE
FFFFFE
FFFFFE
FFFFFE
FFFFFE
FFFFFE
FFFFFE
FFFFFE
FFFFFE
FFFFFE
FFFFFE
FFFFFE
FFFFFE
FFFFFE
FFFFFE
FFFFFE
FFFFFE
FFFFFE
FFFFFE
FFFFFE
FFFFFE
FFFFFE
FFFFFE
FFFFFE
FFFFFE
FFFFFE
FFFFFE
FFFFFE
FFFFFE
FFFFFE
FFFFFE
FFFFFE
FFFFFE
FFFFFE
FFFFFE
FFFFFE
FFFFFE
FFFFFE
FFFFFE
FFFFFE
FFFFFE
FFFFFE
FFFFFE
FFFFFE
FFFFFE
FFFFFE
FFFFFE
FFFFFE
FFFFFE
FFFFFE
FFFFFE
FFFFFE
FFFFFE
FFFFFE
FFFFFE
FFFFFE
FFFFFE
FFFFFE
FFFFFE
FFFFFE
FFFFFE
FFFFFE
FFFFFE
FFFFFE
FFFFFE
FFFFFE
FFFFFE
FFFFFE
FFFFFE
FFFFFE
FFFFFE
FFFFFE
FFFFFE
FFFFFE
FFFFFE
FFFFFE
FFFFFE
FFFFFE
FFFFFE
FFFFFE
FFFFFE
FFFFFE
FFFFFE
FFFFFE
FFFFFE
FFFFFE
FFFFFE
FFFFFE
FFFFFE
ENDCHAR
STARTCHAR J
ENCODING 74
SWIDTH 708 0
DWIDTH 126 0
BBX 113 130 4 0
BITMAP
00000000000000000000003FFFFF80
00000000000000000000003FFFFF80
00000000000000000000003FFFFF80
00000000000000000000003FFFFF80
00000000000000000000003FFFFF80
00000000000000000000003FFFFF80
00000000000000000000003FFFFF80
00000000000000000000003FFFFF80
00000000000000000000003FFFFF80
00000000000000000000003FFFFF80
00000000000000000000003FFFFF80
00000000000000000000003FFFFF80
00000000000000000000003FFFFF80
00000000000000000000003FFFFF80
00000000000000000000003FFFFF80
00000000000000000000003FFFFF80
00000000000000000000003FFFFF80
00000000000000000000003FFFFF80
00000000000000000000003FFFFF80
00000000000000000000003FFFFF80
00000000000000000000003FFFFF80
00000000000000000000003FFFFF80
00000000000000000000003FFFFF80
00000000000000000000003FFFFF80
00000000000000000000003FFFFF80
00000000000000000000003FFFFF80
00000000000000000000003FFFFF80
00000000000000000000003FFFFF80
00000000000000000000003FFFFF80
00000000000000000000003FFFFF80
00000000000000000000003FFFFF80
00000000000000000000003FFFFF80
00000000000000000000003FFFFF80
00000000000000000000003FFFFF80
00000000000000000000003FFFFF80
00000000000000000000003FFFFF80
00000000000000000000003FFFFF80
00000000000000000000003FFFFF80
00000000000000000000003FFFFF80
00000000000000000000003FFFFF80
00000000000000000000003FFFFF80
00000000000000000000003FFFFF80
00000000000000000000003FFFFF80
00000000000000000000003FFFFF80
00000000000000000000003FFFFF80
00000000000000000000003FFFFF80
00000000000000000000003FFFFF80
00000000000000000000003FFFFF80
00000000000000000000003FFFFF80
00000000000000000000003FFFFF80
00000000000000000000003FFFFF80
00000000000000000000003FFFFF80
00000000000000000000003FFFFF80
00000000000000000000003FFFFF80
00000000000000000000003FFFFF80
00000000000000000000003FFFFF80
00000000000000000000003FFFFF80
00000000000000000000003FFFFF80
00000000000000000000003FFFFF80
00000000000000000000003FFFFF80
00000000000000000000003FFFFF80
00000000000000000000003FFFFF80
00000000000000000000003FFFFF80
00000000000000000000003FFFFF80
00000000000000000000003FFFFF80
00000000000000000000003FFFFF80
00000000000000000000003FFFFF80
00000000000000000000003FFFFF80
00000000000000000000003FFFFF80
00000000000000000000003FFFFF80
00000000000000000000003FFFFF80
00000000000000000000003FFFFF80
00000000000000000000003FFFFF80
00000000000000000000003FFFFF80
00000000000000000000003FFFFF80
00000000000000000000003FFFFF80
00000000000000000000003FFFFF80
00000000000000000000003FFFFF80
00000000000000000000003FFFFF80
00000000000000000000003FFFFF00
00000000000000000000007FFFFF00
00000000000000000000007FFFFF00
00000000000000000000007FFFFF00
00000000000000000000007FFFFF00
00000000000000000000007FFFFF00
0000000000000000000000FFFFFF00
0000000000000000000000FFFFFF00
0000000000000000000000FFFFFE00
0000000000000000000001FFFFFE00
0000000000000000000001FFFFFE00
0000000000000000000003FFFFFE00
0000000000000000000003FFFFFC00
0000000000000000000007FFFFFC00
0000000000000000000007FFFFFC00
000000000000000000000FFFFFFC00
000000000000000000001FFFFFF800
000000000000000000003FFFFFF800
000000000000000000007FFFFFF800
00000000000000000000FFFFFFF000
00000000000000000001FFFFFFF000
00000000000000000003FFFFFFF000
0000000000000000000FFFFFFFE000
0000000000000000003FFFFFFFE000
000000000000000000FFFFFFFFC000
000000000000000007FFFFFFFFC000
00000000000000003FFFFFFFFF8000
000000000000000FFFFFFFFFFF0000
FFFFFFFFFFFFFFFFFFFFFFFFFF0000
FFFFFFFFFFFFFFFFFFFFFFFFFE0000
FFFFFFFFFFFFFFFFFFFFFFFFFC0000
FFFFFFFFFFFFFFFFFFFFFFFFFC0000
FFFFFFFFFFFFFFFFFFFFFFFFF80000
FFFFFFFFFFFFFFFFFFFFFFFFF00000
FFFFFFFFFFFFFFFFFFFFFFFFE00000
FFFFFFFFFFFFFFFFFFFFFFFFC00000
FFFFFFFFFFFFFFFFFFFFFFFF800000
FFFFFFFFFFFFFFFFFFFFFFFF000000
FFFFFFFFFFFFFFFFFFFFFFFE000000
FFFFFFFFFFFFFFFFFFFFFFFC000000
FFFFFFFFFFFFFFFFFFFFFFF0000000
FFFFFFFFFFFFFFFFFFFFFFC0000000
FFFFFFFFFFFFFFFFFFFFFF80000000
FFFFFFFFFFFFFFFFFFFFFE00000000
FFFFFFFFFFFFFFFFFFFFF800000000
FFFFFFFFFFFFFFFFFFFFC000000000
FFFFFFFFFFFFFFFFFFFF0000000000
FFFFFFFFFFFFFFFFFFF00000000000
FFFFFFFFFFFFFFFFFF800000000000
FFFFFFFFFFFFFFFFE0000000000000
FFFFFFFFFFFFFFE000000000000000
ENDCHAR
STARTCHAR K
ENCODING 75
SWIDTH 875 0
DWIDTH 156 0
BBX 141 130 11 0
BITMAP
FFFFFE00000000000000000001FFFFFFFFE0
FFFFFE00000000000000000003FFFFFFFF80
FFFFFE00000000000000000007FFFFFFFE00
FFFFFE0000000000000000001FFFFFFFFC00
FFFFFE0000000000000000003FFFFFFFF800
FFFFFE0000000000000000007FFFFFFFE000
FFFFFE000000000000000000FFFFFFFFC000
FFFFFE000000000000000003FFFFFFFF8000
FFFFFE000000000000000007FFFFFFFE0000
FFFFFE00000000000000000FFFFFFFFC0000
FFFFFE00000000000000003FFFFFFFF80000
FFFFFE00000000000000007FFFFFFFE00000
FFFFFE0000000000000000FFFFFFFFC00000
FFFFFE0000000000000003FFFFFFFF800000
FFFFFE0000000000000007FFFFFFFE000000
FFFFFE000000000000000FFFFFFFFC000000
FFFFFE000000000000001FFFFFFFF8000000
FFFFFE000000000000007FFFFFFFE0000000
FFFFFE00000000000000FFFFFFFFC0000000
FFFFFE00000000000001FFFFFFFF80000000
FFFFFE00000000000007FFFFFFFE00000000
FFFFFE0000000000000FFFFFFFFC00000000
FFFFFE0000000000001FFFFFFFF800000000
FFFFFE0000000000003FFFFFFFE000000000
FFFFFE000000000000FFFFFFFFC000000000
FFFFFE000000000001FFFFFFFF8000000000
FFFFFE000000000003FFFFFFFE0000000000
FFFFFE00000000000FFFFFFFFC0000000000
FFFFFE00000000001FFFFFFFF80000000000
FFFFFE00000000003FFFFFFFE00000000000
FFFFFE0000000000FFFFFFFFC00000000000
FFFFFE0000000001FFFFFFFF800000000000
FFFFFE0000000003FFFFFFFE000000000000
FFFFFE0000000007FFFFFFFC000000000000
FFFFFE000000001FFFFFFFF8000000000000
FFFFFE000000003FFFFFFFE0000000000000
FFFFFE000000007FFFFFFFC0000000000000
FFFFFE00000001FFFFFFFF80000000000000
FFFFFE00000003FFFFFFFE00000000000000
FFFFFE00000007FFFFFFFC00000000000000
FFFFFE0000000FFFFFFFF800000000000000
FFFFFE0000003FFFFFFFE000000000000000
FFFFFE0000007FFFFFFFC000000000000000
FFFFFE000000FFFFFFFF8000000000000000
FFFFFE000003FFFFFFFE0000000000000000
FFFFFE000007FFFFFFFC0000000000000000
FFFFFE00000FFFFFFFF80000000000000000
FFFFFE00003FFFFFFFE00000000000000000
FFFFFE00007FFFFFFFC00000000000000000
FFFFFE0000FFFFFFFF800000000000000000
FFFFFE0001FFFFFFFE000000000000000000
FFFFFE0007FFFFFFFC000000000000000000
FFFFFE000FFFFFFFF8000000000000000000
FFFFFE001FFFFFFFE0000000000000000000
FFFFFE003FFFFFFFC0000000000000000000
FFFFFE007FFFFFFF80000000000000000000
FFFFFE00FFFFFFFE00000000000000000000
FFFFFE01FFFFFFFC00000000000000000000
FFFFFE01FFFFFFF800000000000000000000
FFFFFE03FFFFFFE000000000000000000000
FFFFFE03FFFFFFC000000000000000000000
FFFFFE03FFFFFF8000000000000000000000
FFFFFE03FFFFFE0000000000000000000000
FFFFFE03FFFFFC0000000000000000000000
FFFFFE03FFFFFE0000000000000000000000
FFFFFE03FFFFFF8000000000000000000000
FFFFFE03FFFFFFC000000000000000000000
FFFFFE03FFFFFFE000000000000000000000
FFFFFE01FFFFFFF800000000000000000000
FFFFFE01FFFFFFFC00000000000000000000
FFFFFE00FFFFFFFE00000000000000000000
FFFFFE007FFFFFFF80000000000000000000
FFFFFE003FFFFFFFC0000000000000000000
FFFFFE001FFFFFFFE0000000000000000000
FFFFFE0007FFFFFFF0000000000000000000
FFFFFE0003FFFFFFFC000000000000000000
FFFFFE0001FFFFFFFE000000000000000000
FFFFFE0000FFFFFFFF000000000000000000
FFFFFE00003FFFFFFFC00000000000000000
FFFFFE00001FFFFFFFE00000000000000000
FFFFFE00000FFFFFFFF00000000000000000
FFFFFE000007FFFFFFFC0000000000000000
FFFFFE000001FFFFFFFE0000000000000000
FFFFFE000000FFFFFFFF0000000000000000
FFFFFE0000007FFFFFFFC000000000000000
FFFFFE0000003FFFFFFFE000000000000000
FFFFFE0000000FFFFFFFF000000000000000
FFFFFE00000007FFFFFFFC00000000000000
FFFFFE00000003FFFFFFFE00000000000000
FFFFFE00000000FFFFFFFF00000000000000
FFFFFE000000007FFFFFFF80000000000000
FFFFFE000000003FFFFFFFE0000000000000
FFFFFE000000001FFFFFFFF0000000000000
FFFFFE0000000007FFFFFFF8000000000000
FFFFFE0000000003FFFFFFFE000000000000
FFFFFE0000000001FFFFFFFF000000000000
FFFFFE0000000000FFFFFFFF800000000000
FFFFFE00000000003FFFFFFFE00000000000
FFFFFE00000000001FFFFFFFF00000000000
FFFFFE00000000000FFFFFFFF80000000000
FFFFFE000000000007FFFFFFFE0000000000
FFFFFE000000000001FFFFFFFF0000000000
FFFFFE000000000000FFFFFFFF8000000000
FFFFFE0000000000007FFFFFFFE000000000
FFFFFE0000000000001FFFFFFFF000000000
FFFFFE0000000000000FFFFFFFF800000000
FFFFFE00000000000007FFFFFFFE00000000
FFFFFE00000000000003FFFFFFFF00000000
FFFFFE00000000000000FFFFFFFF80000000
FFFFFE000000000000007FFFFFFFC0000000
FFFFFE000000000000003FFFFFFFF0000000
FFFFFE000000000000001FFFFFFFF8000000
FFFFFE0000000000000007FFFFFFFC000000
FFFFFE0000000000000003FFFFFFFF000000
FFFFFE0000000000000001FFFFFFFF800000
FFFFFE0000000000000000FFFFFFFFC00000
FFFFFE00000000000000003FFFFFFFF00000
FFFFFE00000000000000001FFFFFFFF80000
FFFFFE00000000000000000FFFFFFFFC0000
FFFFFE000000000000000003FFFFFFFF0000
FFFFFE000000000000000001FFFFFFFF8000
FFFFFE000000000000000000FFFFFFFFC000
FFFFFE0000000000000000007FFFFFFFF000
FFFFFE0000000000000000001FFFFFFFF800
FFFFFE0000000000000000000FFFFFFFFC00
FFFFFE00000000000000000007FFFFFFFE00
FFFFFE00000000000000000003FFFFFFFF80
FFFFFE00000000000000000000FFFFFFFFC0
FFFFFE000000000000000000007FFFFFFFE0
FFFFFE000000000000000000003FFFFFFFF8
ENDCHAR
STARTCHAR L
ENCODING 76
SWIDTH 707 0
DWIDTH 126 0
BBX 110 130 11 0
BITMAP
FFFFFE0000000000000000000000
FFFFFE0000000000000000000000
FFFFFE0000000000000000000000
FFFFFE0000000000000000000000
FFFFFE0000000000000000000000
FFFFFE0000000000000000000000
FFFFFE0000000000000000000000
FFFFFE0000000000000000000000
FFFFFE0000000000000000000000
FFFFFE0000000000000000000000
FFFFFE0000000000000000000000
FFFFFE0000000000000000000000
FFFFFE0000000000000000000000
FFFFFE0000000000000000000000
FFFFFE0000000000000000000000
FFFFFE0000000000000000000000
FFFFFE0000000000000000000000
FFFFFE0000000000000000000000
FFFFFE0000000000000000000000
FFFFFE0000000000000000000000
FFFFFE0000000000000000000000
FFFFFE0000000000000000000000
FFFFFE0000000000000000000000
FFFFFE0000000000000000000000
FFFFFE0000000000000000000000
FFFFFE0000000000000000000000
FFFFFE0000000000000000000000
FFFFFE0000000000000000000000
FFFFFE0000000000000000000000
FFFFFE0000000000000000000000
FFFFFE0000000000000000000000
FFFFFE0000000000000000000000
FFFFFE0000000000000000000000
FFFFFE0000000000000000000000
FFFFFE0000000000000000000000
FFFFFE0000000000000000000000
FFFFFE0000000000000000000000
FFFFFE0000000000000000000000
FFFFFE0000000000000000000000
FFFFFE0000000000000000000000
FFFFFE0000000000000000000000
FFFFFE0000000000000000000000
FFFFFE0000000000000000000000
FFFFFE0000000000000000000000
FFFFFE0000000000000000000000
FFFFFE0000000000000000000000
FFFFFE0000000000000000000000
FFFFFE0000000000000000000000
FFFFFE0000000000000000000000
FFFFFE0000000000000000000000
FFFFFE0000000000000000000000
FFFFFE0000000000000000000000
FFFFFE0000000000000000000000
FFFFFE0000000000000000000000
FFFFFE0000000000000000000000
FFFFFE0000000000000000000000
FFFFFE0000000000000000000000
FFFFFE0000000000000000000000
FFFFFE0000000000000000000000
FFFFFE0000000000000000000000
FFFFFE0000000000000000000000
FFFFFE0000000000000000000000
FFFFFE0000000000000000000000
FFFFFE0000000000000000000000
FFFFFE0000000000000000000000
FFFFFE0000000000000000000000
FFFFFE0000000000000000000000
FFFFFE0000000000000000000000
FFFFFE0000000000000000000000
FFFFFE0000000000000000000000
FFFFFE0000000000000000000000
FFFFFE0000000000000000000000
FFFFFE0000000000000000000000
FFFFFE0000000000000000000000
FFFFFE0000000000000000000000
FFFFFE0000000000000000000000
FFFFFE0000000000000000000000
FFFFFE0000000000000000000000
FFFFFE0000000000000000000000
FFFFFE0000000000000000000000
FFFFFE0000000000000000000000
FFFFFE0000000000000000000000
FFFFFE0000000000000000000000
FFFFFE0000000000000000000000
FFFFFE0000000000000000000000
FFFFFE0000000000000000000000
FFFFFE0000000000000000000000
FFFFFE0000000000000000000000
FFFFFE0000000000000000000000
FFFFFE0000000000000000000000
FFFFFE0000000000000000000000
FFFFFE0000000000000000000000
FFFFFE0000000000000000000000
FFFFFE0000000000000000000000
FFFFFE0000000000000000000000
FFFFFE0000000000000000000000
FFFFFE0000000000000000000000
FFFFFE0000000000000000000000
FFFFFE0000000000000000000000
FFFFFE0000000000000000000000
FFFFFE0000000000000000000000
FFFFFE0000000000000000000000
FFFFFE0000000000000000000000
FFFFFE0000000000000000000000
FFFFFE0000000000000000000000
FFFFFE0000000000000000000000
FFFFFE0000000000000000000000
FFFFFFFFFFFFFFFFFFFFFFFFFFFC
FFFFFFFFFFFFFFFFFFFFFFFFFFFC
FFFFFFFFFFFFFFFFFFFFFFFFFFFC
FFFFFFFFFFFFFFFFFFFFFFFFFFFC
FFFFFFFFFFFFFFFFFFFFFFFFFFFC
FFFFFFFFFFFFFFFFFFFFFFFFFFFC
FFFFFFFFFFFFFFFFFFFFFFFFFFFC
FFFFFFFFFFFFFFFFFFFFFFFFFFFC
FFFFFFFFFFFFFFFFFFFFFFFFFFFC
FFFFFFFFFFFFFFFFFFFFFFFFFFFC
FFFFFFFFFFFFFFFFFFFFFFFFFFFC
FFFFFFFFFFFFFFFFFFFFFFFFFFFC
FFFFFFFFFFFFFFFFFFFFFFFFFFFC
FFFFFFFFFFFFFFFFFFFFFFFFFFFC
FFFFFFFFFFFFFFFFFFFFFFFFFFFC
FFFFFFFFFFFFFFFFFFFFFFFFFFFC
FFFFFFFFFFFFFFFFFFFFFFFFFFFC
FFFFFFFFFFFFFFFFFFFFFFFFFFFC
FFFFFFFFFFFFFFFFFFFFFFFFFFFC
FFFFFFFFFFFFFFFFFFFFFFFFFFFC
FFFFFFFFFFFFFFFFFFFFFFFFFFFC
FFFFFFFFFFFFFFFFFFFFFFFFFFFC
FFFFFFFFFFFFFFFFFFFFFFFFFFFC
ENDCHAR
STARTCHAR M
ENCODING 77
SWIDTH 1115 0
DWIDTH 198 0
BBX 191 132 4 -2
BITMAP
00000000007F000000000000000000000001FC0000000000
0000000001FFE00000000000000000000007FF0000000000
0000000007FFF0000000000000000000001FFFC000000000
000000000FFFF8000000000000000000003FFFE000000000
000000000FFFFC000000000000000000003FFFF000000000
000000001FFFFE000000000000000000007FFFF000000000
000000003FFFFF00000000000000000000FFFFF800000000
000000003FFFFF00000000000000000000FFFFF800000000
000000003FFFFF80000000000000000001FFFFF800000000
000000007FFFFF80000000000000000001FFFFFC00000000
000000007FFFFF80000000000000000001FFFFFC00000000
000000007FFFFFC0000000000000000003FFFFFC00000000
000000007FFFFFC0000000000000000003FFFFFE00000000
00000000FFFFFFE0000000000000000007FFFFFE00000000
00000000FFFFFFE0000000000000000007FFFFFE00000000
00000000FFFFFFF000000000000000000FFFFFFE00000000
00000000FFFFFFF000000000000000000FFFFFFF00000000
00000001FFFFFFF800000000000000000FFFFFFF00000000
00000001FFFFFFF800000000000000001FFFFFFF00000000
00000001FFFFFFF800000000000000001FFFFFFF00000000
00000003FFFFFFFC00000000000000003FFFFFFF80000000
00000003FFFFFFFC00000000000000003FFFFFFF80000000
00000003FFFFFFFE00000000000000007FFFFFFF80000000
00000003FFFFFFFE00000000000000007FFFFFFFC0000000
00000007FFFFFFFF0000000000000000FFFFFFFFC0000000
00000007FFFFFFFF0000000000000000FFFFFFFFC0000000
00000007FFFFFFFF0000000000000000FFFFFFFFC0000000
00000007FFFFFFFF8000000000000001FFFFFFFFE0000000
0000000FFFFFFFFF8000000000000001FFFFFFFFE0000000
0000000FFFFFFFFFC000000000000003FFFFFFFFE0000000
0000000FFFFFFFFFC000000000000003FFFFFFFFE0000000
0000001FFFFFFFFFE000000000000007FFFFFFFFF0000000
0000001FFFFFFFFFE000000000000007FFFFFFFFF0000000
0000001FFFFFFFFFF000000000000007FFFFFFFFF0000000
0000001FFFFFFFFFF00000000000000FFFFFFFFFF8000000
0000003FFFFFFFFFF00000000000000FFFFFFFFFF8000000
0000003FFFFFFFFFF80000000000001FFFFFFFFFF8000000
0000003FFFFFFFFFF80000000000001FFFFFFFFFF8000000
0000007FFFFFFFFFFC0000000000003FFFFFFFFFFC000000
0000007FFFFFFFFFFC0000000000003FFFFFFFFFFC000000
0000007FFFFFFFFFFE0000000000007FFFFEFFFFFC000000
0000007FFFFEFFFFFE0000000000007FFFFEFFFFFC000000
000000FFFFFEFFFFFE0000000000007FFFFEFFFFFE000000
000000FFFFFC7FFFFF000000000000FFFFFC7FFFFE000000
000000FFFFFC7FFFFF000000000000FFFFFC7FFFFE000000
000000FFFFFC3FFFFF800000000001FFFFF87FFFFF000000
000001FFFFFC3FFFFF800000000001FFFFF87FFFFF000000
000001FFFFF81FFFFFC00000000003FFFFF03FFFFF000000
000001FFFFF81FFFFFC00000000003FFFFF03FFFFF000000
000003FFFFF81FFFFFE00000000003FFFFE03FFFFF800000
000003FFFFF00FFFFFE00000000007FFFFE03FFFFF800000
000003FFFFF00FFFFFE00000000007FFFFE01FFFFF800000
000003FFFFF007FFFFF0000000000FFFFFC01FFFFFC00000
000007FFFFF007FFFFF0000000000FFFFFC01FFFFFC00000
000007FFFFE003FFFFF8000000001FFFFF800FFFFFC00000
000007FFFFE003FFFFF8000000001FFFFF800FFFFFC00000
000007FFFFE003FFFFFC000000003FFFFF000FFFFFE00000
00000FFFFFC001FFFFFC000000003FFFFF000FFFFFE00000
00000FFFFFC001FFFFFC000000003FFFFE0007FFFFE00000
00000FFFFFC000FFFFFE000000007FFFFE0007FFFFE00000
00001FFFFFC000FFFFFE000000007FFFFE0007FFFFF00000
00001FFFFF80007FFFFF00000000FFFFFC0007FFFFF00000
00001FFFFF80007FFFFF00000000FFFFFC0003FFFFF00000
00001FFFFF80003FFFFF80000001FFFFF80003FFFFF80000
00003FFFFF80003FFFFF80000001FFFFF80003FFFFF80000
00003FFFFF00003FFFFFC0000003FFFFF00001FFFFF80000
00003FFFFF00001FFFFFC0000003FFFFF00001FFFFF80000
00007FFFFF00001FFFFFC0000003FFFFF00001FFFFFC0000
00007FFFFE00000FFFFFE0000007FFFFE00001FFFFFC0000
00007FFFFE00000FFFFFE0000007FFFFE00000FFFFFC0000
00007FFFFE000007FFFFF000000FFFFFC00000FFFFFC0000
0000FFFFFE000007FFFFF000000FFFFFC00000FFFFFE0000
0000FFFFFC000007FFFFF800001FFFFF800000FFFFFE0000
0000FFFFFC000003FFFFF800001FFFFF8000007FFFFE0000
0000FFFFFC000003FFFFFC00001FFFFF0000007FFFFF0000
0001FFFFFC000001FFFFFC00003FFFFF0000007FFFFF0000
0001FFFFF8000001FFFFFC00003FFFFF0000003FFFFF0000
0001FFFFF8000000FFFFFE00007FFFFE0000003FFFFF0000
0003FFFFF8000000FFFFFE00007FFFFE0000003FFFFF8000
0003FFFFF0000000FFFFFF0000FFFFFC0000003FFFFF8000
0003FFFFF00000007FFFFF0000FFFFFC0000001FFFFF8000
0003FFFFF00000007FFFFF8001FFFFF80000001FFFFF8000
0007FFFFF00000003FFFFF8001FFFFF80000001FFFFFC000
0007FFFFE00000003FFFFF8001FFFFF00000000FFFFFC000
0007FFFFE00000001FFFFFC003FFFFF00000000FFFFFC000
0007FFFFE00000001FFFFFC003FFFFF00000000FFFFFE000
000FFFFFC00000000FFFFFE007FFFFE00000000FFFFFE000
000FFFFFC00000000FFFFFE007FFFFE000000007FFFFE000
000FFFFFC00000000FFFFFF00FFFFFC000000007FFFFE000
001FFFFFC000000007FFFFF00FFFFFC000000007FFFFF000
001FFFFF8000000007FFFFF80FFFFF8000000007FFFFF000
001FFFFF8000000003FFFFF81FFFFF8000000003FFFFF000
001FFFFF8000000003FFFFF81FFFFF8000000003FFFFF000
003FFFFF8000000001FFFFFC3FFFFF0000000003FFFFF800
003FFFFF0000000001FFFFFC3FFFFF0000000001FFFFF800
003FFFFF0000000001FFFFFE7FFFFE0000000001FFFFF800
007FFFFF0000000000FFFFFE7FFFFE0000000001FFFFFC00
007FFFFE0000000000FFFFFFFFFFFC0000000001FFFFFC00
007FFFFE00000000007FFFFFFFFFFC0000000000FFFFFC00
007FFFFE00000000007FFFFFFFFFF80000000000FFFFFC00
00FFFFFE00000000003FFFFFFFFFF80000000000FFFFFE00
00FFFFFC00000000003FFFFFFFFFF80000000000FFFFFE00
00FFFFFC00000000001FFFFFFFFFF000000000007FFFFE00
00FFFFFC00000000001FFFFFFFFFF000000000007FFFFE00
01FFFFFC00000000001FFFFFFFFFE000000000007FFFFF00
01FFFFF800000000000FFFFFFFFFE000000000003FFFFF00
01FFFFF800000000000FFFFFFFFFC000000000003FFFFF00
03FFFFF8000000000007FFFFFFFFC000000000003FFFFF80
03FFFFF0000000000007FFFFFFFFC000000000003FFFFF80
03FFFFF0000000000003FFFFFFFF8000000000001FFFFF80
03FFFFF0000000000003FFFFFFFF8000000000001FFFFF80
07FFFFF0000000000003FFFFFFFF0000000000001FFFFFC0
07FFFFE0000000000001FFFFFFFF0000000000001FFFFFC0
07FFFFE0000000000001FFFFFFFE0000000000000FFFFFC0
07FFFFE0000000000000FFFFFFFE0000000000000FFFFFC0
0FFFFFE0000000000000FFFFFFFC0000000000000FFFFFE0
0FFFFFC00000000000007FFFFFFC00000000000007FFFFE0
0FFFFFC00000000000007FFFFFFC00000000000007FFFFE0
1FFFFFC00000000000003FFFFFF800000000000007FFFFF0
1FFFFF800000000000003FFFFFF800000000000007FFFFF0
1FFFFF800000000000003FFFFFF000000000000003FFFFF0
1FFFFF800000000000001FFFFFF000000000000003FFFFF0
3FFFFF800000000000001FFFFFE000000000000003FFFFF8
3FFFFF000000000000000FFFFFE000000000000001FFFFF8
3FFFFF000000000000000FFFFFC000000000000001FFFFF8
7FFFFF0000000000000007FFFFC000000000000001FFFFF8
7FFFFE0000000000000007FFFF8000000000000001FFFFFC
7FFFFE0000000000000003FFFF0000000000000000FFFFFC
7FFFFE0000000000000001FFFF0000000000000000FFFFFC
FFFFFE0000000000000000FFFE0000000000000000FFFFFE
00000000000000000000007FF80000000000000000000000
00000000000000000000000FE00000000000000000000000
ENDCHAR
STARTCHAR N
ENCODING 78
SWIDTH 873 0
DWIDTH 155 0
BBX 134 130 11 0
BITMAP
00FE000000000000000000000000FFFFFC
07FF800000000000000000000000FFFFFC
0FFFC00000000000000000000000FFFFFC
1FFFF00000000000000000000000FFFFFC
3FFFF80000000000000000000000FFFFFC
7FFFFC0000000000000000000000FFFFFC
7FFFFE0000000000000000000000FFFFFC
7FFFFF0000000000000000000000FFFFFC
FFFFFF8000000000000000000000FFFFFC
FFFFFFC000000000000000000000FFFFFC
FFFFFFE000000000000000000000FFFFFC
FFFFFFF000000000000000000000FFFFFC
FFFFFFF800000000000000000000FFFFFC
FFFFFFFC00000000000000000000FFFFFC
FFFFFFFE00000000000000000000FFFFFC
FFFFFFFF00000000000000000000FFFFFC
FFFFFFFF80000000000000000000FFFFFC
FFFFFFFFC0000000000000000000FFFFFC
FFFFFFFFE0000000000000000000FFFFFC
FFFFFFFFF0000000000000000000FFFFFC
FFFFFFFFF8000000000000000000FFFFFC
FFFFFFFFFC000000000000000000FFFFFC
FFFFFFFFFE000000000000000000FFFFFC
FFFFFFFFFF000000000000000000FFFFFC
FFFFFFFFFF800000000000000000FFFFFC
FFFFFFFFFFC00000000000000000FFFFFC
FFFFFFFFFFE00000000000000000FFFFFC
FFFFFFFFFFF00000000000000000FFFFFC
FFFFFFFFFFF80000000000000000FFFFFC
FFFFFFFFFFFC0000000000000000FFFFFC
FFFFFFFFFFFE0000000000000000FFFFFC
FFFFFFFFFFFF0000000000000000FFFFFC
FFFFFFFFFFFF8000000000000000FFFFFC
FFFFFFFFFFFFC000000000000000FFFFFC
FFFFFFFFFFFFE000000000000000FFFFFC
FFFFFFFFFFFFF000000000000000FFFFFC
FFFFFFFFFFFFF800000000000000FFFFFC
FFFFFBFFFFFFFC00000000000000FFFFFC
FFFFF9FFFFFFFE00000000000000FFFFFC
FFFFF8FFFFFFFF00000000000000FFFFFC
FFFFF87FFFFFFF80000000000000FFFFFC
FFFFF83FFFFFFFC0000000000000FFFFFC
FFFFF81FFFFFFFE0000000000000FFFFFC
FFFFF807FFFFFFF0000000000000FFFFFC
FFFFF803FFFFFFF8000000000000FFFFFC
FFFFF801FFFFFFFC000000000000FFFFFC
FFFFF800FFFFFFFE000000000000FFFFFC
FFFFF8007FFFFFFF000000000000FFFFFC
FFFFF8003FFFFFFF800000000000FFFFFC
FFFFF8001FFFFFFFC00000000000FFFFFC
FFFFF8000FFFFFFFE00000000000FFFFFC
FFFFF80007FFFFFFF00000000000FFFFFC
FFFFF80003FFFFFFF80000000000FFFFFC
FFFFF80001FFFFFFFC0000000000FFFFFC
FFFFF80000FFFFFFFE0000000000FFFFFC
FFFFF800007FFFFFFF8000000000FFFFFC
FFFFF800003FFFFFFFC000000000FFFFFC
FFFFF800001FFFFFFFE000000000FFFFFC
FFFFF800000FFFFFFFF000000000FFFFFC
FFFFF8000007FFFFFFF800000000FFFFFC
FFFFF8000003FFFFFFFC00000000FFFFFC
FFFFF8000001FFFFFFFE00000000FFFFFC
FFFFF8000000FFFFFFFF00000000FFFFFC
FFFFF80000007FFFFFFF80000000FFFFFC
FFFFF80000003FFFFFFFC0000000FFFFFC
FFFFF80000001FFFFFFFE0000000FFFFFC
FFFFF80000000FFFFFFFF0000000FFFFFC
FFFFF800000007FFFFFFF8000000FFFFFC
FFFFF800000003FFFFFFFC000000FFFFFC
FFFFF800000001FFFFFFFE000000FFFFFC
FFFFF800000000FFFFFFFF000000FFFFFC
FFFFF8000000007FFFFFFF800000FFFFFC
FFFFF8000000003FFFFFFFC00000FFFFFC
FFFFF8000000001FFFFFFFE00000FFFFFC
FFFFF8000000000FFFFFFFF00000FFFFFC
FFFFF80000000007FFFFFFF80000FFFFFC
FFFFF80000000003FFFFFFFC0000FFFFFC
FFFFF80000000001FFFFFFFE0000FFFFFC
FFFFF80000000000FFFFFFFF0000FFFFFC
FFFFF800000000007FFFFFFF8000FFFFFC
FFFFF800000000003FFFFFFFC000FFFFFC
FFFFF800000000001FFFFFFFE000FFFFFC
FFFFF800000000000FFFFFFFF000FFFFFC
FFFFF8000000000007FFFFFFF800FFFFFC
FFFFF8000000000003FFFFFFFC00FFFFFC
FFFFF8000000000001FFFFFFFE00FFFFFC
FFFFF8000000000000FFFFFFFF00FFFFFC
FFFFF80000000000003FFFFFFF80FFFFFC
FFFFF80000000000001FFFFFFFC0FFFFFC
FFFFF80000000000000FFFFFFFE0FFFFFC
FFFFF800000000000007FFFFFFF0FFFFFC
FFFFF800000000000003FFFFFFF8FFFFFC
FFFFF800000000000001FFFFFFFCFFFFFC
FFFFF800000000000000FFFFFFFEFFFFFC
FFFFF8000000000000007FFFFFFFFFFFFC
FFFFF8000000000000003FFFFFFFFFFFFC
FFFFF8000000000000001FFFFFFFFFFFFC
FFFFF8000000000000000FFFFFFFFFFFFC
FFFFF80000000000000007FFFFFFFFFFFC
FFFFF80000000000000003FFFFFFFFFFFC
FFFFF80000000000000001FFFFFFFFFFFC
FFFFF80000000000000000FFFFFFFFFFFC
FFFFF800000000000000007FFFFFFFFFFC
FFFFF800000000000000003FFFFFFFFFFC
FFFFF800000000000000001FFFFFFFFFFC
FFFFF800000000000000000FFFFFFFFFFC
FFFFF8000000000000000007FFFFFFFFFC
FFFFF8000000000000000003FFFFFFFFFC
FFFFF8000000000000000001FFFFFFFFFC
FFFFF8000000000000000000FFFFFFFFFC
FFFFF80000000000000000007FFFFFFFFC
FFFFF80000000000000000003FFFFFFFFC
FFFFF80000000000000000001FFFFFFFFC
FFFFF80000000000000000000FFFFFFFFC
FFFFF800000000000000000007FFFFFFFC
FFFFF800000000000000000003FFFFFFFC
FFFFF800000000000000000001FFFFFFFC
FFFFF800000000000000000000FFFFFFFC
FFFFF8000000000000000000007FFFFFFC
FFFFF8000000000000000000003FFFFFFC
FFFFF8000000000000000000001FFFFFF8
FFFFF8000000000000000000000FFFFFF8
FFFFF80000000000000000000007FFFFF8
FFFFF80000000000000000000003FFFFF0
FFFFF80000000000000000000001FFFFF0
FFFFF80000000000000000000000FFFFE0
FFFFF800000000000000000000007FFFE0
FFFFF800000000000000000000001FFFC0
FFFFF800000000000000000000000FFF00
FFFFF8000000000000000000000001FC00
ENDCHAR
STARTCHAR O
ENCODING 79
SWIDTH 968 0
DWIDTH 172 0
BBX 158 130 7 0
BITMAP
00000000000001FFFFFFFFFFFF00000000000000
000000000000FFFFFFFFFFFFFFFC000000000000
00000000000FFFFFFFFFFFFFFFFFC00000000000
00000000007FFFFFFFFFFFFFFFFFF80000000000
0000000003FFFFFFFFFFFFFFFFFFFF0000000000
000000000FFFFFFFFFFFFFFFFFFFFFE000000000
000000003FFFFFFFFFFFFFFFFFFFFFF800000000
00000000FFFFFFFFFFFFFFFFFFFFFFFE00000000
00000003FFFFFFFFFFFFFFFFFFFFFFFF80000000
0000000FFFFFFFFFFFFFFFFFFFFFFFFFC0000000
0000001FFFFFFFFFFFFFFFFFFFFFFFFFF0000000
0000007FFFFFFFFFFFFFFFFFFFFFFFFFF8000000
000000FFFFFFFFFFFFFFFFFFFFFFFFFFFE000000
000001FFFFFFFFFFFFFFFFFFFFFFFFFFFF000000
000003FFFFFFFFFFFFFFFFFFFFFFFFFFFF800000
00000FFFFFFFFFFFFFFFFFFFFFFFFFFFFFC00000
00001FFFFFFFFFFFFFFFFFFFFFFFFFFFFFE00000
00003FFFFFFFFFFFFFFFFFFFFFFFFFFFFFF00000
00007FFFFFFFFFFFFFFFFFFFFFFFFFFFFFF80000
0000FFFFFFFFFFFFFFFFFFFFFFFFFFFFFFFC0000
0001FFFFFFFFFFFFFFFFFFFFFFFFFFFFFFFE0000
0001FFFFFFFFFFFFFFFFFFFFFFFFFFFFFFFF0000
0003FFFFFFFFFFFFFFFFFFFFFFFFFFFFFFFF8000
0007FFFFFFFFFE000000000001FFFFFFFFFFC000
000FFFFFFFFFE00000000000001FFFFFFFFFC000
000FFFFFFFFF0000000000000003FFFFFFFFE000
001FFFFFFFFC00000000000000007FFFFFFFF000
003FFFFFFFF000000000000000001FFFFFFFF000
003FFFFFFFC000000000000000000FFFFFFFF800
007FFFFFFF00000000000000000003FFFFFFFC00
00FFFFFFFE00000000000000000001FFFFFFFC00
00FFFFFFFC000000000000000000007FFFFFFE00
01FFFFFFF8000000000000000000003FFFFFFE00
01FFFFFFE0000000000000000000001FFFFFFF00
03FFFFFFC0000000000000000000000FFFFFFF00
03FFFFFFC00000000000000000000007FFFFFF80
03FFFFFF800000000000000000000003FFFFFF80
07FFFFFF000000000000000000000001FFFFFF80
07FFFFFE000000000000000000000001FFFFFFC0
0FFFFFFC000000000000000000000000FFFFFFC0
0FFFFFFC0000000000000000000000007FFFFFE0
0FFFFFF80000000000000000000000007FFFFFE0
1FFFFFF80000000000000000000000003FFFFFE0
1FFFFFF00000000000000000000000001FFFFFE0
1FFFFFF00000000000000000000000001FFFFFF0
1FFFFFE00000000000000000000000000FFFFFF0
3FFFFFE00000000000000000000000000FFFFFF0
3FFFFFC00000000000000000000000000FFFFFF0
3FFFFFC000000000000000000000000007FFFFF8
3FFFFF8000000000000000000000000007FFFFF8
3FFFFF8000000000000000000000000007FFFFF8
7FFFFF8000000000000000000000000003FFFFF8
7FFFFF8000000000000000000000000003FFFFF8
7FFFFF0000000000000000000000000003FFFFFC
7FFFFF0000000000000000000000000001FFFFFC
7FFFFF0000000000000000000000000001FFFFFC
7FFFFF0000000000000000000000000001FFFFFC
7FFFFF0000000000000000000000000001FFFFFC
7FFFFE0000000000000000000000000001FFFFFC
7FFFFE0000000000000000000000000001FFFFFC
7FFFFE0000000000000000000000000001FFFFFC
FFFFFE0000000000000000000000000001FFFFFC
FFFFFE0000000000000000000000000000FFFFFC
FFFFFE0000000000000000000000000000FFFFFC
FFFFFE0000000000000000000000000000FFFFFC
FFFFFE0000000000000000000000000000FFFFFC
7FFFFE0000000000000000000000000000FFFFFC
7FFFFE0000000000000000000000000001FFFFFC
7FFFFE0000000000000000000000000001FFFFFC
7FFFFE0000000000000000000000000001FFFFFC
7FFFFE0000000000000000000000000001FFFFFC
7FFFFF0000000000000000000000000001FFFFFC
7FFFFF0000000000000000000000000001FFFFFC
7FFFFF0000000000000000000000000001FFFFFC
7FFFFF0000000000000000000000000001FFFFF8
7FFFFF0000000000000000000000000003FFFFF8
7FFFFF0000000000000000000000000003FFFFF8
3FFFFF8000000000000000000000000003FFFFF8
3FFFFF8000000000000000000000000003FFFFF8
3FFFFF8000000000000000000000000007FFFFF8
3FFFFFC000000000000000000000000007FFFFF0
1FFFFFC000000000000000000000000007FFFFF0
1FFFFFC00000000000000000000000000FFFFFF0
1FFFFFE00000000000000000000000000FFFFFF0
1FFFFFE00000000000000000000000001FFFFFE0
0FFFFFF00000000000000000000000001FFFFFE0
0FFFFFF00000000000000000000000003FFFFFE0
0FFFFFF80000000000000000000000003FFFFFC0
07FFFFF80000000000000000000000007FFFFFC0
07FFFFFC0000000000000000000000007FFFFFC0
07FFFFFE000000000000000000000000FFFFFF80
03FFFFFE000000000000000000000001FFFFFF80
03FFFFFF000000000000000000000003FFFFFF00
01FFFFFF800000000000000000000003FFFFFF00
01FFFFFFC00000000000000000000007FFFFFF00
00FFFFFFE0000000000000000000000FFFFFFE00
00FFFFFFF0000000000000000000001FFFFFFE00
007FFFFFF8000000000000000000003FFFFFFC00
007FFFFFFC000000000000000000007FFFFFF800
003FFFFFFE00000000000000000001FFFFFFF800
003FFFFFFF80000000000000000003FFFFFFF000
001FFFFFFFC000000000000000000FFFFFFFF000
000FFFFFFFF000000000000000003FFFFFFFE000
000FFFFFFFFC0000000000000000FFFFFFFFC000
0007FFFFFFFF0000000000000003FFFFFFFFC000
0003FFFFFFFFE00000000000001FFFFFFFFF8000
0003FFFFFFFFFE000000000001FFFFFFFFFF0000
0001FFFFFFFFFFFFFFFFFFFFFFFFFFFFFFFE0000
0000FFFFFFFFFFFFFFFFFFFFFFFFFFFFFFFE0000
00007FFFFFFFFFFFFFFFFFFFFFFFFFFFFFFC0000
00003FFFFFFFFFFFFFFFFFFFFFFFFFFFFFF80000
00001FFFFFFFFFFFFFFFFFFFFFFFFFFFFFF00000
00000FFFFFFFFFFFFFFFFFFFFFFFFFFFFFE00000
000007FFFFFFFFFFFFFFFFFFFFFFFFFFFFC00000
000003FFFFFFFFFFFFFFFFFFFFFFFFFFFF800000
000001FFFFFFFFFFFFFFFFFFFFFFFFFFFE000000
000000FFFFFFFFFFFFFFFFFFFFFFFFFFFC000000
0000003FFFFFFFFFFFFFFFFFFFFFFFFFF8000000
0000001FFFFFFFFFFFFFFFFFFFFFFFFFF0000000
0000000FFFFFFFFFFFFFFFFFFFFFFFFFC0000000
00000003FFFFFFFFFFFFFFFFFFFFFFFF80000000
00000000FFFFFFFFFFFFFFFFFFFFFFFE00000000
000000007FFFFFFFFFFFFFFFFFFFFFF800000000
000000001FFFFFFFFFFFFFFFFFFFFFE000000000
0000000007FFFFFFFFFFFFFFFFFFFF8000000000
0000000000FFFFFFFFFFFFFFFFFFFE0000000000
00000000003FFFFFFFFFFFFFFFFFF00000000000
000000000007FFFFFFFFFFFFFFFF800000000000
0000000000007FFFFFFFFFFFFFF8000000000000
00000000000001FFFFFFFFFFFE00000000000000
ENDCHAR
STARTCHAR P
ENCODING 80
SWIDTH 867 0
DWIDTH 154 0
BBX 139 130 11 0
BITMAP
FFFFFFFFFFFFFFFFFFFFFFFFF00000000000
FFFFFFFFFFFFFFFFFFFFFFFFFF8000000000
FFFFFFFFFFFFFFFFFFFFFFFFFFF800000000
FFFFFFFFFFFFFFFFFFFFFFFFFFFF00000000
FFFFFFFFFFFFFFFFFFFFFFFFFFFFC0000000
FFFFFFFFFFFFFFFFFFFFFFFFFFFFF0000000
FFFFFFFFFFFFFFFFFFFFFFFFFFFFFC000000
FFFFFFFFFFFFFFFFFFFFFFFFFFFFFF000000
FFFFFFFFFFFFFFFFFFFFFFFFFFFFFF800000
FFFFFFFFFFFFFFFFFFFFFFFFFFFFFFE00000
FFFFFFFFFFFFFFFFFFFFFFFFFFFFFFF00000
FFFFFFFFFFFFFFFFFFFFFFFFFFFFFFF80000
FFFFFFFFFFFFFFFFFFFFFFFFFFFFFFFC0000
FFFFFFFFFFFFFFFFFFFFFFFFFFFFFFFE0000
FFFFFFFFFFFFFFFFFFFFFFFFFFFFFFFF0000
FFFFFFFFFFFFFFFFFFFFFFFFFFFFFFFF8000
FFFFFFFFFFFFFFFFFFFFFFFFFFFFFFFF8000
FFFFFFFFFFFFFFFFFFFFFFFFFFFFFFFFC000
FFFFFFFFFFFFFFFFFFFFFFFFFFFFFFFFE000
FFFFFFFFFFFFFFFFFFFFFFFFFFFFFFFFF000
FFFFFFFFFFFFFFFFFFFFFFFFFFFFFFFFF000
FFFFFFFFFFFFFFFFFFFFFFFFFFFFFFFFF800
FFFFFFFFFFFFFFFFFFFFFFFFFFFFFFFFF800
FFFFFE0000000000000000001FFFFFFFFC00
FFFFFE00000000000000000003FFFFFFFC00
FFFFFE00000000000000000000FFFFFFFE00
FFFFFE000000000000000000003FFFFFFE00
FFFFFE000000000000000000000FFFFFFE00
FFFFFE0000000000000000000007FFFFFF00
FFFFFE0000000000000000000003FFFFFF00
FFFFFE0000000000000000000001FFFFFF00
FFFFFE0000000000000000000000FFFFFF80
FFFFFE0000000000000000000000FFFFFF80
FFFFFE00000000000000000000007FFFFF80
FFFFFE00000000000000000000003FFFFF80
FFFFFE00000000000000000000003FFFFFC0
FFFFFE00000000000000000000001FFFFFC0
FFFFFE00000000000000000000001FFFFFC0
FFFFFE00000000000000000000001FFFFFC0
FFFFFE00000000000000000000000FFFFFC0
FFFFFE00000000000000000000000FFFFFC0
FFFFFE00000000000000000000000FFFFFC0
FFFFFE00000000000000000000000FFFFFC0
FFFFFE00000000000000000000000FFFFFC0
FFFFFE00000000000000000000000FFFFFC0
FFFFFE00000000000000000000000FFFFFE0
FFFFFE00000000000000000000000FFFFFE0
FFFFFE00000000000000000000000FFFFFE0
FFFFFE00000000000000000000000FFFFFC0
FFFFFE00000000000000000000000FFFFFC0
FFFFFE00000000000000000000000FFFFFC0
FFFFFE00000000000000000000000FFFFFC0
FFFFFE00000000000000000000000FFFFFC0
FFFFFE00000000000000000000000FFFFFC0
FFFFFE00000000000000000000000FFFFFC0
FFFFFE00000000000000000000001FFFFFC0
FFFFFE00000000000000000000001FFFFFC0
FFFFFE00000000000000000000001FFFFFC0
FFFFFE00000000000000000000003FFFFF80
FFFFFE00000000000000000000003FFFFF80
FFFFFE00000000000000000000007FFFFF80
FFFFFE00000000000000000000007FFFFF80
FFFFFE0000000000000000000000FFFFFF00
FFFFFE0000000000000000000001FFFFFF00
FFFFFE0000000000000000000003FFFFFF00
FFFFFE0000000000000000000007FFFFFE00
FFFFFE000000000000000000000FFFFFFE00
FFFFFE000000000000000000001FFFFFFE00
FFFFFE000000000000000000003FFFFFFC00
FFFFFE00000000000000000000FFFFFFFC00
FFFFFE00000000000000000007FFFFFFF800
FFFFFE0000000000000000007FFFFFFFF800
FFFFFE0001FFFFFFFFFFFFFFFFFFFFFFF000
FFFFFE0001FFFFFFFFFFFFFFFFFFFFFFF000
FFFFFE0001FFFFFFFFFFFFFFFFFFFFFFE000
FFFFFE0001FFFFFFFFFFFFFFFFFFFFFFC000
FFFFFE0001FFFFFFFFFFFFFFFFFFFFFFC000
FFFFFE0001FFFFFFFFFFFFFFFFFFFFFF8000
FFFFFE0001FFFFFFFFFFFFFFFFFFFFFF0000
FFFFFE0001FFFFFFFFFFFFFFFFFFFFFE0000
FFFFFE0001FFFFFFFFFFFFFFFFFFFFFC0000
FFFFFE0001FFFFFFFFFFFFFFFFFFFFF80000
FFFFFE0001FFFFFFFFFFFFFFFFFFFFF00000
FFFFFE0001FFFFFFFFFFFFFFFFFFFFE00000
FFFFFE0001FFFFFFFFFFFFFFFFFFFFC00000
FFFFFE0001FFFFFFFFFFFFFFFFFFFF000000
FFFFFE0001FFFFFFFFFFFFFFFFFFFE000000
FFFFFE0001FFFFFFFFFFFFFFFFFFF8000000
FFFFFE0001FFFFFFFFFFFFFFFFFFF0000000
FFFFFE0001FFFFFFFFFFFFFFFFFFC0000000
FFFFFE0001FFFFFFFFFFFFFFFFFE00000000
FFFFFE0001FFFFFFFFFFFFFFFFF800000000
FFFFFE0001FFFFFFFFFFFFFFFF8000000000
FFFFFE0001FFFFFFFFFFFFFFF00000000000
FFFFFE000000000000000000000000000000
FFFFFE000000000000000000000000000000
FFFFFE000000000000000000000000000000
FFFFFE000000000000000000000000000000
FFFFFE000000000000000000000000000000
FFFFFE000000000000000000000000000000
FFFFFE000000000000000000000000000000
FFFFFE000000000000000000000000000000
FFFFFE000000000000000000000000000000
FFFFFE000000000000000000000000000000
FFFFFE000000000000000000000000000000
FFFFFE000000000000000000000000000000
FFFFFE000000000000000000000000000000
FFFFFE000000000000000000000000000000
FFFFFE000000000000000000000000000000
FFFFFE000000000000000000000000000000
FFFFFE000000000000000000000000000000
FFFFFE000000000000000000000000000000
FFFFFE000000000000000000000000000000
FFFFFE000000000000000000000000000000
FFFFFE000000000000000000000000000000
FFFFFE000000000000000000000000000000
FFFFFE000000000000000000000000000000
FFFFFE000000000000000000000000000000
FFFFFE000000000000000000000000000000
FFFFFE000000000000000000000000000000
FFFFFE000000000000000000000000000000
FFFFFE000000000000000000000000000000
FFFFFE000000000000000000000000000000
FFFFFE000000000000000000000000000000
FFFFFE000000000000000000000000000000
FFFFFE000000000000000000000000000000
FFFFFE000000000000000000000000000000
FFFFFE000000000000000000000000000000
FFFFFE000000000000000000000000000000
FFFFFE000000000000000000000000000000
ENDCHAR
STARTCHAR Q
ENCODING 81
SWIDTH 968 0
DWIDTH 172 0
BBX 165 130 7 0
BITMAP
00000000000001FFFFFFFFFFFF0000000000000000
000000000000FFFFFFFFFFFFFFFC00000000000000
00000000000FFFFFFFFFFFFFFFFFC0000000000000
00000000007FFFFFFFFFFFFFFFFFF8000000000000
0000000003FFFFFFFFFFFFFFFFFFFF000000000000
000000000FFFFFFFFFFFFFFFFFFFFFE00000000000
000000003FFFFFFFFFFFFFFFFFFFFFF80000000000
00000000FFFFFFFFFFFFFFFFFFFFFFFE0000000000
00000003FFFFFFFFFFFFFFFFFFFFFFFF8000000000
0000000FFFFFFFFFFFFFFFFFFFFFFFFFC000000000
0000001FFFFFFFFFFFFFFFFFFFFFFFFFF000000000
0000007FFFFFFFFFFFFFFFFFFFFFFFFFF800000000
000000FFFFFFFFFFFFFFFFFFFFFFFFFFFE00000000
000001FFFFFFFFFFFFFFFFFFFFFFFFFFFF00000000
000003FFFFFFFFFFFFFFFFFFFFFFFFFFFF80000000
00000FFFFFFFFFFFFFFFFFFFFFFFFFFFFFC0000000
00001FFFFFFFFFFFFFFFFFFFFFFFFFFFFFE0000000
00003FFFFFFFFFFFFFFFFFFFFFFFFFFFFFF0000000
00007FFFFFFFFFFFFFFFFFFFFFFFFFFFFFF8000000
0000FFFFFFFFFFFFFFFFFFFFFFFFFFFFFFFC000000
0001FFFFFFFFFFFFFFFFFFFFFFFFFFFFFFFE000000
0001FFFFFFFFFFFFFFFFFFFFFFFFFFFFFFFF000000
0003FFFFFFFFFFFFFFFFFFFFFFFFFFFFFFFF800000
0007FFFFFFFFFE000000000001FFFFFFFFFFC00000
000FFFFFFFFFE00000000000001FFFFFFFFFC00000
000FFFFFFFFF0000000000000003FFFFFFFFE00000
001FFFFFFFFC00000000000000007FFFFFFFF00000
003FFFFFFFF000000000000000001FFFFFFFF00000
003FFFFFFFC000000000000000000FFFFFFFF80000
007FFFFFFF00000000000000000003FFFFFFFC0000
00FFFFFFFE00000000000000000001FFFFFFFC0000
00FFFFFFFC000000000000000000007FFFFFFE0000
01FFFFFFF8000000000000000000003FFFFFFE0000
01FFFFFFE0000000000000000000001FFFFFFF0000
03FFFFFFC0000000000000000000000FFFFFFF0000
03FFFFFFC00000000000000000000007FFFFFF8000
03FFFFFF800000000000000000000003FFFFFF8000
07FFFFFF000000000000000000000001FFFFFF8000
07FFFFFE000000000000000000000001FFFFFFC000
0FFFFFFC000000000000000000000000FFFFFFC000
0FFFFFFC0000000000000000000000007FFFFFE000
0FFFFFF80000000000000000000000007FFFFFE000
1FFFFFF80000000000000000000000003FFFFFE000
1FFFFFF00000000000000000000000001FFFFFE000
1FFFFFF00000000000000000000000001FFFFFF000
1FFFFFE00000000000000000000000000FFFFFF000
3FFFFFE00000000000000000000000000FFFFFF000
3FFFFFC00000000000000000000000000FFFFFF000
3FFFFFC000000000000000000000000007FFFFF800
3FFFFF8000000000000000000000000007FFFFF800
3FFFFF8000000000000000000000000007FFFFF800
7FFFFF8000000000000000000000000003FFFFF800
7FFFFF8000000000000000000000000003FFFFF800
7FFFFF0000000000000000000000000003FFFFFC00
7FFFFF0000000000000000000000000001FFFFFC00
7FFFFF0000000000000000000000000001FFFFFC00
7FFFFF0000000000000000000000000001FFFFFC00
7FFFFF0000000000000000000000000001FFFFFC00
7FFFFE0000000000000000000000000001FFFFFC00
7FFFFE0000000000000000000000000001FFFFFC00
7FFFFE0000000000000000000000000001FFFFFC00
FFFFFE0000000000000000000000000001FFFFFC00
FFFFFE0000000000000000000000000000FFFFFC00
FFFFFE0000000000000000000000000000FFFFFC00
FFFFFE0000000000000000000000000000FFFFFC00
FFFFFE0000000000000000000000000000FFFFFC00
7FFFFE0000000000000000000000000000FFFFFC00
7FFFFE0000000000000000000000000001FFFFFC00
7FFFFE0000000000000000000000000001FFFFFC00
7FFFFE0000000000000000000000000001FFFFFC00
7FFFFE0000000000000000000000000001FFFFFC00
7FFFFF0000000000000000000000000001FFFFFC00
7FFFFF0000000000000000000000000001FFFFFC00
7FFFFF0000000000000000000000000001FFFFFC00
7FFFFF0000000000000000000000000001FFFFF800
7FFFFF0000000000000000000000000003FFFFF800
7FFFFF000000000007FFFFFFE000000003FFFFF800
3FFFFF800000000003FFFFFFF000000003FFFFF800
3FFFFF800000000001FFFFFFF800000003FFFFF800
3FFFFF8000000000007FFFFFFC00000007FFFFF800
3FFFFFC000000000003FFFFFFE00000007FFFFF000
1FFFFFC000000000001FFFFFFF80000007FFFFF000
1FFFFFC000000000000FFFFFFFC000000FFFFFF000
1FFFFFE0000000000003FFFFFFE000000FFFFFF000
1FFFFFE0000000000001FFFFFFF000001FFFFFE000
0FFFFFF0000000000000FFFFFFF800001FFFFFE000
0FFFFFF00000000000007FFFFFFE00003FFFFFE000
0FFFFFF80000000000001FFFFFFF00003FFFFFC000
07FFFFF80000000000000FFFFFFF80007FFFFFC000
07FFFFFC00000000000007FFFFFFC0007FFFFFC000
07FFFFFE00000000000001FFFFFFE000FFFFFF8000
03FFFFFE00000000000000FFFFFFF001FFFFFF8000
03FFFFFF000000000000007FFFFFFC03FFFFFF0000
01FFFFFF800000000000003FFFFFFE03FFFFFF0000
01FFFFFFC00000000000000FFFFFFF07FFFFFF0000
00FFFFFFE000000000000007FFFFFF8FFFFFFE0000
00FFFFFFF000000000000003FFFFFFDFFFFFFE0000
007FFFFFF800000000000001FFFFFFFFFFFFFC0000
007FFFFFFC000000000000007FFFFFFFFFFFF80000
003FFFFFFE000000000000003FFFFFFFFFFFF80000
003FFFFFFF800000000000001FFFFFFFFFFFF00000
001FFFFFFFC00000000000000FFFFFFFFFFFF00000
000FFFFFFFF000000000000003FFFFFFFFFFE00000
000FFFFFFFFC00000000000001FFFFFFFFFFC00000
0007FFFFFFFF00000000000000FFFFFFFFFFC00000
0003FFFFFFFFE00000000000003FFFFFFFFF800000
0003FFFFFFFFFE000000000001FFFFFFFFFF000000
0001FFFFFFFFFFFFFFFFFFFFFFFFFFFFFFFE000000
0000FFFFFFFFFFFFFFFFFFFFFFFFFFFFFFFC000000
00007FFFFFFFFFFFFFFFFFFFFFFFFFFFFFFC000000
00003FFFFFFFFFFFFFFFFFFFFFFFFFFFFFF8000000
00001FFFFFFFFFFFFFFFFFFFFFFFFFFFFFF8000000
00000FFFFFFFFFFFFFFFFFFFFFFFFFFFFFFC000000
000007FFFFFFFFFFFFFFFFFFFFFFFFFFFFFE000000
000003FFFFFFFFFFFFFFFFFFFFFFFFFFFFFF800000
000001FFFFFFFFFFFFFFFFFFFFFFFFFFFFFFC00000
000000FFFFFFFFFFFFFFFFFFFFFFFFFFFFFFE00000
0000003FFFFFFFFFFFFFFFFFFFFFFFFFFFFFF80000
0000001FFFFFFFFFFFFFFFFFFFFFFFFFFFFFFC0000
0000000FFFFFFFFFFFFFFFFFFFFFFFFFFFFFFE0000
00000003FFFFFFFFFFFFFFFFFFFFFFFFFFFFFF0000
00000000FFFFFFFFFFFFFFFFFFFFFFFFFFFFFFC000
000000007FFFFFFFFFFFFFFFFFFFFFFBFFFFFFE000
000000001FFFFFFFFFFFFFFFFFFFFFE1FFFFFFF000
0000000007FFFFFFFFFFFFFFFFFFFF80FFFFFFFC00
0000000000FFFFFFFFFFFFFFFFFFFE007FFFFFFE00
00000000003FFFFFFFFFFFFFFFFFF0003FFFFFFF00
000000000007FFFFFFFFFFFFFFFF80000FFFFFFF80
0000000000007FFFFFFFFFFFFFF8000007FFFFFFE0
00000000000001FFFFFFFFFFFE00000003FFFFFFF8
ENDCHAR
STARTCHAR R
ENCODING 82
SWIDTH 921 0
DWIDTH 164 0
BBX 152 130 11 0
BITMAP
FFFFFFFFFFFFFFFFFFFFFFFFF8000000000000
FFFFFFFFFFFFFFFFFFFFFFFFFFE00000000000
FFFFFFFFFFFFFFFFFFFFFFFFFFFE0000000000
FFFFFFFFFFFFFFFFFFFFFFFFFFFF8000000000
FFFFFFFFFFFFFFFFFFFFFFFFFFFFF000000000
FFFFFFFFFFFFFFFFFFFFFFFFFFFFFC00000000
FFFFFFFFFFFFFFFFFFFFFFFFFFFFFF00000000
FFFFFFFFFFFFFFFFFFFFFFFFFFFFFF80000000
FFFFFFFFFFFFFFFFFFFFFFFFFFFFFFE0000000
FFFFFFFFFFFFFFFFFFFFFFFFFFFFFFF0000000
FFFFFFFFFFFFFFFFFFFFFFFFFFFFFFF8000000
FFFFFFFFFFFFFFFFFFFFFFFFFFFFFFFC000000
FFFFFFFFFFFFFFFFFFFFFFFFFFFFFFFE000000
FFFFFFFFFFFFFFFFFFFFFFFFFFFFFFFF000000
FFFFFFFFFFFFFFFFFFFFFFFFFFFFFFFF800000
FFFFFFFFFFFFFFFFFFFFFFFFFFFFFFFFC00000
FFFFFFFFFFFFFFFFFFFFFFFFFFFFFFFFE00000
FFFFFFFFFFFFFFFFFFFFFFFFFFFFFFFFF00000
FFFFFFFFFFFFFFFFFFFFFFFFFFFFFFFFF00000
FFFFFFFFFFFFFFFFFFFFFFFFFFFFFFFFF80000
FFFFFFFFFFFFFFFFFFFFFFFFFFFFFFFFFC0000
FFFFFFFFFFFFFFFFFFFFFFFFFFFFFFFFFC0000
FFFFFFFFFFFFFFFFFFFFFFFFFFFFFFFFFE0000
FFFFFE00000000000000000007FFFFFFFE0000
FFFFFE00000000000000000000FFFFFFFF0000
FFFFFE000000000000000000003FFFFFFF0000
FFFFFE000000000000000000000FFFFFFF0000
FFFFFE0000000000000000000003FFFFFF8000
FFFFFE0000000000000000000001FFFFFF8000
FFFFFE0000000000000000000000FFFFFF8000
FFFFFE00000000000000000000007FFFFFC000
FFFFFE00000000000000000000003FFFFFC000
FFFFFE00000000000000000000003FFFFFC000
FFFFFE00000000000000000000001FFFFFE000
FFFFFE00000000000000000000001FFFFFE000
FFFFFE00000000000000000000000FFFFFE000
FFFFFE00000000000000000000000FFFFFE000
FFFFFE00000000000000000000000FFFFFE000
FFFFFE000000000000000000000007FFFFF000
FFFFFE000000000000000000000007FFFFF000
FFFFFE000000000000000000000007FFFFF000
FFFFFE000000000000000000000007FFFFF000
FFFFFE000000000000000000000003FFFFF000
FFFFFE000000000000000000000003FFFFF000
FFFFFE000000000000000000000003FFFFF000
FFFFFE000000000000000000000003FFFFF000
FFFFFE000000000000000000000003FFFFF000
FFFFFE000000000000000000000003FFFFF000
FFFFFE000000000000000000000003FFFFF000
FFFFFE000000000000000000000003FFFFF000
FFFFFE000000000000000000000003FFFFF000
FFFFFE000000000000000000000003FFFFF000
FFFFFE000000000000000000000003FFFFF000
FFFFFE000000000000000000000007FFFFF000
FFFFFE000000000000000000000007FFFFF000
FFFFFE000000000000000000000007FFFFF000
FFFFFE000000000000000000000007FFFFF000
FFFFFE000000000000000000000007FFFFE000
FFFFFE00000000000000000000000FFFFFE000
FFFFFE00000000000000000000000FFFFFE000
FFFFFE00000000000000000000000FFFFFE000
FFFFFE00000000000000000000001FFFFFE000
FFFFFE00000000000000000000001FFFFFC000
FFFFFE00000000000000000000003FFFFFC000
FFFFFE00000000000000000000003FFFFFC000
FFFFFE00000000000000000000007FFFFF8000
FFFFFE0000000000000000000000FFFFFF8000
FFFFFE0000000000000000000001FFFFFF8000
FFFFFE0000000000000000000003FFFFFF0000
FFFFFE0000000000000000000007FFFFFF0000
FFFFFE000000000000000000000FFFFFFE0000
FFFFFE000000000000000000003FFFFFFE0000
FFFFFE00000000000000000001FFFFFFFC0000
FFFFFE0000000000000000001FFFFFFFFC0000
FFFFFE0001FFFFFFFFFFFFFFFFFFFFFFF80000
FFFFFE0001FFFFFFFFFFFFFFFFFFFFFFF80000
FFFFFE0001FFFFFFFFFFFFFFFFFFFFFFF00000
FFFFFE0001FFFFFFFFFFFFFFFFFFFFFFE00000
FFFFFE0001FFFFFFFFFFFFFFFFFFFFFFC00000
FFFFFE0001FFFFFFFFFFFFFFFFFFFFFFC00000
FFFFFE0001FFFFFFFFFFFFFFFFFFFFFF800000
FFFFFE0001FFFFFFFFFFFFFFFFFFFFFF000000
FFFFFE0001FFFFFFFFFFFFFFFFFFFFFE000000
FFFFFE0001FFFFFFFFFFFFFFFFFFFFFC000000
FFFFFE0001FFFFFFFFFFFFFFFFFFFFF0000000
FFFFFE0001FFFFFFFFFFFFFFFFFFFFE0000000
FFFFFE0001FFFFFFFFFFFFFFFFFFFFC0000000
FFFFFE0001FFFFFFFFFFFFFFFFFFFF00000000
FFFFFE0001FFFFFFFFFFFFFFFFFFFC00000000
FFFFFE0001FFFFFFFFFFFFFFFFFFF000000000
FFFFFE0001FFFFFFFFFFFFFFFFFFC000000000
FFFFFE0001FFFFFFFFFFFFFFFFFFC000000000
FFFFFE0001FFFFFFFFFFFFFFFFFFE000000000
FFFFFE0001FFFFFFFFFFFFFFFFFFF000000000
FFFFFE0000000000000000FFFFFFF800000000
FFFFFE00000000000000007FFFFFFC00000000
FFFFFE00000000000000003FFFFFFE00000000
FFFFFE00000000000000001FFFFFFF00000000
FFFFFE00000000000000000FFFFFFF80000000
FFFFFE000000000000000007FFFFFFC0000000
FFFFFE000000000000000003FFFFFFE0000000
FFFFFE000000000000000003FFFFFFF0000000
FFFFFE000000000000000001FFFFFFF8000000
FFFFFE000000000000000000FFFFFFFC000000
FFFFFE0000000000000000007FFFFFFE000000
FFFFFE0000000000000000003FFFFFFF000000
FFFFFE0000000000000000001FFFFFFF800000
FFFFFE0000000000000000000FFFFFFFC00000
FFFFFE00000000000000000007FFFFFFE00000
FFFFFE00000000000000000003FFFFFFF00000
FFFFFE00000000000000000001FFFFFFF80000
FFFFFE00000000000000000000FFFFFFFC0000
FFFFFE00000000000000000000FFFFFFFE0000
FFFFFE000000000000000000007FFFFFFF0000
FFFFFE000000000000000000003FFFFFFF8000
FFFFFE000000000000000000001FFFFFFFC000
FFFFFE000000000000000000000FFFFFFFE000
FFFFFE0000000000000000000007FFFFFFF000
FFFFFE0000000000000000000003FFFFFFF800
FFFFFE0000000000000000000001FFFFFFFC00
FFFFFE0000000000000000000000FFFFFFFE00
FFFFFE00000000000000000000007FFFFFFF00
FFFFFE00000000000000000000003FFFFFFF80
FFFFFE00000000000000000000003FFFFFFFC0
FFFFFE00000000000000000000001FFFFFFFE0
FFFFFE00000000000000000000000FFFFFFFF0
FFFFFE000000000000000000000007FFFFFFF8
FFFFFE000000000000000000000003FFFFFFFC
FFFFFE000000000000000000000001FFFFFFFE
FFFFFE000000000000000000000000FFFFFFFF
ENDCHAR
STARTCHAR S
ENCODING 83
SWIDTH 880 0
DWIDTH 157 0
BBX 139 130 9 0
BITMAP
00000000FFFFFFFFFFFFFFFFFFFFFFFFF800
0000001FFFFFFFFFFFFFFFFFFFFFFFFFF800
000000FFFFFFFFFFFFFFFFFFFFFFFFFFF800
000007FFFFFFFFFFFFFFFFFFFFFFFFFFF800
00001FFFFFFFFFFFFFFFFFFFFFFFFFFFF800
00007FFFFFFFFFFFFFFFFFFFFFFFFFFFF800
0001FFFFFFFFFFFFFFFFFFFFFFFFFFFFF800
0003FFFFFFFFFFFFFFFFFFFFFFFFFFFFF800
0007FFFFFFFFFFFFFFFFFFFFFFFFFFFFF800
001FFFFFFFFFFFFFFFFFFFFFFFFFFFFFF800
003FFFFFFFFFFFFFFFFFFFFFFFFFFFFFF800
007FFFFFFFFFFFFFFFFFFFFFFFFFFFFFF800
00FFFFFFFFFFFFFFFFFFFFFFFFFFFFFFF800
00FFFFFFFFFFFFFFFFFFFFFFFFFFFFFFF800
01FFFFFFFFFFFFFFFFFFFFFFFFFFFFFFF800
03FFFFFFFFFFFFFFFFFFFFFFFFFFFFFFF800
07FFFFFFFFFFFFFFFFFFFFFFFFFFFFFFF800
07FFFFFFFFFFFFFFFFFFFFFFFFFFFFFFF800
0FFFFFFFFFFFFFFFFFFFFFFFFFFFFFFFF800
0FFFFFFFFFFFFFFFFFFFFFFFFFFFFFFFF800
1FFFFFFFFFFFFFFFFFFFFFFFFFFFFFFFF800
1FFFFFFFFFFFFFFFFFFFFFFFFFFFFFFFF800
1FFFFFFFFFFFFFFFFFFFFFFFFFFFFFFFF800
3FFFFFFFC000000000000000000000000000
3FFFFFFE0000000000000000000000000000
3FFFFFFC0000000000000000000000000000
7FFFFFF00000000000000000000000000000
7FFFFFE00000000000000000000000000000
7FFFFFE00000000000000000000000000000
7FFFFFC00000000000000000000000000000
7FFFFF800000000000000000000000000000
FFFFFF800000000000000000000000000000
FFFFFF800000000000000000000000000000
FFFFFF000000000000000000000000000000
FFFFFF000000000000000000000000000000
FFFFFF000000000000000000000000000000
FFFFFF000000000000000000000000000000
FFFFFF000000000000000000000000000000
FFFFFF000000000000000000000000000000
FFFFFF000000000000000000000000000000
FFFFFF000000000000000000000000000000
7FFFFF000000000000000000000000000000
7FFFFF000000000000000000000000000000
7FFFFF000000000000000000000000000000
7FFFFF800000000000000000000000000000
7FFFFF800000000000000000000000000000
7FFFFF800000000000000000000000000000
3FFFFFC00000000000000000000000000000
3FFFFFE00000000000000000000000000000
3FFFFFF00000000000000000000000000000
1FFFFFF80000000000000000000000000000
1FFFFFFC0000000000000000000000000000
0FFFFFFF0000000000000000000000000000
0FFFFFFFE000000000000000000000000000
07FFFFFFFFFFFFFFFFFFFFFFFFF000000000
07FFFFFFFFFFFFFFFFFFFFFFFFFFC0000000
03FFFFFFFFFFFFFFFFFFFFFFFFFFF8000000
03FFFFFFFFFFFFFFFFFFFFFFFFFFFF000000
01FFFFFFFFFFFFFFFFFFFFFFFFFFFFC00000
00FFFFFFFFFFFFFFFFFFFFFFFFFFFFF00000
007FFFFFFFFFFFFFFFFFFFFFFFFFFFFC0000
003FFFFFFFFFFFFFFFFFFFFFFFFFFFFE0000
001FFFFFFFFFFFFFFFFFFFFFFFFFFFFF0000
000FFFFFFFFFFFFFFFFFFFFFFFFFFFFF8000
0007FFFFFFFFFFFFFFFFFFFFFFFFFFFFC000
0003FFFFFFFFFFFFFFFFFFFFFFFFFFFFE000
0000FFFFFFFFFFFFFFFFFFFFFFFFFFFFF000
00007FFFFFFFFFFFFFFFFFFFFFFFFFFFF800
00001FFFFFFFFFFFFFFFFFFFFFFFFFFFFC00
000007FFFFFFFFFFFFFFFFFFFFFFFFFFFC00
000000FFFFFFFFFFFFFFFFFFFFFFFFFFFE00
0000001FFFFFFFFFFFFFFFFFFFFFFFFFFE00
00000000FFFFFFFFFFFFFFFFFFFFFFFFFF00
000000000000000000000000007FFFFFFF00
000000000000000000000000000FFFFFFF80
0000000000000000000000000001FFFFFF80
0000000000000000000000000000FFFFFF80
00000000000000000000000000007FFFFFC0
00000000000000000000000000003FFFFFC0
00000000000000000000000000001FFFFFC0
00000000000000000000000000000FFFFFC0
00000000000000000000000000000FFFFFE0
000000000000000000000000000007FFFFE0
000000000000000000000000000007FFFFE0
000000000000000000000000000007FFFFE0
000000000000000000000000000003FFFFE0
000000000000000000000000000003FFFFE0
000000000000000000000000000003FFFFE0
000000000000000000000000000003FFFFE0
000000000000000000000000000003FFFFE0
000000000000000000000000000003FFFFE0
000000000000000000000000000003FFFFE0
000000000000000000000000000003FFFFE0
000000000000000000000000000003FFFFE0
000000000000000000000000000003FFFFE0
000000000000000000000000000007FFFFE0
000000000000000000000000000007FFFFE0
000000000000000000000000000007FFFFE0
00000000000000000000000000000FFFFFE0
00000000000000000000000000000FFFFFE0
00000000000000000000000000001FFFFFE0
00000000000000000000000000003FFFFFE0
00000000000000000000000000007FFFFFC0
0000000000000000000000000000FFFFFFC0
0000000000000000000000000001FFFFFFC0
0000000000000000000000000007FFFFFF80
000000000000000000000000003FFFFFFF80
3FFFFFFFFFFFFFFFFFFFFFFFFFFFFFFFFF80
3FFFFFFFFFFFFFFFFFFFFFFFFFFFFFFFFF00
3FFFFFFFFFFFFFFFFFFFFFFFFFFFFFFFFF00
3FFFFFFFFFFFFFFFFFFFFFFFFFFFFFFFFF00
3FFFFFFFFFFFFFFFFFFFFFFFFFFFFFFFFE00
3FFFFFFFFFFFFFFFFFFFFFFFFFFFFFFFFC00
3FFFFFFFFFFFFFFFFFFFFFFFFFFFFFFFFC00
3FFFFFFFFFFFFFFFFFFFFFFFFFFFFFFFF800
3FFFFFFFFFFFFFFFFFFFFFFFFFFFFFFFF800
3FFFFFFFFFFFFFFFFFFFFFFFFFFFFFFFF000
3FFFFFFFFFFFFFFFFFFFFFFFFFFFFFFFE000
3FFFFFFFFFFFFFFFFFFFFFFFFFFFFFFFC000
3FFFFFFFFFFFFFFFFFFFFFFFFFFFFFFF8000
3FFFFFFFFFFFFFFFFFFFFFFFFFFFFFFF0000
3FFFFFFFFFFFFFFFFFFFFFFFFFFFFFFE0000
3FFFFFFFFFFFFFFFFFFFFFFFFFFFFFFC0000
3FFFFFFFFFFFFFFFFFFFFFFFFFFFFFF00000
3FFFFFFFFFFFFFFFFFFFFFFFFFFFFFC00000
3FFFFFFFFFFFFFFFFFFFFFFFFFFFFF800000
3FFFFFFFFFFFFFFFFFFFFFFFFFFFFE000000
3FFFFFFFFFFFFFFFFFFFFFFFFFFFF0000000
3FFFFFFFFFFFFFFFFFFFFFFFFFFF00000000
3FFFFFFFFFFFFFFFFFFFFFFFFFE000000000
ENDCHAR
STARTCHAR T
ENCODING 84
SWIDTH 720 0
DWIDTH 128 0
BBX 120 130 4 0
BITMAP
FFFFFFFFFFFFFFFFFFFFFFFFFFFFFF
FFFFFFFFFFFFFFFFFFFFFFFFFFFFFF
FFFFFFFFFFFFFFFFFFFFFFFFFFFFFF
FFFFFFFFFFFFFFFFFFFFFFFFFFFFFF
FFFFFFFFFFFFFFFFFFFFFFFFFFFFFF
FFFFFFFFFFFFFFFFFFFFFFFFFFFFFF
FFFFFFFFFFFFFFFFFFFFFFFFFFFFFF
FFFFFFFFFFFFFFFFFFFFFFFFFFFFFF
FFFFFFFFFFFFFFFFFFFFFFFFFFFFFF
FFFFFFFFFFFFFFFFFFFFFFFFFFFFFF
FFFFFFFFFFFFFFFFFFFFFFFFFFFFFF
FFFFFFFFFFFFFFFFFFFFFFFFFFFFFF
FFFFFFFFFFFFFFFFFFFFFFFFFFFFFF
FFFFFFFFFFFFFFFFFFFFFFFFFFFFFF
FFFFFFFFFFFFFFFFFFFFFFFFFFFFFF
FFFFFFFFFFFFFFFFFFFFFFFFFFFFFF
FFFFFFFFFFFFFFFFFFFFFFFFFFFFFF
FFFFFFFFFFFFFFFFFFFFFFFFFFFFFF
FFFFFFFFFFFFFFFFFFFFFFFFFFFFFF
FFFFFFFFFFFFFFFFFFFFFFFFFFFFFF
FFFFFFFFFFFFFFFFFFFFFFFFFFFFFF
FFFFFFFFFFFFFFFFFFFFFFFFFFFFFF
FFFFFFFFFFFFFFFFFFFFFFFFFFFFFF
0000000000007FFFFE000000000000
0000000000007FFFFE000000000000
0000000000007FFFFE000000000000
0000000000007FFFFE000000000000
0000000000007FFFFE000000000000
0000000000007FFFFE000000000000
0000000000007FFFFE000000000000
0000000000007FFFFE000000000000
0000000000007FFFFE000000000000
0000000000007FFFFE000000000000
0000000000007FFFFE000000000000
0000000000007FFFFE000000000000
0000000000007FFFFE000000000000
0000000000007FFFFE000000000000
0000000000007FFFFE000000000000
0000000000007FFFFE000000000000
0000000000007FFFFE000000000000
0000000000007FFFFE000000000000
0000000000007FFFFE000000000000
0000000000007FFFFE000000000000
0000000000007FFFFE000000000000
0000000000007FFFFE000000000000
0000000000007FFFFE000000000000
0000000000007FFFFE000000000000
0000000000007FFFFE000000000000
0000000000007FFFFE000000000000
0000000000007FFFFE000000000000
0000000000007FFFFE000000000000
0000000000007FFFFE000000000000
0000000000007FFFFE000000000000
0000000000007FFFFE000000000000
0000000000007FFFFE000000000000
0000000000007FFFFE000000000000
0000000000007FFFFE000000000000
0000000000007FFFFE000000000000
0000000000007FFFFE000000000000
0000000000007FFFFE000000000000
0000000000007FFFFE000000000000
0000000000007FFFFE000000000000
0000000000007FFFFE000000000000
0000000000007FFFFE000000000000
0000000000007FFFFE000000000000
0000000000007FFFFE000000000000
0000000000007FFFFE000000000000
0000000000007FFFFE000000000000
0000000000007FFFFE000000000000
0000000000007FFFFE000000000000
0000000000007FFFFE000000000000
0000000000007FFFFE000000000000
0000000000007FFFFE000000000000
0000000000007FFFFE000000000000
0000000000007FFFFE000000000000
0000000000007FFFFE000000000000
0000000000007FFFFE000000000000
0000000000007FFFFE000000000000
0000000000007FFFFE000000000000
0000000000007FFFFE000000000000
0000000000007FFFFE000000000000
0000000000007FFFFE000000000000
0000000000007FFFFE000000000000
0000000000007FFFFE000000000000
0000000000007FFFFE000000000000
0000000000007FFFFE000000000000
0000000000007FFFFE000000000000
0000000000007FFFFE000000000000
0000000000007FFFFE000000000000
0000000000007FFFFE000000000000
0000000000007FFFFE000000000000
0000000000007FFFFE000000000000
0000000000007FFFFE000000000000
0000000000007FFFFE000000000000
0000000000007FFFFE000000000000
0000000000007FFFFE000000000000
0000000000007FFFFE000000000000
0000000000007FFFFE000000000000
0000000000007FFFFE000000000000
0000000000007FFFFE000000000000
0000000000007FFFFE000000000000
0000000000007FFFFE000000000000
0000000000007FFFFE000000000000
0000000000007FFFFE000000000000
0000000000007FFFFE000000000000
0000000000007FFFFE000000000000
0000000000007FFFFE000000000000
0000000000007FFFFE000000000000
0000000000007FFFFE000000000000
0000000000007FFFFE000000000000
0000000000007FFFFE000000000000
0000000000007FFFFE000000000000
0000000000007FFFFE000000000000
0000000000007FFFFE000000000000
0000000000007FFFFE000000000000
0000000000007FFFFE000000000000
0000000000007FFFFE000000000000
0000000000007FFFFE000000000000
0000000000007FFFFE000000000000
0000000000007FFFFE000000000000
0000000000007FFFFE000000000000
0000000000007FFFFE000000000000
0000000000007FFFFE000000000000
0000000000007FFFFE000000000000
0000000000007FFFFE000000000000
0000000000007FFFFE000000000000
0000000000007FFFFE000000000000
0000000000007FFFFE000000000000
0000000000007FFFFE000000000000
0000000000007FFFFE000000000000
ENDCHAR
STARTCHAR U
ENCODING 85
SWIDTH 889 0
DWIDTH 158 0
BBX 140 132 9 -2
BITMAP
FFFFFF000000000000000000000003FFFFF0
FFFFFF000000000000000000000003FFFFF0
FFFFFF000000000000000000000003FFFFF0
FFFFFF000000000000000000000003FFFFF0
FFFFFF000000000000000000000003FFFFF0
FFFFFF000000000000000000000003FFFFF0
FFFFFF000000000000000000000003FFFFF0
FFFFFF000000000000000000000003FFFFF0
FFFFFF000000000000000000000003FFFFF0
FFFFFF000000000000000000000003FFFFF0
FFFFFF000000000000000000000003FFFFF0
FFFFFF000000000000000000000003FFFFF0
FFFFFF000000000000000000000003FFFFF0
FFFFFF000000000000000000000003FFFFF0
FFFFFF000000000000000000000003FFFFF0
FFFFFF000000000000000000000003FFFFF0
FFFFFF000000000000000000000003FFFFF0
FFFFFF000000000000000000000003FFFFF0
FFFFFF000000000000000000000003FFFFF0
FFFFFF000000000000000000000003FFFFF0
FFFFFF000000000000000000000003FFFFF0
FFFFFF000000000000000000000003FFFFF0
FFFFFF000000000000000000000003FFFFF0
FFFFFF000000000000000000000003FFFFF0
FFFFFF000000000000000000000003FFFFF0
FFFFFF000000000000000000000003FFFFF0
FFFFFF000000000000000000000003FFFFF0
FFFFFF000000000000000000000003FFFFF0
FFFFFF000000000000000000000003FFFFF0
FFFFFF000000000000000000000003FFFFF0
FFFFFF000000000000000000000003FFFFF0
FFFFFF000000000000000000000003FFFFF0
FFFFFF000000000000000000000003FFFFF0
FFFFFF000000000000000000000003FFFFF0
FFFFFF000000000000000000000003FFFFF0
FFFFFF000000000000000000000003FFFFF0
FFFFFF000000000000000000000003FFFFF0
FFFFFF000000000000000000000003FFFFF0
FFFFFF000000000000000000000003FFFFF0
FFFFFF000000000000000000000003FFFFF0
FFFFFF000000000000000000000003FFFFF0
FFFFFF000000000000000000000003FFFFF0
FFFFFF000000000000000000000003FFFFF0
FFFFFF000000000000000000000003FFFFF0
FFFFFF000000000000000000000003FFFFF0
FFFFFF000000000000000000000003FFFFF0
FFFFFF000000000000000000000003FFFFF0
FFFFFF000000000000000000000003FFFFF0
FFFFFF000000000000000000000003FFFFF0
FFFFFF000000000000000000000003FFFFF0
FFFFFF000000000000000000000003FFFFF0
FFFFFF000000000000000000000003FFFFF0
FFFFFF000000000000000000000003FFFFF0
FFFFFF000000000000000000000003FFFFF0
FFFFFF000000000000000000000003FFFFF0
FFFFFF000000000000000000000003FFFFF0
FFFFFF000000000000000000000003FFFFF0
FFFFFF000000000000000000000003FFFFF0
FFFFFF000000000000000000000003FFFFF0
FFFFFF000000000000000000000003FFFFF0
FFFFFF000000000000000000000003FFFFF0
FFFFFF000000000000000000000003FFFFF0
FFFFFF000000000000000000000003FFFFF0
FFFFFF000000000000000000000003FFFFF0
FFFFFF000000000000000000000003FFFFF0
FFFFFF000000000000000000000003FFFFF0
FFFFFF000000000000000000000003FFFFF0
FFFFFF000000000000000000000003FFFFF0
FFFFFF000000000000000000000003FFFFF0
FFFFFF000000000000000000000003FFFFF0
FFFFFF000000000000000000000003FFFFF0
FFFFFF000000000000000000000003FFFFF0
FFFFFF000000000000000000000003FFFFF0
FFFFFF000000000000000000000003FFFFF0
FFFFFF000000000000000000000003FFFFF0
FFFFFF000000000000000000000003FFFFF0
FFFFFF000000000000000000000003FFFFF0
FFFFFF000000000000000000000003FFFFF0
FFFFFF000000000000000000000003FFFFF0
FFFFFF000000000000000000000003FFFFF0
7FFFFF000000000000000000000007FFFFF0
7FFFFF000000000000000000000007FFFFF0
7FFFFF000000000000000000000007FFFFF0
7FFFFF000000000000000000000007FFFFE0
7FFFFF800000000000000000000007FFFFE0
7FFFFF800000000000000000000007FFFFE0
7FFFFF80000000000000000000000FFFFFE0
7FFFFF80000000000000000000000FFFFFE0
7FFFFFC0000000000000000000000FFFFFE0
3FFFFFC0000000000000000000001FFFFFE0
3FFFFFC0000000000000000000001FFFFFC0
3FFFFFE0000000000000000000001FFFFFC0
3FFFFFE0000000000000000000003FFFFFC0
1FFFFFF0000000000000000000003FFFFFC0
1FFFFFF0000000000000000000007FFFFF80
1FFFFFF800000000000000000000FFFFFF80
1FFFFFFC00000000000000000000FFFFFF80
0FFFFFFE00000000000000000001FFFFFF80
0FFFFFFE00000000000000000003FFFFFF00
0FFFFFFF00000000000000000007FFFFFF00
07FFFFFFC000000000000000000FFFFFFE00
07FFFFFFE000000000000000001FFFFFFE00
03FFFFFFF000000000000000007FFFFFFE00
03FFFFFFFC0000000000000000FFFFFFFC00
03FFFFFFFF0000000000000003FFFFFFFC00
01FFFFFFFFC00000000000001FFFFFFFF800
00FFFFFFFFF8000000000000FFFFFFFFF800
00FFFFFFFFFFC0000000000FFFFFFFFFF000
007FFFFFFFFFFF00000003FFFFFFFFFFE000
007FFFFFFFFFFFFFFFFFFFFFFFFFFFFFE000
003FFFFFFFFFFFFFFFFFFFFFFFFFFFFFC000
001FFFFFFFFFFFFFFFFFFFFFFFFFFFFF8000
000FFFFFFFFFFFFFFFFFFFFFFFFFFFFF8000
000FFFFFFFFFFFFFFFFFFFFFFFFFFFFF0000
0007FFFFFFFFFFFFFFFFFFFFFFFFFFFE0000
0003FFFFFFFFFFFFFFFFFFFFFFFFFFFC0000
0001FFFFFFFFFFFFFFFFFFFFFFFFFFF80000
0000FFFFFFFFFFFFFFFFFFFFFFFFFFF00000
00003FFFFFFFFFFFFFFFFFFFFFFFFFE00000
00001FFFFFFFFFFFFFFFFFFFFFFFFF800000
00000FFFFFFFFFFFFFFFFFFFFFFFFF000000
000003FFFFFFFFFFFFFFFFFFFFFFFC000000
000001FFFFFFFFFFFFFFFFFFFFFFF8000000
0000007FFFFFFFFFFFFFFFFFFFFFE0000000
0000001FFFFFFFFFFFFFFFFFFFFF80000000
00000007FFFFFFFFFFFFFFFFFFFE00000000
00000000FFFFFFFFFFFFFFFFFFF000000000
000000001FFFFFFFFFFFFFFFFF8000000000
0000000003FFFFFFFFFFFFFFFC0000000000
00000000003FFFFFFFFFFFFFC00000000000
000000000000FFFFFFFFFFF0000000000000
00000000000000FFFFFFF000000000000000
ENDCHAR
STARTCHAR V
ENCODING 86
SWIDTH 989 0
DWIDTH 176 0
BBX 171 132 2 -2
BITMAP
FFFFFFF000000000000000000000000000007FFFFFE0
7FFFFFF800000000000000000000000000007FFFFFC0
3FFFFFFC0000000000000000000000000000FFFFFFC0
1FFFFFFC0000000000000000000000000001FFFFFF80
1FFFFFFE0000000000000000000000000001FFFFFF80
0FFFFFFE0000000000000000000000000003FFFFFF00
0FFFFFFF0000000000000000000000000003FFFFFF00
07FFFFFF0000000000000000000000000007FFFFFE00
03FFFFFF800000000000000000000000000FFFFFFC00
03FFFFFFC00000000000000000000000000FFFFFFC00
01FFFFFFC00000000000000000000000001FFFFFF800
01FFFFFFE00000000000000000000000001FFFFFF800
00FFFFFFE00000000000000000000000003FFFFFF000
007FFFFFF00000000000000000000000003FFFFFE000
007FFFFFF80000000000000000000000007FFFFFE000
003FFFFFF8000000000000000000000000FFFFFFC000
003FFFFFFC000000000000000000000000FFFFFFC000
001FFFFFFC000000000000000000000001FFFFFF8000
000FFFFFFE000000000000000000000001FFFFFF0000
000FFFFFFF000000000000000000000003FFFFFF0000
0007FFFFFF000000000000000000000007FFFFFE0000
0007FFFFFF800000000000000000000007FFFFFE0000
0003FFFFFF80000000000000000000000FFFFFFC0000
0001FFFFFFC0000000000000000000000FFFFFF80000
0001FFFFFFC0000000000000000000001FFFFFF80000
0000FFFFFFE0000000000000000000001FFFFFF00000
0000FFFFFFF0000000000000000000003FFFFFF00000
00007FFFFFF0000000000000000000007FFFFFE00000
00007FFFFFF8000000000000000000007FFFFFC00000
00003FFFFFF800000000000000000000FFFFFFC00000
00001FFFFFFC00000000000000000000FFFFFF800000
00001FFFFFFE00000000000000000001FFFFFF800000
00000FFFFFFE00000000000000000003FFFFFF000000
00000FFFFFFF00000000000000000003FFFFFE000000
000007FFFFFF00000000000000000007FFFFFE000000
000003FFFFFF80000000000000000007FFFFFC000000
000003FFFFFF8000000000000000000FFFFFFC000000
000001FFFFFFC000000000000000000FFFFFF8000000
000001FFFFFFE000000000000000001FFFFFF0000000
000000FFFFFFE000000000000000003FFFFFF0000000
0000007FFFFFF000000000000000003FFFFFE0000000
0000007FFFFFF000000000000000007FFFFFE0000000
0000003FFFFFF800000000000000007FFFFFC0000000
0000003FFFFFFC0000000000000000FFFFFF80000000
0000001FFFFFFC0000000000000001FFFFFF80000000
0000000FFFFFFE0000000000000001FFFFFF00000000
0000000FFFFFFE0000000000000003FFFFFF00000000
00000007FFFFFF0000000000000003FFFFFE00000000
00000007FFFFFF0000000000000007FFFFFC00000000
00000003FFFFFF800000000000000FFFFFFC00000000
00000001FFFFFFC00000000000000FFFFFF800000000
00000001FFFFFFC00000000000001FFFFFF800000000
00000000FFFFFFE00000000000001FFFFFF000000000
00000000FFFFFFE00000000000003FFFFFE000000000
000000007FFFFFF00000000000003FFFFFE000000000
000000003FFFFFF80000000000007FFFFFC000000000
000000003FFFFFF8000000000000FFFFFFC000000000
000000001FFFFFFC000000000000FFFFFF8000000000
000000001FFFFFFC000000000001FFFFFF0000000000
000000000FFFFFFE000000000001FFFFFF0000000000
0000000007FFFFFE000000000003FFFFFE0000000000
0000000007FFFFFF000000000007FFFFFE0000000000
0000000003FFFFFF800000000007FFFFFC0000000000
0000000003FFFFFF80000000000FFFFFF80000000000
0000000001FFFFFFC0000000000FFFFFF80000000000
0000000000FFFFFFC0000000001FFFFFF00000000000
0000000000FFFFFFE0000000001FFFFFF00000000000
00000000007FFFFFF0000000003FFFFFE00000000000
00000000007FFFFFF0000000007FFFFFC00000000000
00000000003FFFFFF8000000007FFFFFC00000000000
00000000001FFFFFF800000000FFFFFF800000000000
00000000001FFFFFFC00000000FFFFFF800000000000
00000000000FFFFFFE00000001FFFFFF000000000000
00000000000FFFFFFE00000003FFFFFE000000000000
000000000007FFFFFF00000003FFFFFE000000000000
000000000003FFFFFF00000007FFFFFC000000000000
000000000003FFFFFF80000007FFFFFC000000000000
000000000001FFFFFF8000000FFFFFF8000000000000
000000000001FFFFFFC000000FFFFFF0000000000000
000000000000FFFFFFE000001FFFFFF0000000000000
0000000000007FFFFFE000003FFFFFE0000000000000
0000000000007FFFFFF000003FFFFFE0000000000000
0000000000003FFFFFF000007FFFFFC0000000000000
0000000000003FFFFFF800007FFFFF80000000000000
0000000000001FFFFFFC0000FFFFFF80000000000000
0000000000000FFFFFFC0001FFFFFF00000000000000
0000000000000FFFFFFE0001FFFFFF00000000000000
00000000000007FFFFFE0003FFFFFE00000000000000
00000000000007FFFFFF0003FFFFFC00000000000000
00000000000003FFFFFF0007FFFFFC00000000000000
00000000000003FFFFFF8007FFFFF800000000000000
00000000000001FFFFFFC00FFFFFF800000000000000
00000000000000FFFFFFC01FFFFFF000000000000000
00000000000000FFFFFFE01FFFFFE000000000000000
000000000000007FFFFFE03FFFFFE000000000000000
000000000000007FFFFFF03FFFFFC000000000000000
000000000000003FFFFFF87FFFFFC000000000000000
000000000000001FFFFFF8FFFFFF8000000000000000
000000000000001FFFFFFCFFFFFF0000000000000000
000000000000000FFFFFFDFFFFFF0000000000000000
000000000000000FFFFFFFFFFFFE0000000000000000
0000000000000007FFFFFFFFFFFE0000000000000000
0000000000000003FFFFFFFFFFFC0000000000000000
0000000000000003FFFFFFFFFFF80000000000000000
0000000000000001FFFFFFFFFFF80000000000000000
0000000000000001FFFFFFFFFFF00000000000000000
0000000000000000FFFFFFFFFFF00000000000000000
00000000000000007FFFFFFFFFE00000000000000000
00000000000000007FFFFFFFFFC00000000000000000
00000000000000003FFFFFFFFFC00000000000000000
00000000000000003FFFFFFFFF800000000000000000
00000000000000001FFFFFFFFF800000000000000000
00000000000000000FFFFFFFFF000000000000000000
00000000000000000FFFFFFFFE000000000000000000
000000000000000007FFFFFFFE000000000000000000
000000000000000007FFFFFFFC000000000000000000
000000000000000003FFFFFFFC000000000000000000
000000000000000001FFFFFFF8000000000000000000
000000000000000001FFFFFFF0000000000000000000
000000000000000000FFFFFFF0000000000000000000
000000000000000000FFFFFFE0000000000000000000
0000000000000000007FFFFFE0000000000000000000
0000000000000000003FFFFFC0000000000000000000
0000000000000000003FFFFFC0000000000000000000
0000000000000000001FFFFF80000000000000000000
0000000000000000001FFFFF00000000000000000000
0000000000000000000FFFFF00000000000000000000
00000000000000000007FFFE00000000000000000000
00000000000000000003FFFC00000000000000000000
00000000000000000001FFF800000000000000000000
00000000000000000000FFE000000000000000000000
000000000000000000003F8000000000000000000000
ENDCHAR
ENDFONT
